<svg xmlns="http://www.w3.org/2000/svg" xmlns:xlink="http://www.w3.org/1999/xlink" viewBox="0 0 891 438"><defs><style>.cls-1{fill:none;}.cls-2{isolation:isolate;}.cls-3{clip-path:url(#clip-path);}.cls-4{fill:#8c7cd4;opacity:0.86;}.cls-11,.cls-12,.cls-17,.cls-20,.cls-4,.cls-7{mix-blend-mode:multiply;}.cls-5{fill:url(#_ÂÁ_Ï_ÌÌ_È_ËÂÌÚ_24);}.cls-6{fill:url(#_ÂÁ_Ï_ÌÌ_È_ËÂÌÚ_23);}.cls-11,.cls-12,.cls-7{fill:#99469f;}.cls-17,.cls-7{opacity:0.28;}.cls-10,.cls-13,.cls-8,.cls-9{fill:#db545e;}.cls-10,.cls-13,.cls-15,.cls-18,.cls-19,.cls-21,.cls-8,.cls-9{mix-blend-mode:screen;}.cls-18,.cls-8{opacity:0.72;}.cls-19,.cls-9{opacity:0.33;}.cls-10{opacity:0.53;}.cls-11{opacity:0.19;}.cls-12,.cls-20{opacity:0.39;}.cls-13,.cls-15,.cls-21{opacity:0.67;}.cls-14{fill:url(#_ÂÁ_Ï_ÌÌ_È_ËÂÌÚ_22);}.cls-15{fill:url(#_ÂÁ_Ï_ÌÌ_È_ËÂÌÚ_21);}.cls-16{fill:url(#_ÂÁ_Ï_ÌÌ_È_ËÂÌÚ_14);}.cls-17,.cls-20{fill:#96299f;}.cls-18,.cls-19,.cls-21{fill:#db2c39;}.cls-22{fill:url(#_ÂÁ_Ï_ÌÌ_È_ËÂÌÚ_202);}</style><clipPath id="clip-path"><rect class="cls-1" width="891" height="438"/></clipPath><linearGradient id="_ÂÁ_Ï_ÌÌ_È_ËÂÌÚ_24" x1="298.6" y1="244.8" x2="320.98" y2="379.9" gradientUnits="userSpaceOnUse"><stop offset="0" stop-color="#993a52"/><stop offset="1" stop-color="#8b5a96"/></linearGradient><linearGradient id="_ÂÁ_Ï_ÌÌ_È_ËÂÌÚ_23" x1="350.2" y1="323.18" x2="304.82" y2="306.39" gradientUnits="userSpaceOnUse"><stop offset="0" stop-color="#993780"/><stop offset="0.05" stop-color="#94357d"/><stop offset="0.45" stop-color="#712368"/><stop offset="0.78" stop-color="#5c185b"/><stop offset="1" stop-color="#541456"/></linearGradient><linearGradient id="_ÂÁ_Ï_ÌÌ_È_ËÂÌÚ_22" x1="334.26" y1="428.63" x2="333.02" y2="408.43" gradientUnits="userSpaceOnUse"><stop offset="0" stop-color="#993780"/><stop offset="1" stop-color="#531365"/></linearGradient><radialGradient id="_ÂÁ_Ï_ÌÌ_È_ËÂÌÚ_21" cx="226.14" cy="234.56" r="10.78" gradientTransform="translate(-130.31 -140.53) scale(1.95 1.91)" gradientUnits="userSpaceOnUse"><stop offset="0" stop-color="#e69117"/><stop offset="0.12" stop-color="#bd7713"/><stop offset="0.29" stop-color="#84530d"/><stop offset="0.46" stop-color="#553608"/><stop offset="0.62" stop-color="#301e05"/><stop offset="0.77" stop-color="#160e02"/><stop offset="0.9" stop-color="#060401"/><stop offset="1"/></radialGradient><linearGradient id="_ÂÁ_Ï_ÌÌ_È_ËÂÌÚ_14" x1="741.81" y1="158.88" x2="782.39" y2="403.85" gradientTransform="matrix(-1, 0.06, 0.06, 1, 874.88, -27.67)" gradientUnits="userSpaceOnUse"><stop offset="0" stop-color="#7d1932"/><stop offset="1" stop-color="#6d337a"/></linearGradient><linearGradient id="_ÂÁ_Ï_ÌÌ_È_ËÂÌÚ_202" x1="41.99" y1="429.85" x2="42.33" y2="471.38" gradientUnits="userSpaceOnUse"><stop offset="0" stop-color="#451b78"/><stop offset="1" stop-color="#4f0165"/></linearGradient></defs><g class="cls-2"><g id="_ÎÓÈ_1" data-name="—ÎÓÈ_1"><g class="cls-3"><polygon class="cls-4" points="179.07 384.35 224.37 399.45 253.31 394.42 268.41 399.45 428.21 407 530.13 404.48 549 398.19 465.95 383.09 481.05 379.32 471.2 377.65 475.38 377.65 488.6 379.32 483.57 376.8 442.05 376.8 303.64 375.54 252.99 368.85 179.07 384.35"/><path class="cls-5" d="M458.1,343.75c-2.56-5.14-28.42-6-30.14-6.06h-.09l-6.46-6.44a.23.23,0,0,1-.05-.05h0c-5.91-5.88-13.83-13.7-14.58-14.2-1.22-.81-67,4.46-67,4.46l1.63-35.71,10.95-19.88L349.15,263l-11,4.06v-7.31L323,262.57l-24.59,4.52L296,277.64s-6.71,2.62-14.41,6h0C273,287.38,263.17,292,260,295a3.54,3.54,0,0,0-1,1.29c-.52,1.57.76,4.72,2.71,8.58.6,1.21,1.28,2.48,2,3.8h0l.64,1.18.75.65,1.43.42,2.63.79-.41,1.63-.53.45-1.22,1.05.23.42c3,5.72,5.51,11.4,5.17,15.12-.28,3.11-5.23,8.14-11.58,13.37l-1,.82.83.82,1.54.47,2.51.75H257.3l-1.87,1.44c-1,.75-2,1.48-2.94,2.21-6.56,4.84-13.14,9.22-16.93,11.69l-.06,0c-2,1.31-3.22,2.07-3.22,2.07l-15-3.65-2,6.49-18.67-4.06L179.2,385l-.48.62,49.5-6.9,20.48-.93,14.09-.65.86,0,10.46-.47c2.83,3.23,5.65,6.55,5.65,7l96.75-4.4,72.87-3.31,1.21-7.31s.33-.76.86-2c.69-1.67,1.71-4.2,2.76-7l.06-.17c2-5.33,4-11.6,4-14.74A1.79,1.79,0,0,0,458.1,343.75ZM310.74,304a45.45,45.45,0,0,1-.95,6.56c-.45,1.12-4.52,3.12-8.05,4.68l-2.1.9v-3.55l6.21-11.32,5.15-9.38.89-.34C311.6,294.94,311.17,299.92,310.74,304Z"/><path class="cls-6" d="M326.42,306.86v10.95l-10.95-.4L296.4,331.2l1.87-4h0l1.37-2.93v-8.21a60.23,60.23,0,0,0,8.52-2.74c1.9-.79,10.31-1,10.55-1.63.18-.45-7.42.8-7.3-1.21.26-4.52.81-14.86.81-19.07l1.58-.63,9.22-3.63,2.59-1-2,17.85Z"/><path class="cls-7" d="M454.27,359.33l-.06.17-2.76,7S444.1,363.26,440,362s-41,8.12-41,8.12l-10.55,4.46-12,4.53-96.75,4.4c0-.41-2.82-3.73-5.65-7l-10.46.47-.86,0-14.09.65-20.48.93-49.5,6.9.48-.62,17.37-22.11,18.67,4.06,2-6.49,15,3.65s1.21-.76,3.22-2.07l.06,0c3.79-2.47,10.37-6.85,16.93-11.69,5.42,1.65,14.83,4.55,17.94,5.69,4.46,1.62,32.46,0,32.46,0l38.23-10,8.43-8.22,4.06-13,12.17,6.49.82,20.29s15.42.81,19.88.41,30-6.9,30-6.9l11.4-3.41,21.69,6.47,4.67,11.27Z"/><path class="cls-8" d="M347.93,321.06l28.41,5.68,4.86-.41,2.44,2,6.49-.81s9.34-2.43,11.36-3.65,5.28-6.9,5.28-6.9Z"/><path class="cls-7" d="M299.64,347.84s-26.44-.38-40.22,0l-1.17,0a28.27,28.27,0,0,0-2.82.22l1.87-1.44h7.44l-2.51-.75-1.54-.47-.83-.82,1-.82,3.73.39Z"/><path class="cls-7" d="M299.64,318.81v1s-16.23-8.12-22.32-7.3a53.39,53.39,0,0,0-8.49,2.21l-1.55.52-.23-.42,1.22-1.05.53-.45.41-1.63-2.63-.79-1.43-.42-.75-.65-.64-1.18,1.36-.17c2.84-.34,9.38-1,12.2,0C281,309.7,299.64,318.81,299.64,318.81Z"/><path class="cls-7" d="M276.57,285.85s29.56-5.37,37.27-4.15,15.83,5.68,16.64,6.49,9.33,31.65,9.33,31.65l.82-24.35s-6.9-10.95-7.71-11.76-13.8-3.25-13.8-3.25,15.42,1.22,17,1.62,5.28,4.06,5.28,4.06l.72-1.73s-6.4-4.36-7.21-3.95-21.51-.81-23.13-.81S294,278.44,294,278.44Z"/><path class="cls-9" d="M360.1,344.59l-15,7.31s-11,3.24-15,5.27-71.42,13-71.42,13l-15.83-3.65L232.28,366l-5.27-.28-9.74-5.27,15,3.65,26,4.06s56.79-9.77,69.8-15.83c16.76-7.8,18.7-9.63,18.43-10Z"/><path class="cls-9" d="M346.48,342.26l-.58-.1S346.37,342.09,346.48,342.26Z"/><polygon class="cls-10" points="196.57 362.85 216.86 371.38 215.64 367.32 196.57 362.85"/><path class="cls-11" d="M458.3,344.59c0,6.09-7.71,23.94-7.71,23.94l-1.21,7.31-23.07,1.05.34-10.38s4.06-11,4.24-12.79S410,345.81,410,345.81l-6.5-18.67,3.88-9.6c2.13,1.94,8.8,8.54,14,13.66h0a.23.23,0,0,0,.05.05l6.46,6.44H428c1.72.06,27.58.92,30.14,6.06A1.79,1.79,0,0,1,458.3,344.59Z"/><polygon class="cls-11" points="369.44 381.52 369.44 370.16 357.26 359.2 360.51 344.59 345.45 354.54 329.26 360.42 269.61 370.16 279.76 383.55 369.44 381.52"/><polygon class="cls-12" points="198.19 364.88 178.72 385.58 228.22 378.68 274.08 376.65 247.7 374.62 222.95 375.03 198.19 364.88"/><path class="cls-9" d="M458.1,343.75c-1.29,1.88-8.44,4.48-16.15,6.83-10.2,3.11-21.38,5.78-21.38,5.78V358l-37.34,6.5L369,370.56l-89.68,2L270,370.16S377.55,358.8,378,357.58s51.94-15.42,51.94-17c0-.51-.82-1.59-1.94-2.85C429.68,337.75,455.54,338.61,458.1,343.75Z"/><path class="cls-13" d="M263.76,308.68c-3-5.53-5.38-10.32-4.7-12.38.92-2.74,12.53-8.32,22.49-12.67-7.53,3.58-22.08,10.89-22.08,13.89,0,1.56,2.56,5.85,5.65,11,.47.79,1,1.6,1.46,2.42l-1.43-.42-.75-.65-.64-1.18Z"/><path class="cls-13" d="M257.3,346.62h3.85l-1.73,1.19C248.69,355,236.48,361.43,235.56,362c4.36-2.84,12.41-8.21,19.87-13.9Z"/><path class="cls-13" d="M275.7,332c-.52,3.3-5.15,7.71-11.1,12.14-.76.57-1.56,1.15-2.37,1.72l-1.54-.47-.83-.82,1-.82c6.35-5.23,11.3-10.26,11.58-13.37.34-3.72-2.2-9.4-5.17-15.12l-.23-.42,1.22-1.05c.19.31.38.63.56.95C272.74,321.49,276.27,328.4,275.7,332Z"/><polygon class="cls-13" points="298.42 267.09 322.77 262.63 300.86 267.49 304.51 269.52 306.95 273.99 295.99 277.64 298.42 267.09"/><polygon class="cls-7" points="310.6 292.65 299.64 311.73 304.51 300.77 305.73 297.93 297.61 291.44 285.44 289 298.02 290.22 307.35 295.49 310.6 292.65"/><path class="cls-7" d="M346.68,336c-.5-.86-7.26-11.88-23.51-16.54l-4.86.36-35.71,21.1,32.3-23.12.57-.41,10.95.4V306.86L323.58,304l2-17.85,1.63,15s4.86,3.66,5.68,6.9c.46,1.88,2.42,7.54,4,12l2.09,1.4Z"/><polygon class="cls-11" points="420.57 357.98 416.51 369.75 414.42 377.53 384.38 378.79 384.45 364.88 420.57 357.98"/><path class="cls-7" d="M305.85,301.22l-6.21,11.32v1.68c-9-4.21-22-11.14-23.13-11.42s-10.65,1.34-14.74,2.08c-1.95-3.86-3.23-7-2.71-8.58a3.54,3.54,0,0,1,1-1.29,17.7,17.7,0,0,0,4.55-2.33c3.89-3.22,18.42,0,18.42,0l-1.62-1.21s7.31.81,9.33,1.62C291.64,293.43,298.42,297.11,305.85,301.22Z"/><path class="cls-7" d="M313,273.17l16.64-4.05,3.65-7.31,4.87-1.46v6.74l9.06-3.36.68,4.58-5.68,11.76s-5.68-6.9-8.12-8.11-6.49-1.22-6.49-1.22Z"/><polygon class="cls-14" points="179.2 384.96 220.11 378.68 274.08 376.65 279.76 383.55 299.64 381.11 307.35 381.93 318.71 377.06 326.42 378.68 330.48 381.01 449.38 375.03 460.33 372.59 471.29 375.03 471.29 377.06 474.54 377.06 474.54 375.03 478.59 375.03 483.46 377.06 279.35 383.95 275.7 378.68 226.6 383.95 179.2 384.96"/><polygon class="cls-10" points="232.28 364.07 232.28 365.97 227.01 365.69 217.27 360.42 232.28 364.07"/><polygon class="cls-13" points="349.15 263.03 344.28 266.28 338.19 267.09 349.15 263.03"/><path class="cls-10" d="M458.1,343.75c-1.29,1.88-8.44,4.48-16.15,6.83l-12.05-10c0-.51-.82-1.59-1.94-2.85C429.68,337.75,455.54,338.61,458.1,343.75Z"/><ellipse class="cls-15" cx="309.57" cy="307.99" rx="20.98" ry="20.62"/><path class="cls-16" d="M279.38,425.68l-43-22.63-19.7-4.35s-1.46-1.37-3.89-3.76l-.06-.06c-1.73-1.71-4-3.91-6.47-6.47-.64-.64-1.29-1.3-2-2-3.7-3.78-7.9-8.21-12.1-12.87-1.22-1.33-2.41-2.66-3.59-4-.77-.89-1.54-1.76-2.29-2.64l-8.46.48,2.77-1.62,1.7-1,.85-1.62L182,361.62c-7.78-9.62-14-18.93-14.62-24.89-.79-7.09,1.48-18.15,4.24-29.31,0-.29.13-.56.19-.83l-1.5-1.93-.64-.83-.64-3.08,2.89-1.7,1.58-.9.79-1.29c.2-.77.41-1.55.6-2.3.66-2.58,1.29-5.07,1.85-7.42,1.79-7.51,2.91-13.64,2.14-16.61a8.16,8.16,0,0,0-1.23-2.43c-3.91-5.49-15.57-13.78-25.73-20.41,0,0,0,0,0,0-9.12-5.94-17-10.54-17-10.54l-3.91-20.07L102.45,210l-17.58-4.37.81,14-12.91-7.08-3.37,5.67L84,255.63,89.77,324s-75.34-5.86-76.63-4.22c-.81,1-9,16.52-15,28.18h0a.34.34,0,0,1,0,.1c-3.72,7.11-6.65,12.76-6.65,12.76l-.1,0C-10,361-22.52,362.39-32,366.05c-5.24,2-9.52,4.76-10.37,8.34a5.79,5.79,0,0,0-.14,1.62c.35,6,3.36,17.89,6.21,28,0,.11.06.21.08.33.5,1.77,1,3.47,1.46,5.06.12.43.25.85.35,1.26.46,1.52.89,3,1.29,4.22l.37,1.23.44,1.47c.73,2.39,1.2,3.83,1.2,3.83l2.17,13.94L54.35,437l110.51,2.15c0-.77,2.79-7.32,5.67-13.7l11.95.23,1,0,16.09.33,23.38.46,57.07.39Z"/><path class="cls-17" d="M280,426.84l-57.07-.39L199.55,426l-16.09-.33-1,0-11.95-.23c-2.88,6.38-5.71,12.93-5.67,13.7L54.35,437,42.2,464.05l-12.49-7.88s-43-15.5-47.51-12.89-14.47-25.71-14.47-25.71l-.44-1.47-.37-1.23-3.1-10.54-.1-.33h0c-2.85-10.1-5.86-22-6.21-28a5.79,5.79,0,0,1,.14-1.62c.85-3.58,5.13-6.32,10.37-8.34l23.72,2.23,13.36,5.81S34.9,384.88,40,385.36s22.56-2.06,22.56-2.06L61.3,344.35l29-5.46-9.79,16.85L91,370.94l44.57,16.79s32,1.29,36.91-2.12c3.41-2.37,13.8-8.54,19.8-12.06,4.2,4.66,8.4,9.09,12.1,12.87.66.69,1.31,1.35,2,2,2.52,2.56,4.74,4.76,6.47,6.47l.06.06c2.43,2.39,3.89,3.76,3.89,3.76l19.7,4.35,43,22.63Z"/><path class="cls-18" d="M90.14,325.67l2,11.3-39.31,1L50.32,342l-7.47-1.13S32,336.78,29.52,334.58s-14.43-15-14.43-15Z"/><path class="cls-17" d="M138.34,372s30-2.44,45.75-2.67h1.33a19.15,19.15,0,0,1,3.24.25l-2.29-2.64-8.47.48,2.78-1.61,1.71-1,.84-1.63c-.42-.5-.83-1-1.24-1.51l-4.2,1Z"/><path class="cls-17" d="M135.17,316.29l-33.35,32.24s51-46.86,58.05-45.7a42.81,42.81,0,0,1,9.9,3.69c.62.29,1.23.59,1.83.89.07-.27.13-.54.21-.82l-1.51-1.93-.65-.83-.63-3.08,2.9-1.69,1.58-.91.79-1.29c.2-.78.39-1.54.59-2.3,0,0-.6-.11-1.56-.25-3.27-.46-10.79-1.25-13.89.74C155.41,297.62,135.17,316.29,135.17,316.29Z"/><path class="cls-17" d="M157.81,251.63s-34.21-8.39-42.84-5.56S97.59,258,96.75,259.6s-7.15,61.28-7.15,61.28L86,274.26s6.65-21.45,7.49-23.06,15.34-7.12,15.34-7.12-17.41,3.33-19.21,4.22-5.56,8.12-5.56,8.12l-1-3.26s6.81-8.78,7.78-8,24.37-3,26.21-3.06,20.18-3.5,20.18-3.5Z"/><path class="cls-19" d="M84.47,364.28l.64-.22S84.57,364,84.47,364.28Z"/><polygon class="cls-20" points="244.44 410.2 280 426.83 222.94 426.45 170.57 425.53 200.34 419.93 228.54 419.11 244.44 410.2"/><polygon class="cls-17" points="130.91 217.07 102.73 210.09 128.19 218 124.25 222.13 121.97 230.84 134.83 237.14 130.91 217.07"/><path class="cls-17" d="M90.25,321.55v5.78l44.42-19.83c9.74-8.65,23.81-22.78,25.06-23.39,1.41-.69,12.26,1.87,17,3,1.8-7.52,2.91-13.65,2.14-16.61a7.87,7.87,0,0,0-1.24-2.43,19.35,19.35,0,0,1-5.43-4.16c-4.78-5.92-21,1.14-21,1.14l1.71-2.44s-8.21,2-10.43,3.72C141.5,267.12,98.26,313.18,90.25,321.55Z"/><path class="cls-17" d="M115,229.68,95.6,223l-5-13.76L85,206.73l.73,12.92L75,213.8l-.27,8.81,7.74,22.19s5.71-13.59,8.35-16.08S98.08,226,98.08,226Z"/><polygon class="cls-21" points="72.78 212.58 78.67 218.48 85.68 219.65 72.78 212.58"/><path class="cls-17" d="M280,426.84l-57.07-.39L199.55,426l-16.09-.33-1,0-11.95-.23c-2.88,6.38-5.71,12.93-5.67,13.7l-70-1.36c-6.25-5.92-13.74-12.4-20-16-13.49-7.71-78.77-24.31-83.72-23.71-3.91.46-19.31,9.06-25.48,12.59-.1-.41-.23-.83-.35-1.26,5.9-5.84,21.63-18.46,24.75-18.46,3.85,0,71.31,13.49,90.59,15.42s79,1.93,82.87-1.93c2.29-2.29,20.32-14.84,34.52-24.63,5.88,6.28,9.37,15.54,12.84,18.95l4,3.81,19.7,4.36,44.88,18.77Z"/><polygon class="cls-22" points="-81.28 439.12 -71.64 417.91 -46.59 417.91 -2.78 432.82 3.52 425.62 28.58 427.55 34.97 435.84 165.42 439.12 -81.28 439.12"/></g></g></g></svg>