<svg xmlns="http://www.w3.org/2000/svg" xmlns:xlink="http://www.w3.org/1999/xlink" viewBox="0 0 891 438"><defs><style>.cls-1{fill:none;}.cls-2{isolation:isolate;}.cls-3{clip-path:url(#clip-path);}.cls-4{fill:url(#linear-gradient);}.cls-16,.cls-17,.cls-18,.cls-19,.cls-20,.cls-21,.cls-22,.cls-26,.cls-5,.cls-6{mix-blend-mode:screen;}.cls-5{fill:url(#_ÂÁ_Ï_ÌÌ_È_ËÂÌÚ_553);}.cls-6{fill:url(#_ÂÁ_Ï_ÌÌ_È_ËÂÌÚ_554);}.cls-11,.cls-12,.cls-13,.cls-14,.cls-7,.cls-9{fill-rule:evenodd;}.cls-7{fill:url(#_ÂÁ_Ï_ÌÌ_È_ËÂÌÚ_560);}.cls-8,.cls-9{fill:#fff;}.cls-10{mix-blend-mode:soft-light;}.cls-11{fill:#d59683;}.cls-12,.cls-15{fill:#cf9780;}.cls-13{fill:#b0876e;}.cls-14{fill:#e79a8d;}.cls-16{opacity:0.49;fill:url(#_ÂÁ_Ï_ÌÌ_È_ËÂÌÚ_75);}.cls-17{fill:url(#_ÂÁ_Ï_ÌÌ_È_ËÂÌÚ_542);}.cls-18{fill:url(#_ÂÁ_Ï_ÌÌ_È_ËÂÌÚ_542-2);}.cls-19{fill:url(#_ÂÁ_Ï_ÌÌ_È_ËÂÌÚ_539);}.cls-20,.cls-21{opacity:0.7;}.cls-20{fill:url(#_ÂÁ_Ï_ÌÌ_È_ËÂÌÚ_7);}.cls-21{fill:url(#_ÂÁ_Ï_ÌÌ_È_ËÂÌÚ_7-2);}.cls-22{fill:url(#_ÂÁ_Ï_ÌÌ_È_ËÂÌÚ_7-3);}.cls-23,.cls-24,.cls-25{mix-blend-mode:color-dodge;}.cls-23,.cls-25{opacity:0.48;}.cls-23{fill:url(#_ÂÁ_Ï_ÌÌ_È_ËÂÌÚ_7-4);}.cls-24{opacity:0.2;fill:url(#_ÂÁ_Ï_ÌÌ_È_ËÂÌÚ_176);}.cls-25{fill:url(#_ÂÁ_Ï_ÌÌ_È_ËÂÌÚ_7-5);}.cls-26{opacity:0.67;fill:url(#_ÂÁ_Ï_ÌÌ_È_ËÂÌÚ_7-6);}</style><clipPath id="clip-path"><rect class="cls-1" width="891" height="438"/></clipPath><linearGradient id="linear-gradient" x1="440.97" y1="220.49" x2="442.67" y2="-23" gradientUnits="userSpaceOnUse"><stop offset="0" stop-color="#e27c52"/><stop offset="0.09" stop-color="#df7a56"/><stop offset="0.18" stop-color="#d67263"/><stop offset="0.27" stop-color="#c66678"/><stop offset="0.37" stop-color="#b15596"/><stop offset="0.45" stop-color="#9c44b3"/><stop offset="0.52" stop-color="#9042aa"/><stop offset="0.64" stop-color="#713e91"/><stop offset="0.76" stop-color="#4c3873"/><stop offset="1" stop-color="#2a2b6e"/></linearGradient><radialGradient id="_ÂÁ_Ï_ÌÌ_È_ËÂÌÚ_553" cx="-1260.54" cy="171.88" r="14.84" gradientTransform="translate(3116.64 -277.62) scale(2.39 2.37)" gradientUnits="userSpaceOnUse"><stop offset="0" stop-color="#dccafc"/><stop offset="0.12" stop-color="#d8c7f8"/><stop offset="0.25" stop-color="#cebdeb"/><stop offset="0.38" stop-color="#bcacd7"/><stop offset="0.5" stop-color="#a295ba"/><stop offset="0.63" stop-color="#827795"/><stop offset="0.76" stop-color="#5a5267"/><stop offset="0.89" stop-color="#2b2832"/><stop offset="1"/></radialGradient><radialGradient id="_ÂÁ_Ï_ÌÌ_È_ËÂÌÚ_554" cx="-1260.22" cy="171.31" r="12.66" gradientTransform="matrix(2.39, 0, 0, 2.37, 3115.42, -278.05)" gradientUnits="userSpaceOnUse"><stop offset="0" stop-color="#dccafc"/><stop offset="0.22" stop-color="#dac8f9"/><stop offset="0.36" stop-color="#d2c1f1"/><stop offset="0.47" stop-color="#c6b6e2"/><stop offset="0.57" stop-color="#b4a5ce"/><stop offset="0.66" stop-color="#9d90b3"/><stop offset="0.75" stop-color="#807593"/><stop offset="0.83" stop-color="#5e566c"/><stop offset="0.91" stop-color="#37323f"/><stop offset="0.98" stop-color="#0b0a0d"/><stop offset="1"/></radialGradient><radialGradient id="_ÂÁ_Ï_ÌÌ_È_ËÂÌÚ_560" cx="80.98" cy="115.67" r="45.44" gradientUnits="userSpaceOnUse"><stop offset="0" stop-color="#f5defd"/><stop offset="0.06" stop-color="#f5e3fd"/><stop offset="0.31" stop-color="#f7f3fe"/><stop offset="0.6" stop-color="#f8fcff"/><stop offset="0.99" stop-color="#f8ffff"/></radialGradient><linearGradient id="_ÂÁ_Ï_ÌÌ_È_ËÂÌÚ_75" x1="-8" y1="203.59" x2="947" y2="203.59" gradientUnits="userSpaceOnUse"><stop offset="0" stop-color="#ffbf38"/><stop offset="0.09" stop-color="#e2a932"/><stop offset="0.35" stop-color="#936e20"/><stop offset="0.57" stop-color="#543f12"/><stop offset="0.77" stop-color="#261d08"/><stop offset="0.91" stop-color="#0a0802"/><stop offset="1"/></linearGradient><radialGradient id="_ÂÁ_Ï_ÌÌ_È_ËÂÌÚ_542" cx="-1197.75" cy="-20.65" r="14.98" gradientTransform="matrix(2.39, 0, 0, 2.37, 3541.07, 104.38)" gradientUnits="userSpaceOnUse"><stop offset="0" stop-color="#ffff49"/><stop offset="0.12" stop-color="#fbfb48"/><stop offset="0.25" stop-color="#ee4"/><stop offset="0.37" stop-color="#dada3e"/><stop offset="0.5" stop-color="#bdbd36"/><stop offset="0.63" stop-color="#98982b"/><stop offset="0.76" stop-color="#6a6a1e"/><stop offset="0.89" stop-color="#35350f"/><stop offset="1"/></radialGradient><radialGradient id="_ÂÁ_Ï_ÌÌ_È_ËÂÌÚ_542-2" cx="-1184.52" cy="200.75" r="39.75" gradientTransform="matrix(0, 2.39, 2.37, 0, -93.26, 2966.93)" xlink:href="#_ÂÁ_Ï_ÌÌ_È_ËÂÌÚ_542"/><radialGradient id="_ÂÁ_Ï_ÌÌ_È_ËÂÌÚ_539" cx="-1183.67" cy="199.23" r="33.91" gradientTransform="matrix(0, 2.39, 2.37, 0, -93.01, 2967.16)" gradientUnits="userSpaceOnUse"><stop offset="0" stop-color="#ffff47"/><stop offset="0.22" stop-color="#fcfc46"/><stop offset="0.36" stop-color="#f4f444"/><stop offset="0.47" stop-color="#e5e540"/><stop offset="0.57" stop-color="#d1d13a"/><stop offset="0.66" stop-color="#b6b633"/><stop offset="0.75" stop-color="#96962a"/><stop offset="0.83" stop-color="#6f6f1f"/><stop offset="0.91" stop-color="#424212"/><stop offset="0.98" stop-color="#101004"/><stop offset="1"/></radialGradient><radialGradient id="_ÂÁ_Ï_ÌÌ_È_ËÂÌÚ_7" cx="313.71" cy="99.22" r="26.25" gradientTransform="translate(-130.31 -140.53) scale(1.95 1.91)" gradientUnits="userSpaceOnUse"><stop offset="0" stop-color="#e6941f"/><stop offset="0.12" stop-color="#bd7a1a"/><stop offset="0.29" stop-color="#845512"/><stop offset="0.46" stop-color="#55370b"/><stop offset="0.62" stop-color="#301f06"/><stop offset="0.77" stop-color="#160e03"/><stop offset="0.9" stop-color="#060401"/><stop offset="1"/></radialGradient><radialGradient id="_ÂÁ_Ï_ÌÌ_È_ËÂÌÚ_7-2" cx="243.47" cy="100.69" r="13.07" xlink:href="#_ÂÁ_Ï_ÌÌ_È_ËÂÌÚ_7"/><radialGradient id="_ÂÁ_Ï_ÌÌ_È_ËÂÌÚ_7-3" cx="105.51" cy="150.72" r="41.68" xlink:href="#_ÂÁ_Ï_ÌÌ_È_ËÂÌÚ_7"/><radialGradient id="_ÂÁ_Ï_ÌÌ_È_ËÂÌÚ_7-4" cx="108.85" cy="152.34" r="39.88" xlink:href="#_ÂÁ_Ï_ÌÌ_È_ËÂÌÚ_7"/><radialGradient id="_ÂÁ_Ï_ÌÌ_È_ËÂÌÚ_176" cx="127.36" cy="156" r="39.88" gradientTransform="translate(-130.31 -140.53) scale(1.95 1.91)" gradientUnits="userSpaceOnUse"><stop offset="0"/><stop offset="0.19" stop-color="#020200"/><stop offset="0.3" stop-color="#0a0701"/><stop offset="0.38" stop-color="#181003"/><stop offset="0.46" stop-color="#2c1c06"/><stop offset="0.52" stop-color="#452c09"/><stop offset="0.58" stop-color="#64410e"/><stop offset="0.64" stop-color="#895813"/><stop offset="0.69" stop-color="#b47418"/><stop offset="0.74" stop-color="#e3921f"/><stop offset="0.75" stop-color="#e6941f"/><stop offset="0.98"/></radialGradient><radialGradient id="_ÂÁ_Ï_ÌÌ_È_ËÂÌÚ_7-5" cx="116.56" cy="155.45" r="11.09" xlink:href="#_ÂÁ_Ï_ÌÌ_È_ËÂÌÚ_7"/><radialGradient id="_ÂÁ_Ï_ÌÌ_È_ËÂÌÚ_7-6" cx="110.14" cy="185.79" r="10.32" xlink:href="#_ÂÁ_Ï_ÌÌ_È_ËÂÌÚ_7"/></defs><g class="cls-2"><g id="_ÎÓÈ_1" data-name="—ÎÓÈ_1"><g class="cls-3"><rect class="cls-4" x="-8" y="-1" width="899" height="290"/><ellipse class="cls-5" cx="98.75" cy="130.39" rx="35.54" ry="35.24" transform="translate(-63.27 108.02) rotate(-45)"/><ellipse class="cls-6" cx="98.33" cy="128.9" rx="30.32" ry="30.06" transform="translate(-62.34 107.27) rotate(-44.99)"/><path class="cls-7" d="M126.79,128.9A28.3,28.3,0,0,1,71,135.7a28.77,28.77,0,0,1-.82-6.8,28.29,28.29,0,0,1,56.58,0Z"/><circle class="cls-8" cx="270.73" cy="77.89" r="2.02"/><path class="cls-9" d="M125.09,39.63a2,2,0,1,1-2-2A2,2,0,0,1,125.09,39.63Z"/><circle class="cls-8" cx="40.9" cy="27.76" r="2.02"/><path class="cls-9" d="M270.73,39.63a2,2,0,1,1-2-2A2,2,0,0,1,270.73,39.63Z"/><path class="cls-9" d="M123.07,4a2,2,0,1,1-2-2A2,2,0,0,1,123.07,4Z"/><path class="cls-9" d="M299.1,86.2a1.43,1.43,0,1,1-1.43-1.43A1.43,1.43,0,0,1,299.1,86.2Z"/><path class="cls-9" d="M102.06,39.63a1.44,1.44,0,1,1-1.44-1.43A1.44,1.44,0,0,1,102.06,39.63Z"/><path class="cls-9" d="M241,64.77a1.43,1.43,0,1,1-1.43-1.43A1.43,1.43,0,0,1,241,64.77Z"/><path class="cls-9" d="M312.71,44.16a1.43,1.43,0,1,1-1.43-1.43A1.43,1.43,0,0,1,312.71,44.16Z"/><path class="cls-9" d="M230.16,48a1,1,0,1,1-1-1.05A1,1,0,0,1,230.16,48Z"/><path class="cls-9" d="M159.73,32.5a1.06,1.06,0,1,1-1.06-1.05A1.06,1.06,0,0,1,159.73,32.5Z"/><path class="cls-9" d="M65.92,63.08a1,1,0,1,1-1-1A1,1,0,0,1,65.92,63.08Z"/><path class="cls-9" d="M65.92,39a1,1,0,1,1-1-1A1.05,1.05,0,0,1,65.92,39Z"/><path class="cls-9" d="M275.18,69.93a.67.67,0,1,1-1.34,0,.67.67,0,0,1,1.34,0Z"/><path class="cls-9" d="M236.46,64.09a.68.68,0,1,1-.67-.67A.67.67,0,0,1,236.46,64.09Z"/><path class="cls-9" d="M237.13,79.91a.67.67,0,1,1-.67-.67A.67.67,0,0,1,237.13,79.91Z"/><path class="cls-9" d="M245.78,75.87a.68.68,0,0,1-1.35,0,.68.68,0,1,1,1.35,0Z"/><path class="cls-9" d="M227.76,78.83a.67.67,0,1,1-1.34,0,.67.67,0,1,1,1.34,0Z"/><path class="cls-9" d="M30.72,101.63a.67.67,0,0,1-.67.67.68.68,0,0,1-.68-.67.69.69,0,0,1,.68-.68A.68.68,0,0,1,30.72,101.63Z"/><path class="cls-9" d="M281.17,26.41a.69.69,0,0,1-.68.68.68.68,0,0,1-.67-.68.67.67,0,0,1,.67-.67A.68.68,0,0,1,281.17,26.41Z"/><path class="cls-9" d="M248.28,65.11a.34.34,0,1,1-.34-.34A.34.34,0,0,1,248.28,65.11Z"/><path class="cls-9" d="M160.59,140.58a.43.43,0,0,1-.85,0,.43.43,0,1,1,.85,0Z"/><path class="cls-9" d="M167.51,65.44a.34.34,0,1,1-.33-.33A.34.34,0,0,1,167.51,65.44Z"/><path class="cls-9" d="M91,60.69a.34.34,0,1,1-.67,0,.34.34,0,1,1,.67,0Z"/><path class="cls-9" d="M206.31,60.35A.34.34,0,1,1,206,60,.34.34,0,0,1,206.31,60.35Z"/><path class="cls-9" d="M159,63.42a.34.34,0,1,1-.34-.34A.34.34,0,0,1,159,63.42Z"/><path class="cls-9" d="M43.26,65.21a.34.34,0,0,1-.67,0,.34.34,0,1,1,.67,0Z"/><path class="cls-9" d="M31.06,64.09a.34.34,0,1,1-.67,0,.34.34,0,0,1,.67,0Z"/><path class="cls-9" d="M243.22,70.61a.34.34,0,1,1-.34-.34A.34.34,0,0,1,243.22,70.61Z"/><path class="cls-9" d="M179.36,70.94a.34.34,0,1,1-.34-.33A.34.34,0,0,1,179.36,70.94Z"/><path class="cls-9" d="M90.7,71.92a.34.34,0,1,1-.33-.33A.34.34,0,0,1,90.7,71.92Z"/><path class="cls-9" d="M245.78,59.68a.68.68,0,1,1-.67-.68A.67.67,0,0,1,245.78,59.68Z"/><path class="cls-9" d="M214.83,59a.68.68,0,1,1-.67-.67A.67.67,0,0,1,214.83,59Z"/><path class="cls-9" d="M86.84,30.46a.68.68,0,0,1-.68.67.68.68,0,0,1,0-1.35A.68.68,0,0,1,86.84,30.46Z"/><path class="cls-9" d="M192.52,81.74a.68.68,0,0,1-.67.68.69.69,0,0,1-.68-.68.68.68,0,0,1,.68-.67A.67.67,0,0,1,192.52,81.74Z"/><path class="cls-9" d="M83.39,29.78a.69.69,0,0,1-.68.68.68.68,0,0,1-.67-.68.67.67,0,0,1,.67-.67A.68.68,0,0,1,83.39,29.78Z"/><path class="cls-9" d="M63.82,35.5a.68.68,0,1,1-1.35,0,.68.68,0,0,1,1.35,0Z"/><path class="cls-9" d="M206,27.09a.68.68,0,1,1-.67-.68A.67.67,0,0,1,206,27.09Z"/><path class="cls-9" d="M240.21,23.2a.68.68,0,1,1-.67-.68A.67.67,0,0,1,240.21,23.2Z"/><circle class="cls-8" cx="726.5" cy="56.69" r="1.19"/><path class="cls-9" d="M369.75-2.8a2,2,0,0,1,2.86,0,2,2,0,0,1,0,2.86,2,2,0,0,1-2.86,0A2,2,0,0,1,369.75-2.8Z"/><circle class="cls-8" cx="734" cy="75.1" r="0.84"/><path class="cls-9" d="M730.92,86a.62.62,0,1,1,0,.88A.63.63,0,0,1,730.92,86Z"/><path class="cls-9" d="M721.34,58.14a.4.4,0,0,1,.56.56.4.4,0,0,1-.56-.56Z"/><path class="cls-9" d="M735,76.65a.4.4,0,0,1,.56.56.4.4,0,1,1-.56-.56Z"/><path class="cls-9" d="M741.29,69.8a.4.4,0,0,1,.56.56.39.39,0,0,1-.56,0A.4.4,0,0,1,741.29,69.8Z"/><path class="cls-9" d="M736,67.89a.4.4,0,0,1,.56.56.4.4,0,1,1-.56-.56Z"/><path class="cls-9" d="M353-.84a.68.68,0,0,1,1,0,.67.67,0,0,1,0,1,.68.68,0,0,1-1,0A.69.69,0,0,1,353-.84Z"/><path class="cls-9" d="M730.51,71.32a.21.21,0,0,1,.28,0,.2.2,0,1,1-.28,0Z"/><circle class="cls-8" cx="746.11" cy="90.88" r="0.2"/><path class="cls-9" d="M734.89,71.14a.2.2,0,1,1,0,.28A.21.21,0,0,1,734.89,71.14Z"/><path class="cls-9" d="M729.29,74.62a.4.4,0,0,1,.56.56.4.4,0,1,1-.56-.56Z"/><path class="cls-9" d="M741.87,87.76a.39.39,0,0,1,.56,0,.4.4,0,0,1-.56.56A.39.39,0,0,1,741.87,87.76Z"/><path class="cls-9" d="M732.29,104.69a.4.4,0,0,1,.56,0,.42.42,0,0,1,0,.57.4.4,0,0,1-.56,0A.42.42,0,0,1,732.29,104.69Z"/><path class="cls-9" d="M379.71,30.39a.68.68,0,0,1,1,0,.69.69,0,0,1,0,1,.68.68,0,0,1-1-1Z"/><path class="cls-9" d="M772.79,77.51a1.19,1.19,0,1,1,1.68,1.68,1.19,1.19,0,0,1-1.68-1.68Z"/><circle class="cls-8" cx="831.6" cy="54.37" r="1.19"/><path class="cls-9" d="M796.86,60.3a1.2,1.2,0,0,1,1.68,0A1.19,1.19,0,1,1,796.86,62,1.2,1.2,0,0,1,796.86,60.3Z"/><circle class="cls-8" cx="758.57" cy="95.09" r="1.19"/><path class="cls-9" d="M761.42,106.6a1.19,1.19,0,0,1,1.68,1.68,1.19,1.19,0,0,1-1.68-1.68Z"/><path class="cls-9" d="M765.29,63.11a.84.84,0,1,1,0,1.19A.84.84,0,0,1,765.29,63.11Z"/><circle class="cls-8" cx="812.69" cy="41.91" r="0.84"/><circle class="cls-8" cx="805.97" cy="48.44" r="0.84"/><circle class="cls-8" cx="781.14" cy="96.76" r="0.84"/><path class="cls-9" d="M742.17,74.92a.84.84,0,1,1,0,1.19A.84.84,0,0,1,742.17,74.92Z"/><path class="cls-9" d="M778.06,107.62a.62.62,0,0,1,.87,0,.63.63,0,0,1,0,.88.62.62,0,1,1-.87-.88Z"/><path class="cls-9" d="M783,119.71a.63.63,0,0,1,.88,0,.62.62,0,0,1,0,.87.63.63,0,0,1-.88,0A.62.62,0,0,1,783,119.71Z"/><path class="cls-9" d="M759.33,103.93a.62.62,0,1,1,0,.87A.6.6,0,0,1,759.33,103.93Z"/><path class="cls-9" d="M723.49,126.6a.63.63,0,0,1,.88,0,.62.62,0,0,1,0,.87.63.63,0,0,1-.88,0A.62.62,0,0,1,723.49,126.6Z"/><path class="cls-9" d="M768.47,79.81a.39.39,0,0,1,.56,0,.4.4,0,0,1-.56.56A.39.39,0,0,1,768.47,79.81Z"/><path class="cls-9" d="M782.13,98.32a.4.4,0,1,1,.56.56.4.4,0,0,1-.56-.56Z"/><path class="cls-9" d="M762.33,103.45a.4.4,0,0,1,.56.56.4.4,0,0,1-.56-.56Z"/><path class="cls-9" d="M806.53,94.81a.39.39,0,0,1,.56,0,.4.4,0,0,1-.56.56A.39.39,0,0,1,806.53,94.81Z"/><path class="cls-9" d="M818.57,91.86a.4.4,0,0,1,.56,0,.4.4,0,0,1-.56.56A.4.4,0,0,1,818.57,91.86Z"/><path class="cls-9" d="M788.42,91.47A.4.4,0,1,1,789,92a.4.4,0,0,1-.56-.56Z"/><path class="cls-9" d="M840.57,42.42a.4.4,0,0,1,.56.56.4.4,0,1,1-.56-.56Z"/><path class="cls-9" d="M783.15,89.55a.4.4,0,0,1,.56,0,.4.4,0,1,1-.56.56A.4.4,0,0,1,783.15,89.55Z"/><path class="cls-9" d="M747.91,95.4a.4.4,0,1,1,0,.56A.39.39,0,0,1,747.91,95.4Z"/><path class="cls-9" d="M777.64,93a.2.2,0,0,1,.28.28.21.21,0,0,1-.28,0A.19.19,0,0,1,777.64,93Z"/><path class="cls-9" d="M746.37,99.41a.19.19,0,0,1,.28,0,.21.21,0,0,1,0,.28.2.2,0,0,1-.28-.28Z"/><path class="cls-9" d="M751.8,95.78a.19.19,0,0,1,.28,0,.21.21,0,0,1,0,.28.2.2,0,0,1-.28-.28Z"/><path class="cls-9" d="M793.1,112.4a.2.2,0,1,1,0,.28A.19.19,0,0,1,793.1,112.4Z"/><circle class="cls-8" cx="793.44" cy="126.44" r="0.2"/><path class="cls-9" d="M302.41,58.32a.34.34,0,1,1,0,.48A.34.34,0,0,1,302.41,58.32Z"/><path class="cls-9" d="M785.75,126.5a.19.19,0,0,1,.28,0,.21.21,0,0,1,0,.28.2.2,0,0,1-.28-.28Z"/><path class="cls-9" d="M785.55,123.89a.2.2,0,1,1,0,.28A.19.19,0,0,1,785.55,123.89Z"/><path class="cls-9" d="M760.93,105.94a.2.2,0,1,1,0,.28A.19.19,0,0,1,760.93,105.94Z"/><path class="cls-9" d="M782,92.8a.21.21,0,0,1,.28,0,.2.2,0,1,1-.28,0Z"/><path class="cls-9" d="M759.62,103a.21.21,0,0,1,.28,0,.2.2,0,1,1-.28,0Z"/><path class="cls-9" d="M776.42,96.28a.4.4,0,0,1,.56,0,.4.4,0,1,1-.56.56A.4.4,0,0,1,776.42,96.28Z"/><path class="cls-9" d="M752.25,102.66a.4.4,0,0,1,.56.56.4.4,0,0,1-.56-.56Z"/><path class="cls-9" d="M757.5,103.05a.4.4,0,0,1,.56,0,.4.4,0,0,1-.56.56A.4.4,0,0,1,757.5,103.05Z"/><path class="cls-9" d="M789,109.42a.4.4,0,0,1,.56.56.4.4,0,0,1-.56-.56Z"/><path class="cls-9" d="M836,73.34a.4.4,0,0,1,.56.56.4.4,0,0,1-.56-.56Z"/><path class="cls-9" d="M826.09,109.81a.4.4,0,0,1,.56,0,.4.4,0,0,1-.56.56A.4.4,0,0,1,826.09,109.81Z"/><path class="cls-9" d="M772.16,123.55a.4.4,0,1,1,.56.56.39.39,0,0,1-.56,0A.4.4,0,0,1,772.16,123.55Z"/><path class="cls-9" d="M841.48,69.8a.4.4,0,0,1,.56.56.4.4,0,0,1-.56-.56Z"/><path class="cls-9" d="M342.76,50.63a1.43,1.43,0,1,1,0,2A1.42,1.42,0,0,1,342.76,50.63Z"/><path class="cls-9" d="M344.69,7.05a1.43,1.43,0,1,1,0,2A1.44,1.44,0,0,1,344.69,7.05Z"/><path class="cls-9" d="M99.61,53.54a1.43,1.43,0,1,1,0,2A1.44,1.44,0,0,1,99.61,53.54Z"/><path class="cls-9" d="M338.53,70.13a1,1,0,0,1,1.48,0,1.06,1.06,0,0,1,0,1.49,1,1,0,0,1-1.48,0A1.06,1.06,0,0,1,338.53,70.13Z"/><path class="cls-9" d="M345.46,54.29a.68.68,0,0,1,1,1,.69.69,0,0,1-1,0A.68.68,0,0,1,345.46,54.29Z"/><path class="cls-9" d="M356.17,42.62a.68.68,0,1,1,0,1A.69.69,0,0,1,356.17,42.62Z"/><path class="cls-9" d="M368.68,2.43a.68.68,0,1,1,0,1A.69.69,0,0,1,368.68,2.43Z"/><path class="cls-9" d="M347.2,39.37a.68.68,0,0,1,.95,0,.67.67,0,0,1-.95,1A.68.68,0,0,1,347.2,39.37Z"/><path class="cls-9" d="M337.82,45.21a.34.34,0,1,1,0,.48A.34.34,0,0,1,337.82,45.21Z"/><path class="cls-9" d="M324.92,73a.34.34,0,1,1,0,.48A.34.34,0,0,1,324.92,73Z"/><path class="cls-9" d="M364.14,78.26a.33.33,0,0,1,.48,0,.33.33,0,0,1,0,.47.34.34,0,0,1-.48,0A.33.33,0,0,1,364.14,78.26Z"/><path class="cls-9" d="M345.29,44.9a.34.34,0,1,1,0,.48A.34.34,0,0,1,345.29,44.9Z"/><path class="cls-9" d="M335.75,50.82a.68.68,0,0,1,.95,0,.67.67,0,1,1-.95,1A.68.68,0,0,1,335.75,50.82Z"/><path class="cls-9" d="M289.74,50.41a.67.67,0,1,1,.95,1,.67.67,0,0,1-.95-1Z"/><path class="cls-9" d="M357.16,73.18a.68.68,0,1,1,0,1A.69.69,0,0,1,357.16,73.18Z"/><path class="cls-9" d="M779.42,126.36a.4.4,0,1,1,.56.56.4.4,0,0,1-.56-.56Z"/><path class="cls-9" d="M785,144.23a.4.4,0,0,1,.56,0,.39.39,0,0,1,0,.56.4.4,0,1,1-.56-.56Z"/><path class="cls-9" d="M763.58,113.75a.4.4,0,0,1,.56.56.4.4,0,0,1-.56-.56Z"/><g class="cls-10"><path class="cls-9" d="M248.84,152.15a2.11,2.11,0,1,1-2.1-2.1A2.1,2.1,0,0,1,248.84,152.15Z"/><path class="cls-9" d="M194.8,20.36a2.11,2.11,0,1,1-2.11-2.1A2.1,2.1,0,0,1,194.8,20.36Z"/><path class="cls-9" d="M177.22,39.7a2.11,2.11,0,1,1-2.11-2.1A2.1,2.1,0,0,1,177.22,39.7Z"/><path class="cls-9" d="M95.19,112.34a2.11,2.11,0,1,1-2.11-2.11A2.1,2.1,0,0,1,95.19,112.34Z"/><path class="cls-9" d="M1.67,33.82a2.1,2.1,0,0,1-2.1,2.11,2.1,2.1,0,0,1-2.11-2.11,2.1,2.1,0,0,1,2.11-2.1A2.1,2.1,0,0,1,1.67,33.82Z"/><path class="cls-9" d="M9.69,100a2.11,2.11,0,1,1-2.11-2.11A2.11,2.11,0,0,1,9.69,100Z"/><path class="cls-9" d="M246.74,112.34a2.11,2.11,0,1,1-2.11-2.11A2.11,2.11,0,0,1,246.74,112.34Z"/><path class="cls-9" d="M93.08,75.21A2.11,2.11,0,1,1,91,73.1,2.1,2.1,0,0,1,93.08,75.21Z"/><path class="cls-9" d="M276.27,160.8a1.49,1.49,0,1,1-1.49-1.49A1.49,1.49,0,0,1,276.27,160.8Z"/><path class="cls-9" d="M71.22,112.34a1.49,1.49,0,1,1-1.49-1.49A1.49,1.49,0,0,1,71.22,112.34Z"/><path class="cls-9" d="M215.76,138.5a1.49,1.49,0,1,1-1.49-1.49A1.49,1.49,0,0,1,215.76,138.5Z"/><path class="cls-9" d="M289.3,53.94a1.49,1.49,0,1,1-1.49-1.48A1.48,1.48,0,0,1,289.3,53.94Z"/><circle class="cls-8" cx="288.94" cy="117.05" r="1.49"/><path class="cls-9" d="M204.53,121a1.1,1.1,0,1,1-1.1-1.09A1.1,1.1,0,0,1,204.53,121Z"/><path class="cls-9" d="M131.23,104.92a1.1,1.1,0,1,1-1.1-1.09A1.09,1.09,0,0,1,131.23,104.92Z"/><path class="cls-9" d="M33.61,136.74a1.09,1.09,0,1,1-1.09-1.09A1.09,1.09,0,0,1,33.61,136.74Z"/><path class="cls-9" d="M33.61,111.7a1.09,1.09,0,1,1-1.09-1.1A1.09,1.09,0,0,1,33.61,111.7Z"/><path class="cls-9" d="M54,47.52a1.1,1.1,0,1,1-1.1-1.09A1.1,1.1,0,0,1,54,47.52Z"/><circle class="cls-8" cx="250.67" cy="143.87" r="0.7"/><circle class="cls-8" cx="210.38" cy="137.8" r="0.7"/><path class="cls-9" d="M211.78,154.26a.7.7,0,1,1-.7-.7A.7.7,0,0,1,211.78,154.26Z"/><circle class="cls-8" cx="220.08" cy="150.05" r="0.7"/><circle class="cls-8" cx="201.33" cy="153.13" r="0.7"/><path class="cls-9" d="M257.6,98.58a.7.7,0,1,1-.7-.7A.7.7,0,0,1,257.6,98.58Z"/><path class="cls-9" d="M223.38,138.85a.35.35,0,0,1-.7,0,.35.35,0,0,1,.7,0Z"/><path class="cls-9" d="M68.59,187.66a.35.35,0,1,1-.7,0,.35.35,0,0,1,.7,0Z"/><path class="cls-9" d="M139.33,139.2a.35.35,0,0,1-.35.35.35.35,0,1,1,0-.7A.35.35,0,0,1,139.33,139.2Z"/><path class="cls-9" d="M59.75,134.25a.35.35,0,0,1-.35.35.35.35,0,1,1,0-.7A.35.35,0,0,1,59.75,134.25Z"/><path class="cls-9" d="M179.7,133.9a.35.35,0,1,1-.35-.35A.35.35,0,0,1,179.7,133.9Z"/><circle class="cls-8" cx="130.13" cy="137.09" r="0.35"/><path class="cls-9" d="M10,139a.35.35,0,0,1-.35.35.34.34,0,0,1-.35-.35.35.35,0,0,1,.35-.35A.35.35,0,0,1,10,139Z"/><circle class="cls-8" cx="217.76" cy="144.57" r="0.35"/><circle class="cls-8" cx="151.31" cy="144.92" r="0.35"/><circle class="cls-8" cx="59.05" cy="145.94" r="0.35"/><circle class="cls-8" cx="220.08" cy="133.2" r="0.7"/><path class="cls-9" d="M188.57,132.5a.7.7,0,1,1-.7-.7A.7.7,0,0,1,188.57,132.5Z"/><path class="cls-9" d="M55.38,102.79a.7.7,0,1,1-.7-.7A.7.7,0,0,1,55.38,102.79Z"/><path class="cls-9" d="M202,48.62a.7.7,0,1,1-.7-.7A.7.7,0,0,1,202,48.62Z"/><circle class="cls-8" cx="174.94" cy="2.81" r="0.7"/><circle class="cls-8" cx="164.66" cy="156.16" r="0.7"/><path class="cls-9" d="M51.79,102.09a.7.7,0,1,1-.7-.7A.7.7,0,0,1,51.79,102.09Z"/><path class="cls-9" d="M40.17,61.33a.7.7,0,1,1-.7-.7A.7.7,0,0,1,40.17,61.33Z"/><path class="cls-9" d="M13.37,62a.7.7,0,1,1-.7-.7A.7.7,0,0,1,13.37,62Z"/><path class="cls-9" d="M100.55,22.47a.7.7,0,1,1-.7-.7A.7.7,0,0,1,100.55,22.47Z"/><path class="cls-9" d="M159.24,4.21a.7.7,0,1,1-.7-.7A.7.7,0,0,1,159.24,4.21Z"/><circle class="cls-8" cx="30.72" cy="108.04" r="0.7"/><path class="cls-9" d="M12.67,59.93a.71.71,0,1,1-.7-.7A.7.7,0,0,1,12.67,59.93Z"/><circle class="cls-8" cx="50.38" cy="59.93" r="0.7"/><path class="cls-9" d="M113.25,31.72a.7.7,0,1,1-.7-.7A.7.7,0,0,1,113.25,31.72Z"/><path class="cls-9" d="M179.35,99.28a.7.7,0,1,1-.7-.7A.7.7,0,0,1,179.35,99.28Z"/><path class="cls-9" d="M62.75,50.75a.7.7,0,1,1-.7-.7A.7.7,0,0,1,62.75,50.75Z"/><path class="cls-9" d="M166.84,67a.7.7,0,1,1-.7-.7A.7.7,0,0,1,166.84,67Z"/><path class="cls-9" d="M61.16,14.55a.71.71,0,1,1-.7-.7A.7.7,0,0,1,61.16,14.55Z"/><circle class="cls-8" cx="214.28" cy="95.24" r="0.7"/><path class="cls-9" d="M376.45,38.54a2.1,2.1,0,1,1,0,3A2.1,2.1,0,0,1,376.45,38.54Z"/><path class="cls-9" d="M288.94,44.32a2.11,2.11,0,1,1,0,3A2.11,2.11,0,0,1,288.94,44.32Z"/><circle class="cls-8" cx="351.27" cy="69.67" r="2.1"/><path class="cls-9" d="M363.17,13a1.49,1.49,0,1,1,0,2.11A1.48,1.48,0,0,1,363.17,13Z"/><path class="cls-9" d="M390.18,71.59a1.49,1.49,0,1,1,0,2.1A1.5,1.5,0,0,1,390.18,71.59Z"/><path class="cls-9" d="M322.22,34a1.49,1.49,0,1,1,0,2.11A1.48,1.48,0,0,1,322.22,34Z"/><path class="cls-9" d="M385.78,91.88a1.08,1.08,0,0,1,1.54,0,1.09,1.09,0,1,1-1.54,0Z"/><circle class="cls-8" cx="369.29" cy="43.1" r="0.7"/><path class="cls-9" d="M393,75.39a.71.71,0,0,1,1,0,.72.72,0,0,1,0,1,.7.7,0,0,1-1-1Z"/><circle class="cls-8" cx="404.64" cy="63.75" r="0.7"/><circle class="cls-8" cx="395.3" cy="60.37" r="0.7"/><circle class="cls-8" cx="332.87" cy="70.72" r="0.7"/><path class="cls-9" d="M385,66a.35.35,0,0,1,.5.5.35.35,0,0,1-.5-.5Z"/><path class="cls-9" d="M412.43,100.34a.35.35,0,0,1,.5,0,.36.36,0,0,1,0,.49.35.35,0,0,1-.5,0A.34.34,0,0,1,412.43,100.34Z"/><path class="cls-9" d="M294.57,7.23a.35.35,0,0,1,.5,0,.36.36,0,0,1,0,.49.35.35,0,0,1-.5,0A.34.34,0,0,1,294.57,7.23Z"/><path class="cls-9" d="M392.81,65.63a.35.35,0,0,1,.5,0,.34.34,0,0,1,0,.49.35.35,0,0,1-.5,0A.36.36,0,0,1,392.81,65.63Z"/><circle class="cls-8" cx="383.38" cy="72.28" r="0.7"/><path class="cls-9" d="M405.17,95.06a.69.69,0,0,1,1,0,.7.7,0,1,1-1,1A.69.69,0,0,1,405.17,95.06Z"/><circle class="cls-8" cx="266.32" cy="8.18" r="0.7"/><path class="cls-9" d="M388.2,125.06a.71.71,0,0,1,1,0,.7.7,0,1,1-1,1A.71.71,0,0,1,388.2,125.06Z"/><path class="cls-9" d="M360.14,102.73a.7.7,0,1,1,1,1,.7.7,0,0,1-1-1Z"/><path class="cls-9" d="M459.93,76.91a2.11,2.11,0,1,1,0,3A2.11,2.11,0,0,1,459.93,76.91Z"/><path class="cls-9" d="M562.62,34.44a2.11,2.11,0,1,1,0,3A2.11,2.11,0,0,1,562.62,34.44Z"/><circle class="cls-8" cx="504.06" cy="47.92" r="2.1"/><path class="cls-9" d="M433.27,106.55a2.1,2.1,0,1,1,0,3A2.1,2.1,0,0,1,433.27,106.55Z"/><path class="cls-9" d="M439.79,128.44a2.11,2.11,0,1,1,0,3A2.11,2.11,0,0,1,439.79,128.44Z"/><path class="cls-9" d="M446.65,51.4a1.49,1.49,0,1,1,0,2.11A1.5,1.5,0,0,1,446.65,51.4Z"/><path class="cls-9" d="M529.56,12.79a1.49,1.49,0,1,1,0,2.11A1.5,1.5,0,0,1,529.56,12.79Z"/><path class="cls-9" d="M517.65,24.37a1.47,1.47,0,0,1,2.1,0,1.48,1.48,0,1,1-2.1,0Z"/><path class="cls-9" d="M473.67,110a1.48,1.48,0,1,1,0,2.1A1.48,1.48,0,0,1,473.67,110Z"/><path class="cls-9" d="M405.7,72.32a1.49,1.49,0,1,1,0,2.11A1.5,1.5,0,0,1,405.7,72.32Z"/><path class="cls-9" d="M469.26,130.25a1.1,1.1,0,0,1,1.55,1.55,1.1,1.1,0,1,1-1.55-1.55Z"/><path class="cls-9" d="M478,151.66a1.09,1.09,0,0,1,1.55,0,1.08,1.08,0,0,1,0,1.54,1.09,1.09,0,0,1-1.55,0A1.08,1.08,0,0,1,478,151.66Z"/><path class="cls-9" d="M436.09,123.71a1.09,1.09,0,1,1,0,1.54A1.08,1.08,0,0,1,436.09,123.71Z"/><path class="cls-9" d="M372.62,163.86a1.09,1.09,0,1,1,0,1.54A1.08,1.08,0,0,1,372.62,163.86Z"/><circle class="cls-8" cx="452.78" cy="81.47" r="0.7"/><circle class="cls-8" cx="476.98" cy="114.26" r="0.7"/><path class="cls-9" d="M441.41,122.85a.72.72,0,0,1,1,0,.7.7,0,1,1-1,0Z"/><circle class="cls-8" cx="520.19" cy="108.04" r="0.7"/><circle class="cls-8" cx="541.53" cy="102.82" r="0.7"/><circle class="cls-8" cx="488.12" cy="102.12" r="0.7"/><circle class="cls-8" cx="338.58" cy="50.75" r="0.7"/><path class="cls-9" d="M580,14.75a.7.7,0,1,1,0,1A.72.72,0,0,1,580,14.75Z"/><circle class="cls-8" cx="478.78" cy="98.74" r="0.7"/><circle class="cls-8" cx="416.35" cy="109.09" r="0.7"/><path class="cls-9" d="M256.4,45.31a.7.7,0,1,1,0,1A.72.72,0,0,1,256.4,45.31Z"/><path class="cls-9" d="M468.53,104.32a.34.34,0,0,1,.49,0,.35.35,0,0,1,0,.5.36.36,0,0,1-.49,0A.35.35,0,0,1,468.53,104.32Z"/><path class="cls-9" d="M413.13,115.7a.35.35,0,0,1,.5,0,.35.35,0,0,1-.5.5A.35.35,0,0,1,413.13,115.7Z"/><path class="cls-9" d="M422.75,109.27a.35.35,0,0,1,.5.5.35.35,0,0,1-.5-.5Z"/><path class="cls-9" d="M359.34,47.28a.35.35,0,1,1,0,.49A.34.34,0,0,1,359.34,47.28Z"/><path class="cls-9" d="M495.91,138.71a.35.35,0,0,1,.5,0,.34.34,0,0,1,0,.49.35.35,0,0,1-.5,0A.36.36,0,0,1,495.91,138.71Z"/><path class="cls-9" d="M496.27,163.33a.35.35,0,1,1,0,.49A.34.34,0,0,1,496.27,163.33Z"/><path class="cls-9" d="M279.71,131.79a.35.35,0,1,1,0,.49A.34.34,0,0,1,279.71,131.79Z"/><path class="cls-9" d="M482.89,163.68a.34.34,0,0,1,.49,0,.35.35,0,0,1,0,.5.36.36,0,0,1-.49,0A.35.35,0,0,1,482.89,163.68Z"/><path class="cls-9" d="M482.53,159.06a.37.37,0,0,1,.5,0,.35.35,0,0,1-.5.5A.37.37,0,0,1,482.53,159.06Z"/><path class="cls-9" d="M438.93,127.27a.35.35,0,1,1,0,.49A.34.34,0,0,1,438.93,127.27Z"/><path class="cls-9" d="M476.3,104a.35.35,0,0,1,.5,0,.36.36,0,0,1,0,.49.35.35,0,0,1-.5,0A.34.34,0,0,1,476.3,104Z"/><path class="cls-9" d="M436.61,122.05a.35.35,0,0,1,.5,0,.36.36,0,0,1,0,.49.35.35,0,0,1-.5,0A.34.34,0,0,1,436.61,122.05Z"/><circle class="cls-8" cx="466.87" cy="110.65" r="0.7"/><path class="cls-9" d="M423.56,121.45a.69.69,0,0,1,1,0,.7.7,0,0,1-1,1A.69.69,0,0,1,423.56,121.45Z"/><circle class="cls-8" cx="433.35" cy="122.65" r="0.7"/><circle class="cls-8" cx="273.29" cy="64.45" r="0.7"/><path class="cls-9" d="M284.5,40.62a1.48,1.48,0,1,1,0,2.1A1.47,1.47,0,0,1,284.5,40.62Z"/><circle class="cls-8" cx="298.95" cy="32.78" r="0.7"/><path class="cls-9" d="M289.12,28.9a.71.71,0,0,1,1,0,.72.72,0,0,1,0,1,.7.7,0,0,1-1-1Z"/><path class="cls-9" d="M279.36,35a.36.36,0,0,1,.49,0,.35.35,0,0,1,0,.5.34.34,0,0,1-.49,0A.35.35,0,0,1,279.36,35Z"/><path class="cls-9" d="M287.13,34.66a.35.35,0,1,1,0,.49A.34.34,0,0,1,287.13,34.66Z"/><circle class="cls-8" cx="277.7" cy="41.31" r="0.7"/><circle class="cls-8" cx="489.15" cy="133.92" r="0.7"/><path class="cls-9" d="M571.9,69.52a.71.71,0,0,1,1,0,.72.72,0,0,1,0,1,.7.7,0,0,1-1-1Z"/><circle class="cls-8" cx="554.85" cy="134.62" r="0.7"/><path class="cls-9" d="M458.82,158.46a.7.7,0,1,1,0,1A.72.72,0,0,1,458.82,158.46Z"/><path class="cls-9" d="M581.6,63.26a.7.7,0,1,1,1,1,.7.7,0,0,1-1-1Z"/><path class="cls-9" d="M321.7,123.78a1.49,1.49,0,1,1,0,2.11A1.48,1.48,0,0,1,321.7,123.78Z"/><path class="cls-9" d="M323.71,78.43a1.49,1.49,0,1,1,0,2.11A1.48,1.48,0,0,1,323.71,78.43Z"/><path class="cls-9" d="M68.68,126.81a1.49,1.49,0,1,1,0,2.11A1.48,1.48,0,0,1,68.68,126.81Z"/><path class="cls-9" d="M317.29,144.08a1.09,1.09,0,1,1,0,1.54A1.08,1.08,0,0,1,317.29,144.08Z"/><circle class="cls-8" cx="325.01" cy="128.09" r="0.7"/><circle class="cls-8" cx="336.15" cy="115.95" r="0.7"/><circle class="cls-8" cx="349.16" cy="74.13" r="0.7"/><path class="cls-9" d="M326.32,112.07a.69.69,0,0,1,1,0,.7.7,0,0,1-1,1A.69.69,0,0,1,326.32,112.07Z"/><path class="cls-9" d="M316.56,118.15a.35.35,0,1,1,0,.49A.34.34,0,0,1,316.56,118.15Z"/><path class="cls-9" d="M303.13,147a.37.37,0,0,1,.5,0,.35.35,0,0,1-.5.5A.37.37,0,0,1,303.13,147Z"/><path class="cls-9" d="M343.94,152.53a.35.35,0,0,1,.5.5.35.35,0,0,1-.5-.5Z"/><path class="cls-9" d="M324.33,117.82a.36.36,0,0,1,.49,0,.35.35,0,0,1,0,.5.34.34,0,0,1-.49,0A.35.35,0,0,1,324.33,117.82Z"/><circle class="cls-8" cx="314.9" cy="124.48" r="0.7"/><circle class="cls-8" cx="267.02" cy="124.05" r="0.7"/><path class="cls-9" d="M336.68,147.25a.71.71,0,0,1,1,0,.7.7,0,1,1-1,0Z"/><circle class="cls-8" cx="472.18" cy="163.93" r="0.7"/><circle class="cls-8" cx="482.08" cy="195.58" r="0.7"/><circle class="cls-8" cx="444.12" cy="141.59" r="0.7"/><path class="cls-9" d="M599.2,88a2.11,2.11,0,1,1-2.11-2.11A2.11,2.11,0,0,1,599.2,88Z"/><path class="cls-9" d="M597.09,48.17a2.11,2.11,0,1,1-2.1-2.11A2.1,2.1,0,0,1,597.09,48.17Z"/><path class="cls-9" d="M626.62,96.63a1.49,1.49,0,1,1-1.49-1.49A1.49,1.49,0,0,1,626.62,96.63Z"/><path class="cls-9" d="M566.12,74.33a1.49,1.49,0,1,1-1.49-1.49A1.49,1.49,0,0,1,566.12,74.33Z"/><circle class="cls-8" cx="639.3" cy="52.88" r="1.49"/><path class="cls-9" d="M554.88,56.87a1.09,1.09,0,1,1-1.09-1.1A1.09,1.09,0,0,1,554.88,56.87Z"/><path class="cls-9" d="M601.73,79.7a.7.7,0,1,1-.7-.7A.7.7,0,0,1,601.73,79.7Z"/><path class="cls-9" d="M561.44,73.63a.71.71,0,1,1-.71-.7A.7.7,0,0,1,561.44,73.63Z"/><path class="cls-9" d="M562.14,90.09a.71.71,0,1,1-.7-.7A.7.7,0,0,1,562.14,90.09Z"/><circle class="cls-8" cx="570.43" cy="85.88" r="0.7"/><path class="cls-9" d="M552.39,89a.71.71,0,1,1-.71-.7A.7.7,0,0,1,552.39,89Z"/><path class="cls-9" d="M608,34.41a.71.71,0,1,1-.71-.7A.71.71,0,0,1,608,34.41Z"/><circle class="cls-8" cx="573.38" cy="74.68" r="0.35"/><path class="cls-9" d="M568.47,80.4a.35.35,0,0,1-.7,0,.35.35,0,0,1,.7,0Z"/><path class="cls-9" d="M571.13,69a.7.7,0,1,1-.7-.7A.7.7,0,0,1,571.13,69Z"/><path class="cls-9" d="M565.34,31.07a.71.71,0,1,1-.7-.7A.7.7,0,0,1,565.34,31.07Z"/><circle class="cls-8" cx="701.63" cy="5.5" r="2.1"/><circle class="cls-8" cx="741.59" cy="8.47" r="1.49"/><circle class="cls-8" cx="736.91" cy="28.48" r="1.09"/><path class="cls-9" d="M743.35,11.23a.7.7,0,0,1,1,1,.7.7,0,1,1-1-1Z"/><circle class="cls-8" cx="754.99" cy="-0.42" r="0.7"/><circle class="cls-8" cx="683.22" cy="6.55" r="0.7"/><path class="cls-9" d="M735.4,1.78a.36.36,0,0,1,.49,0,.35.35,0,0,1,0,.5.34.34,0,0,1-.49,0A.35.35,0,0,1,735.4,1.78Z"/><path class="cls-9" d="M762.78,36.17a.35.35,0,0,1,.5,0,.34.34,0,0,1,0,.49.35.35,0,0,1-.5,0A.36.36,0,0,1,762.78,36.17Z"/><path class="cls-9" d="M743.17,1.46a.34.34,0,0,1,.49,0,.35.35,0,0,1,0,.5.36.36,0,0,1-.49,0A.35.35,0,0,1,743.17,1.46Z"/><circle class="cls-8" cx="733.74" cy="8.11" r="0.7"/><path class="cls-9" d="M755.52,30.89a.7.7,0,1,1,1,1,.7.7,0,0,1-1-1Z"/><circle class="cls-8" cx="739.05" cy="61.39" r="0.7"/><path class="cls-9" d="M710.5,38.56a.7.7,0,0,1,1,1,.7.7,0,0,1-1-1Z"/><path class="cls-9" d="M810.29,12.74a2.11,2.11,0,1,1,0,3A2.11,2.11,0,0,1,810.29,12.74Z"/><circle class="cls-8" cx="785.11" cy="43.87" r="2.1"/><path class="cls-9" d="M790.15,64.27a2.1,2.1,0,1,1,0,3A2.1,2.1,0,0,1,790.15,64.27Z"/><path class="cls-9" d="M824,45.79a1.49,1.49,0,1,1,2.11,2.1,1.49,1.49,0,0,1-2.11-2.1Z"/><path class="cls-9" d="M756.06,8.16a1.49,1.49,0,1,1,0,2.1A1.5,1.5,0,0,1,756.06,8.16Z"/><circle class="cls-8" cx="820.39" cy="66.86" r="1.09"/><path class="cls-9" d="M828.37,87.49a1.09,1.09,0,1,1,0,1.54A1.08,1.08,0,0,1,828.37,87.49Z"/><path class="cls-9" d="M786.44,59.54a1.09,1.09,0,0,1,1.55,0,1.08,1.08,0,0,1,0,1.54,1.09,1.09,0,1,1-1.55-1.54Z"/><path class="cls-9" d="M723,99.69a1.09,1.09,0,0,1,1.55,0,1.08,1.08,0,0,1,0,1.54A1.09,1.09,0,1,1,723,99.69Z"/><circle class="cls-8" cx="803.13" cy="17.3" r="0.7"/><circle class="cls-8" cx="827.33" cy="50.09" r="0.7"/><circle class="cls-8" cx="792.27" cy="59.18" r="0.7"/><path class="cls-9" d="M870.05,43.38a.69.69,0,0,1,1,0,.7.7,0,0,1-1,1A.69.69,0,0,1,870.05,43.38Z"/><circle class="cls-8" cx="838.48" cy="37.95" r="0.7"/><path class="cls-9" d="M828.64,34.07a.71.71,0,1,1,0,1A.72.72,0,0,1,828.64,34.07Z"/><path class="cls-9" d="M766.21,44.43a.7.7,0,1,1,1,1,.72.72,0,0,1-1,0A.71.71,0,0,1,766.21,44.43Z"/><path class="cls-9" d="M818.88,40.15a.37.37,0,0,1,.5,0,.35.35,0,0,1-.5.5A.37.37,0,0,1,818.88,40.15Z"/><path class="cls-9" d="M763.49,51.53a.36.36,0,0,1,.49,0,.35.35,0,0,1,0,.5.34.34,0,0,1-.49,0A.35.35,0,0,1,763.49,51.53Z"/><path class="cls-9" d="M773.11,45.11a.35.35,0,1,1,0,.49A.34.34,0,0,1,773.11,45.11Z"/><path class="cls-9" d="M846.27,74.54a.35.35,0,0,1,.5,0,.36.36,0,0,1,0,.49.35.35,0,0,1-.5,0A.34.34,0,0,1,846.27,74.54Z"/><path class="cls-9" d="M846.62,99.16a.35.35,0,0,1,.5,0,.35.35,0,0,1-.5.5A.35.35,0,0,1,846.62,99.16Z"/><path class="cls-9" d="M630.06,67.62a.35.35,0,0,1,.5,0,.34.34,0,0,1,0,.49.35.35,0,0,1-.5,0A.36.36,0,0,1,630.06,67.62Z"/><path class="cls-9" d="M833.24,99.51a.35.35,0,0,1,.5,0,.35.35,0,0,1-.5.5A.35.35,0,0,1,833.24,99.51Z"/><path class="cls-9" d="M832.89,94.89a.35.35,0,0,1,.5.5.35.35,0,0,1-.5-.5Z"/><path class="cls-9" d="M789.28,63.1a.35.35,0,0,1,.5,0,.34.34,0,0,1,0,.49.35.35,0,0,1-.5,0A.34.34,0,0,1,789.28,63.1Z"/><path class="cls-9" d="M826.65,39.83a.35.35,0,0,1,.5.5.35.35,0,0,1-.5-.5Z"/><path class="cls-9" d="M787,57.88a.35.35,0,1,1,0,.49A.34.34,0,0,1,787,57.88Z"/><path class="cls-9" d="M816.73,46a.71.71,0,0,1,1,0,.7.7,0,0,1-1,1A.71.71,0,0,1,816.73,46Z"/><path class="cls-9" d="M773.91,57.28a.71.71,0,0,1,1,0,.7.7,0,1,1-1,1A.71.71,0,0,1,773.91,57.28Z"/><circle class="cls-8" cx="783.71" cy="58.48" r="0.7"/><path class="cls-9" d="M623.15-.21a.71.71,0,0,1,1,0,.69.69,0,0,1,0,1,.69.69,0,0,1-1,0A.71.71,0,0,1,623.15-.21Z"/><circle class="cls-8" cx="839.5" cy="69.75" r="0.7"/><path class="cls-9" d="M809.18,94.3a.69.69,0,0,1,1,0,.7.7,0,0,1-1,1A.69.69,0,0,1,809.18,94.3Z"/><path class="cls-9" d="M672.05,59.62a1.49,1.49,0,1,1,2.11,2.1,1.49,1.49,0,0,1-2.11-2.1Z"/><path class="cls-9" d="M674.06,14.26a1.49,1.49,0,1,1,0,2.11A1.5,1.5,0,0,1,674.06,14.26Z"/><path class="cls-9" d="M667.65,79.91a1.09,1.09,0,1,1,0,1.54A1.08,1.08,0,0,1,667.65,79.91Z"/><path class="cls-9" d="M674.87,63.42a.7.7,0,0,1,1,1,.7.7,0,0,1-1-1Z"/><circle class="cls-8" cx="686.51" cy="51.78" r="0.7"/><circle class="cls-8" cx="699.52" cy="9.96" r="0.7"/><circle class="cls-8" cx="677.17" cy="48.4" r="0.7"/><path class="cls-9" d="M666.91,54a.35.35,0,0,1,.5.5.35.35,0,0,1-.5-.5Z"/><path class="cls-9" d="M653.49,82.85a.35.35,0,0,1,.5,0,.36.36,0,0,1,0,.49.35.35,0,0,1-.5,0A.34.34,0,0,1,653.49,82.85Z"/><path class="cls-9" d="M694.3,88.36a.36.36,0,0,1,.49,0,.35.35,0,0,1,0,.5.34.34,0,0,1-.49,0A.35.35,0,0,1,694.3,88.36Z"/><path class="cls-9" d="M674.68,53.66a.35.35,0,0,1,.5,0,.34.34,0,0,1,0,.49.35.35,0,0,1-.5,0A.36.36,0,0,1,674.68,53.66Z"/><circle class="cls-8" cx="665.25" cy="60.31" r="0.7"/><path class="cls-9" d="M616.88,59.38a.71.71,0,0,1,1,0,.72.72,0,0,1,0,1,.7.7,0,0,1-1-1Z"/><circle class="cls-8" cx="687.53" cy="83.58" r="0.7"/><circle class="cls-8" cx="822.54" cy="99.76" r="0.7"/><path class="cls-9" d="M831.94,130.92a.71.71,0,0,1,1,0,.7.7,0,0,1-1,1A.71.71,0,0,1,831.94,130.92Z"/><circle class="cls-8" cx="794.48" cy="77.43" r="0.7"/></g><path class="cls-11" d="M847.52,13.94a.6.6,0,0,1-1.2,0,.6.6,0,0,1,1.2,0Z"/><path class="cls-11" d="M38.37,43a.6.6,0,1,1-1.2,0,.6.6,0,0,1,1.2,0Z"/><path class="cls-12" d="M.76,18.53a.59.59,0,0,1-.6.59.58.58,0,0,1-.59-.59.59.59,0,0,1,.59-.6A.6.6,0,0,1,.76,18.53Z"/><path class="cls-13" d="M17.45,19a.6.6,0,0,1-1.2,0,.6.6,0,0,1,1.2,0Z"/><path class="cls-13" d="M9.89,17.93a.6.6,0,1,1-.6-.6A.6.6,0,0,1,9.89,17.93Z"/><path class="cls-12" d="M360.4,24.49a.6.6,0,0,1-1.2,0,.6.6,0,0,1,1.2,0Z"/><path class="cls-12" d="M881.43,3.72a.6.6,0,0,1-.6.6.6.6,0,0,1,0-1.2A.6.6,0,0,1,881.43,3.72Z"/><path class="cls-12" d="M294.2,20.71a.6.6,0,0,1-1.2,0,.6.6,0,0,1,1.2,0Z"/><path class="cls-14" d="M342.12,3.12a.6.6,0,0,1-.6.6.6.6,0,0,1,0-1.2A.6.6,0,0,1,342.12,3.12Z"/><path class="cls-14" d="M835-.13a.6.6,0,0,1-.6.6.6.6,0,0,1-.6-.6.6.6,0,0,1,.6-.6A.6.6,0,0,1,835-.13Z"/><path class="cls-14" d="M30.7,26.88a.6.6,0,0,1-.6.6.6.6,0,0,1,0-1.2A.6.6,0,0,1,30.7,26.88Z"/><path class="cls-12" d="M122.8,16.68a.6.6,0,0,1-.6.6.6.6,0,0,1,0-1.2A.6.6,0,0,1,122.8,16.68Z"/><circle class="cls-15" cx="59.76" cy="14.2" r="0.6"/><path class="cls-16" d="M-3.9,161.93S261.09,185,260,190s-34.82,4-34.82,6,42.21-1,43.27,3,107.63,8,107.63,8L508,198l439-47-3.17,92L305.66,256.18-8,251Z"/><ellipse class="cls-17" cx="673.61" cy="55.43" rx="35.86" ry="35.56" transform="translate(353.67 650.81) rotate(-66.45)"/><ellipse class="cls-18" cx="383.32" cy="131.13" rx="94.35" ry="95.16" transform="translate(-6.91 22.26) rotate(-3.3)"/><ellipse class="cls-19" cx="379.83" cy="133.37" rx="80.49" ry="81.18" transform="translate(-7.03 22.04) rotate(-3.29)"/><ellipse class="cls-20" cx="479.91" cy="49.19" rx="51.06" ry="50.19"/><ellipse class="cls-21" cx="343.29" cy="52" rx="25.43" ry="25"/><ellipse class="cls-22" cx="74.93" cy="147.68" rx="81.07" ry="79.69"/><ellipse class="cls-23" cx="81.43" cy="150.77" rx="77.57" ry="76.25"/><ellipse class="cls-24" cx="117.43" cy="157.77" rx="77.57" ry="76.25"/><ellipse class="cls-25" cx="96.43" cy="156.72" rx="21.57" ry="21.2"/><ellipse class="cls-26" cx="83.93" cy="214.73" rx="20.07" ry="19.73"/></g></g></g></svg>