<svg xmlns="http://www.w3.org/2000/svg" xmlns:xlink="http://www.w3.org/1999/xlink" viewBox="0 0 891 438"><defs><style>.cls-1{fill:none;}.cls-2{isolation:isolate;}.cls-3{clip-path:url(#clip-path);}.cls-4{fill:url(#_ÂÁ_Ï_ÌÌ_È_ËÂÌÚ_812);}.cls-5,.cls-6{fill:#bb5ba4;}.cls-5,.cls-6,.cls-8{mix-blend-mode:multiply;}.cls-6{opacity:0.46;}.cls-7{mix-blend-mode:color-dodge;opacity:0.48;fill:url(#_ÂÁ_Ï_ÌÌ_È_ËÂÌÚ_218);}.cls-8{fill:#893178;opacity:0.66;}.cls-9{fill:url(#_ÂÁ_Ï_ÌÌ_È_ËÂÌÚ_812-2);}.cls-10{fill:url(#_ÂÁ_Ï_ÌÌ_È_ËÂÌÚ_812-3);}</style><clipPath id="clip-path"><rect class="cls-1" width="891" height="438"/></clipPath><linearGradient id="_ÂÁ_Ï_ÌÌ_È_ËÂÌÚ_812" x1="449.86" y1="365.6" x2="446.79" y2="452.41" gradientUnits="userSpaceOnUse"><stop offset="0" stop-color="#cc6d85"/><stop offset="1" stop-color="#94009c"/></linearGradient><linearGradient id="_ÂÁ_Ï_ÌÌ_È_ËÂÌÚ_218" x1="786.47" y1="385.71" x2="810.38" y2="398.91" gradientUnits="userSpaceOnUse"><stop offset="0" stop-color="#e6941f"/><stop offset="0.12" stop-color="#bd7a1a"/><stop offset="0.29" stop-color="#845512"/><stop offset="0.46" stop-color="#55370b"/><stop offset="0.62" stop-color="#301f06"/><stop offset="0.77" stop-color="#160e03"/><stop offset="0.9" stop-color="#060401"/><stop offset="1"/></linearGradient><linearGradient id="_ÂÁ_Ï_ÌÌ_È_ËÂÌÚ_812-2" x1="823.45" y1="376.66" x2="872.45" y2="393.35" xlink:href="#_ÂÁ_Ï_ÌÌ_È_ËÂÌÚ_812"/><linearGradient id="_ÂÁ_Ï_ÌÌ_È_ËÂÌÚ_812-3" x1="822.66" y1="376.84" x2="832.3" y2="354.95" xlink:href="#_ÂÁ_Ï_ÌÌ_È_ËÂÌÚ_812"/></defs><g class="cls-2"><g id="_ÎÓÈ_1" data-name="—ÎÓÈ_1"><g class="cls-3"><path class="cls-4" d="M914.32,499.61s-244.12-.5-481.81-1.38c-35.71-.13-71.28-.27-105.85-.42C143,497-12.59,496-12.59,494.86c0-2.46-6.44-56.43-8.21-71.26-.29-2.38-.45-3.74-.45-3.74l126.69,2.85,39-8.55L266.56,404l8.4-.7h0l97.9-8.14h23.82l33.57-6.64,24.91,2.85,71.47,4.74,25.4,1.26,103.45-3.16,65.05-2.71,71.39-3,11.91-18,104-5.7Z"/><path class="cls-5" d="M914.32,499.61s-244.12-.5-481.81-1.38L359,498l-6.26,0-9.27,0-5.15,0-11.68-.05C143,497-12.59,496-12.59,494.86c0-2.46-6.44-56.43-8.21-71.26-.29-2.38-.45-3.74-.45-3.74L106,426l38.42-11.84L266.56,404l8.4-.7h0L375,400l24-4,32-5,25,1,70,7,29,2,100.52-6.78L723,396l76,1,.73-4L831,397l24.22,1.33,16.53.53-12.92-4.52L856,397H845l1.1-7.12L835,386l-5.72-7.35L826,393l2-16-24.13-6.51,104-5.7Z"/><path class="cls-6" d="M270,413.74,307,417l60,18-8-18,42-8s35.43-12.09,37.71-12.55S645,425,645,425l7-4-48-14,125,25,10-7-44-9-3-7-22-4,50-2,226,36,1,58-814,3L-13.33,487.39,3.86,426.11,68,430s59-1,65,0,55,8,55,8Z"/><polygon class="cls-7" points="748.84 390.33 794 390 804 370 792 389 748.84 390.33"/><polygon class="cls-8" points="908 369 907 373 869.38 374.81 864 375 855 374 844 376 829.36 378.8 828 384 829 379 828 377 854.89 373.21 908 369"/><path class="cls-9" d="M864,375h-9c-1,0-5,2-5,2l-14,2-5.49,1.43L826,393l2-9,1.36-5.2L844,376l11-2Z"/><polygon class="cls-10" points="803.87 370.49 827.72 376.92 845.26 374.57 828 375 803.87 370.49"/></g></g></g></svg>