<svg xmlns="http://www.w3.org/2000/svg" xmlns:xlink="http://www.w3.org/1999/xlink" viewBox="0 0 891 438"><defs><style>.cls-1{fill:none;}.cls-2{isolation:isolate;}.cls-3{clip-path:url(#clip-path);}.cls-4{fill:#994c9f;opacity:0.14;}.cls-13,.cls-21,.cls-23,.cls-24,.cls-30,.cls-31,.cls-32,.cls-33,.cls-34,.cls-35,.cls-37,.cls-38,.cls-39,.cls-4,.cls-40,.cls-49,.cls-55,.cls-57,.cls-6{mix-blend-mode:multiply;}.cls-5{fill:url(#_ÂÁ_Ï_ÌÌ_È_ËÂÌÚ_9);}.cls-40,.cls-6{fill:#bb5ba4;}.cls-6{opacity:0.16;}.cls-10,.cls-7{opacity:0.79;}.cls-7{fill:url(#_ÂÁ_Ï_ÌÌ_È_ËÂÌÚ_248);}.cls-60,.cls-8,.cls-9{mix-blend-mode:color-dodge;}.cls-8,.cls-9{opacity:0.55;}.cls-8{fill:url(#_ÂÁ_Ï_ÌÌ_È_ËÂÌÚ_2);}.cls-9{fill:#eaa9dc;}.cls-10{fill:url(#_ÂÁ_Ï_ÌÌ_È_ËÂÌÚ_248-2);}.cls-11{fill:url(#linear-gradient);}.cls-12{opacity:0.6;}.cls-13{fill:#b9b2d6;}.cls-13,.cls-55{opacity:0.86;}.cls-14{fill:url(#_ÂÁ_Ï_ÌÌ_È_ËÂÌÚ_25);}.cls-15{fill:url(#_ÂÁ_Ï_ÌÌ_È_ËÂÌÚ_25-2);}.cls-16{fill:url(#_ÂÁ_Ï_ÌÌ_È_ËÂÌÚ_25-3);}.cls-17{fill:url(#_ÂÁ_Ï_ÌÌ_È_ËÂÌÚ_25-4);}.cls-18{fill:url(#_ÂÁ_Ï_ÌÌ_È_ËÂÌÚ_25-5);}.cls-19{fill:url(#_ÂÁ_Ï_ÌÌ_È_ËÂÌÚ_25-6);}.cls-20{fill:url(#_ÂÁ_Ï_ÌÌ_È_ËÂÌÚ_25-7);}.cls-21{fill:#9e6fa1;opacity:0.3;}.cls-22{fill:url(#linear-gradient-2);}.cls-23{fill:#6fce55;}.cls-23,.cls-40{opacity:0.2;}.cls-24{fill:#425ba4;opacity:0.18;}.cls-25{fill:url(#_ÂÁ_Ï_ÌÌ_È_ËÂÌÚ_4);}.cls-26{fill:url(#_ÂÁ_Ï_ÌÌ_È_ËÂÌÚ_4-2);}.cls-27{fill:url(#_ÂÁ_Ï_ÌÌ_È_ËÂÌÚ_4-3);}.cls-28{fill:url(#_ÂÁ_Ï_ÌÌ_È_ËÂÌÚ_4-4);}.cls-29{fill:url(#_ÂÁ_Ï_ÌÌ_È_ËÂÌÚ_4-5);}.cls-30,.cls-31,.cls-32,.cls-33,.cls-34,.cls-35,.cls-37,.cls-49{opacity:0.09;}.cls-30{fill:url(#_ÂÁ_Ï_ÌÌ_È_ËÂÌÚ_6);}.cls-31{fill:url(#_ÂÁ_Ï_ÌÌ_È_ËÂÌÚ_6-2);}.cls-32{fill:url(#_ÂÁ_Ï_ÌÌ_È_ËÂÌÚ_6-3);}.cls-33{fill:url(#_ÂÁ_Ï_ÌÌ_È_ËÂÌÚ_6-4);}.cls-34{fill:url(#_ÂÁ_Ï_ÌÌ_È_ËÂÌÚ_6-5);}.cls-35{fill:url(#_ÂÁ_Ï_ÌÌ_È_ËÂÌÚ_6-6);}.cls-36{fill:url(#linear-gradient-3);}.cls-37{fill:url(#linear-gradient-4);}.cls-38{fill:#925da8;}.cls-38,.cls-39{opacity:0.54;}.cls-39,.cls-55{fill:#9283d4;}.cls-41{fill:url(#linear-gradient-5);}.cls-42{fill:url(#_ÂÁ_Ï_ÌÌ_È_ËÂÌÚ_25-8);}.cls-43{fill:url(#_ÂÁ_Ï_ÌÌ_È_ËÂÌÚ_25-9);}.cls-44{fill:url(#_ÂÁ_Ï_ÌÌ_È_ËÂÌÚ_25-10);}.cls-45{fill:url(#_ÂÁ_Ï_ÌÌ_È_ËÂÌÚ_25-11);}.cls-46{fill:url(#_ÂÁ_Ï_ÌÌ_È_ËÂÌÚ_25-12);}.cls-47{fill:url(#_ÂÁ_Ï_ÌÌ_È_ËÂÌÚ_25-13);}.cls-48{fill:url(#_ÂÁ_Ï_ÌÌ_È_ËÂÌÚ_25-14);}.cls-50{fill:url(#_ÂÁ_Ï_ÌÌ_È_ËÂÌÚ_6-7);}.cls-51{fill:url(#_ÂÁ_Ï_ÌÌ_È_ËÂÌÚ_6-8);}.cls-52{fill:url(#_ÂÁ_Ï_ÌÌ_È_ËÂÌÚ_6-9);}.cls-53{fill:url(#_ÂÁ_Ï_ÌÌ_È_ËÂÌÚ_6-10);}.cls-54{opacity:0.7;}.cls-56{fill:url(#_ÂÁ_Ï_ÌÌ_È_ËÂÌÚ_3);}.cls-57{fill:#c36ca3;opacity:0.81;}.cls-58{fill:url(#_ÂÁ_Ï_ÌÌ_È_ËÂÌÚ_3-2);}.cls-59{fill:url(#_ÂÁ_Ï_ÌÌ_È_ËÂÌÚ_3-3);}.cls-60{opacity:0.48;fill:url(#_ÂÁ_Ï_ÌÌ_È_ËÂÌÚ_218);}</style><clipPath id="clip-path"><rect class="cls-1" width="891" height="438"/></clipPath><linearGradient id="_ÂÁ_Ï_ÌÌ_È_ËÂÌÚ_9" x1="456.13" y1="170.35" x2="482.17" y2="371.03" gradientUnits="userSpaceOnUse"><stop offset="0" stop-color="#de9c9b"/><stop offset="1" stop-color="#4c3aa3"/></linearGradient><linearGradient id="_ÂÁ_Ï_ÌÌ_È_ËÂÌÚ_248" x1="178.08" y1="246.28" x2="207.69" y2="304.49" gradientUnits="userSpaceOnUse"><stop offset="0" stop-color="#ffd1b8"/><stop offset="0.13" stop-color="#f3aeac"/><stop offset="0.28" stop-color="#e88da0"/><stop offset="0.36" stop-color="#e4809b"/><stop offset="0.47" stop-color="#d87ea0"/><stop offset="0.66" stop-color="#b778af"/><stop offset="0.92" stop-color="#836ec6"/><stop offset="1" stop-color="#706bce"/></linearGradient><linearGradient id="_ÂÁ_Ï_ÌÌ_È_ËÂÌÚ_2" x1="391.18" y1="260.51" x2="391.4" y2="260.69" gradientUnits="userSpaceOnUse"><stop offset="0" stop-color="#73ffc5"/><stop offset="1"/></linearGradient><linearGradient id="_ÂÁ_Ï_ÌÌ_È_ËÂÌÚ_248-2" x1="753.47" y1="230.74" x2="822.4" y2="398.48" xlink:href="#_ÂÁ_Ï_ÌÌ_È_ËÂÌÚ_248"/><linearGradient id="linear-gradient" x1="433.63" y1="252.77" x2="435.93" y2="429.71" gradientUnits="userSpaceOnUse"><stop offset="0" stop-color="#ed7b7b"/><stop offset="0.36" stop-color="#d5825d"/><stop offset="0.76" stop-color="#be8841"/><stop offset="1" stop-color="#b68a37"/></linearGradient><linearGradient id="_ÂÁ_Ï_ÌÌ_È_ËÂÌÚ_25" x1="656.1" y1="313.55" x2="625.28" y2="396.15" gradientUnits="userSpaceOnUse"><stop offset="0" stop-color="#9b6170"/><stop offset="1" stop-color="#948198"/></linearGradient><linearGradient id="_ÂÁ_Ï_ÌÌ_È_ËÂÌÚ_25-2" x1="617.6" y1="298.22" x2="586.76" y2="380.9" xlink:href="#_ÂÁ_Ï_ÌÌ_È_ËÂÌÚ_25"/><linearGradient id="_ÂÁ_Ï_ÌÌ_È_ËÂÌÚ_25-3" x1="629.32" y1="302.51" x2="598.5" y2="385.11" xlink:href="#_ÂÁ_Ï_ÌÌ_È_ËÂÌÚ_25"/><linearGradient id="_ÂÁ_Ï_ÌÌ_È_ËÂÌÚ_25-4" x1="700.44" y1="329.09" x2="670.62" y2="409.03" xlink:href="#_ÂÁ_Ï_ÌÌ_È_ËÂÌÚ_25"/><linearGradient id="_ÂÁ_Ï_ÌÌ_È_ËÂÌÚ_25-5" x1="600.42" y1="292.19" x2="568.96" y2="376.52" xlink:href="#_ÂÁ_Ï_ÌÌ_È_ËÂÌÚ_25"/><linearGradient id="_ÂÁ_Ï_ÌÌ_È_ËÂÌÚ_25-6" x1="574.97" y1="283.72" x2="544.93" y2="364.25" xlink:href="#_ÂÁ_Ï_ÌÌ_È_ËÂÌÚ_25"/><linearGradient id="_ÂÁ_Ï_ÌÌ_È_ËÂÌÚ_25-7" x1="579.79" y1="285.58" x2="549.91" y2="365.69" xlink:href="#_ÂÁ_Ï_ÌÌ_È_ËÂÌÚ_25"/><linearGradient id="linear-gradient-2" x1="251.98" y1="273.18" x2="725.34" y2="368.16" gradientUnits="userSpaceOnUse"><stop offset="0" stop-color="#d2c9cc"/><stop offset="0.2" stop-color="#d6c0e4"/><stop offset="0.46" stop-color="#dbb5ff"/><stop offset="1" stop-color="#9772d1"/></linearGradient><linearGradient id="_ÂÁ_Ï_ÌÌ_È_ËÂÌÚ_4" x1="255.15" y1="345.47" x2="258.54" y2="351.49" gradientUnits="userSpaceOnUse"><stop offset="0" stop-color="#cfbf38"/><stop offset="0.61" stop-color="#b6b644"/><stop offset="1" stop-color="#acb249"/></linearGradient><linearGradient id="_ÂÁ_Ï_ÌÌ_È_ËÂÌÚ_4-2" x1="257.89" y1="344.4" x2="258.63" y2="345.71" xlink:href="#_ÂÁ_Ï_ÌÌ_È_ËÂÌÚ_4"/><linearGradient id="_ÂÁ_Ï_ÌÌ_È_ËÂÌÚ_4-3" x1="258.69" y1="344.08" x2="260.84" y2="347.9" xlink:href="#_ÂÁ_Ï_ÌÌ_È_ËÂÌÚ_4"/><linearGradient id="_ÂÁ_Ï_ÌÌ_È_ËÂÌÚ_4-4" x1="259.08" y1="343.54" x2="259.32" y2="343.97" xlink:href="#_ÂÁ_Ï_ÌÌ_È_ËÂÌÚ_4"/><linearGradient id="_ÂÁ_Ï_ÌÌ_È_ËÂÌÚ_4-5" x1="270.92" y1="349.4" x2="278.93" y2="363.63" xlink:href="#_ÂÁ_Ï_ÌÌ_È_ËÂÌÚ_4"/><linearGradient id="_ÂÁ_Ï_ÌÌ_È_ËÂÌÚ_6" x1="255.15" y1="345.47" x2="258.54" y2="351.49" gradientUnits="userSpaceOnUse"><stop offset="0" stop-color="#14a899"/><stop offset="0.32" stop-color="#1a8f93"/><stop offset="0.75" stop-color="#21738d"/><stop offset="1" stop-color="#24698b"/></linearGradient><linearGradient id="_ÂÁ_Ï_ÌÌ_È_ËÂÌÚ_6-2" x1="257.89" y1="344.4" x2="258.63" y2="345.71" xlink:href="#_ÂÁ_Ï_ÌÌ_È_ËÂÌÚ_6"/><linearGradient id="_ÂÁ_Ï_ÌÌ_È_ËÂÌÚ_6-3" x1="258.69" y1="344.08" x2="260.84" y2="347.9" xlink:href="#_ÂÁ_Ï_ÌÌ_È_ËÂÌÚ_6"/><linearGradient id="_ÂÁ_Ï_ÌÌ_È_ËÂÌÚ_6-4" x1="259.08" y1="343.54" x2="259.32" y2="343.97" xlink:href="#_ÂÁ_Ï_ÌÌ_È_ËÂÌÚ_6"/><linearGradient id="_ÂÁ_Ï_ÌÌ_È_ËÂÌÚ_6-5" x1="263.67" y1="345.01" x2="268.55" y2="353.68" xlink:href="#_ÂÁ_Ï_ÌÌ_È_ËÂÌÚ_6"/><linearGradient id="_ÂÁ_Ï_ÌÌ_È_ËÂÌÚ_6-6" x1="273.32" y1="344.79" x2="277.24" y2="351.76" xlink:href="#_ÂÁ_Ï_ÌÌ_È_ËÂÌÚ_6"/><linearGradient id="linear-gradient-3" x1="324.65" y1="322.88" x2="336.44" y2="407.14" gradientUnits="userSpaceOnUse"><stop offset="0" stop-color="#ffab4a"/><stop offset="0.15" stop-color="#f7a248"/><stop offset="0.69" stop-color="#df8642"/><stop offset="1" stop-color="#d67c40"/></linearGradient><linearGradient id="linear-gradient-4" x1="325.17" y1="326.63" x2="336.52" y2="407.71" gradientUnits="userSpaceOnUse"><stop offset="0" stop-color="#1914a8"/><stop offset="0.02" stop-color="#1916a7"/><stop offset="0.46" stop-color="#1f4398"/><stop offset="0.8" stop-color="#235f8f"/><stop offset="1" stop-color="#24698b"/></linearGradient><linearGradient id="linear-gradient-5" x1="211.98" y1="353.64" x2="213.75" y2="386.28" xlink:href="#linear-gradient-3"/><linearGradient id="_ÂÁ_Ï_ÌÌ_È_ËÂÌÚ_25-8" x1="178.05" y1="339.87" x2="146.9" y2="423.36" xlink:href="#_ÂÁ_Ï_ÌÌ_È_ËÂÌÚ_25"/><linearGradient id="_ÂÁ_Ï_ÌÌ_È_ËÂÌÚ_25-9" x1="114.64" y1="316.21" x2="83.46" y2="399.78" xlink:href="#_ÂÁ_Ï_ÌÌ_È_ËÂÌÚ_25"/><linearGradient id="_ÂÁ_Ï_ÌÌ_È_ËÂÌÚ_25-10" x1="126.32" y1="320.57" x2="95.17" y2="404.06" xlink:href="#_ÂÁ_Ï_ÌÌ_È_ËÂÌÚ_25"/><linearGradient id="_ÂÁ_Ï_ÌÌ_È_ËÂÌÚ_25-11" x1="222.14" y1="356.32" x2="190.99" y2="439.81" xlink:href="#_ÂÁ_Ï_ÌÌ_È_ËÂÌÚ_25"/><linearGradient id="_ÂÁ_Ï_ÌÌ_È_ËÂÌÚ_25-12" x1="122.4" y1="319.1" x2="91.23" y2="402.65" xlink:href="#_ÂÁ_Ï_ÌÌ_È_ËÂÌÚ_25"/><linearGradient id="_ÂÁ_Ï_ÌÌ_È_ËÂÌÚ_25-13" x1="97.28" y1="309.74" x2="66.14" y2="393.21" xlink:href="#_ÂÁ_Ï_ÌÌ_È_ËÂÌÚ_25"/><linearGradient id="_ÂÁ_Ï_ÌÌ_È_ËÂÌÚ_25-14" x1="102.06" y1="311.52" x2="70.91" y2="395.01" xlink:href="#_ÂÁ_Ï_ÌÌ_È_ËÂÌÚ_25"/><linearGradient id="_ÂÁ_Ï_ÌÌ_È_ËÂÌÚ_6-7" x1="577.5" y1="286.52" x2="705.41" y2="546.95" xlink:href="#_ÂÁ_Ï_ÌÌ_È_ËÂÌÚ_6"/><linearGradient id="_ÂÁ_Ï_ÌÌ_È_ËÂÌÚ_6-8" x1="545.13" y1="302.42" x2="673.04" y2="562.85" xlink:href="#_ÂÁ_Ï_ÌÌ_È_ËÂÌÚ_6"/><linearGradient id="_ÂÁ_Ï_ÌÌ_È_ËÂÌÚ_6-9" x1="624.6" y1="263.39" x2="752.51" y2="523.81" xlink:href="#_ÂÁ_Ï_ÌÌ_È_ËÂÌÚ_6"/><linearGradient id="_ÂÁ_Ï_ÌÌ_È_ËÂÌÚ_6-10" x1="665.14" y1="243.47" x2="793.06" y2="503.9" xlink:href="#_ÂÁ_Ï_ÌÌ_È_ËÂÌÚ_6"/><linearGradient id="_ÂÁ_Ï_ÌÌ_È_ËÂÌÚ_3" x1="125.56" y1="320.34" x2="89.13" y2="379.57" gradientTransform="matrix(-1, 0, 0, 1, 631.85, 0)" gradientUnits="userSpaceOnUse"><stop offset="0" stop-color="#99475c"/><stop offset="1" stop-color="#8d6696"/></linearGradient><linearGradient id="_ÂÁ_Ï_ÌÌ_È_ËÂÌÚ_3-2" x1="152.24" y1="330.32" x2="136.05" y2="356.65" xlink:href="#_ÂÁ_Ï_ÌÌ_È_ËÂÌÚ_3"/><linearGradient id="_ÂÁ_Ï_ÌÌ_È_ËÂÌÚ_3-3" x1="144.18" y1="324.95" x2="123.36" y2="358.81" xlink:href="#_ÂÁ_Ï_ÌÌ_È_ËÂÌÚ_3"/><linearGradient id="_ÂÁ_Ï_ÌÌ_È_ËÂÌÚ_218" x1="590.45" y1="317.54" x2="582.03" y2="424" gradientUnits="userSpaceOnUse"><stop offset="0" stop-color="#e6941f"/><stop offset="0.12" stop-color="#bd7a1a"/><stop offset="0.29" stop-color="#845512"/><stop offset="0.46" stop-color="#55370b"/><stop offset="0.62" stop-color="#301f06"/><stop offset="0.77" stop-color="#160e03"/><stop offset="0.9" stop-color="#060401"/><stop offset="1"/></linearGradient></defs><g class="cls-2"><g id="_ÎÓÈ_1" data-name="—ÎÓÈ_1"><g class="cls-3"><path class="cls-4" d="M339,262l11-16,4-7s25,12,28,13,17-2,17-2l30-2-20,18Z"/><path class="cls-5" d="M981.78,279.74l-121.9,5.14-72.3-5.48-136.14,1.27L487.55,282.2-40,288.47v-13L102.51,270l1.29-1.12,5.53-4.77,31.14-5.89L156,247.6l61.31-9.43,5.84-3.54,8.76-10.6,14.86-11.24.7-.54,40.87,17.68L301,232.28l29.2,21.21,26,3,35,4,.11,0h.1l1-.49,22.39-11.3v-3.53l11-1.67,4.57-.69,5.84-4.71,13.89-5.61.7-.28,16.54,13h0v5.89l19.46,7.07,42.82,2.36,8.14-.87,14.24-1.49s.42-.35,1.08-.86c1.73-1.36,5-3.85,5.72-3.85a47.73,47.73,0,0,1,5.85,1.81c2.51.87,4.86,1.72,4.86,1.72l13.62,1.18,48.21-1.6,22.83-.76,5.22-2.19,20.08-8.41,28.22-51.84,4.86-10.61,37-7.06,32.11-15.32,6.82-11.78,22.13-30.29.25-.34,12.65,9.42,15.57,18.86h10.7l7.79,7.07,17.51,9.42,11.68,16.49Z"/><polygon class="cls-6" points="978.14 274.29 858.07 282.67 845.96 208.72 823.58 195.76 820.66 198.11 816.77 192.22 823.58 173.37 821.63 148.63 816.77 128.6 810.93 118 823.58 127.42 839.15 146.28 849.85 146.28 857.64 153.34 875.15 162.77 886.83 179.26 978.14 274.29"/><path class="cls-6" d="M655,275l-92.52,34.27L403,276l-8-12,17-8,2.88-.16L429,247l7.29,5.31L451.86,250l-1-1.18h5.84v-2.35l-6.54-13.86.7-.28,16.54,13v5.89h0l19.46,7.07,51,1.49,15.24-.49s.42-.35,1.08-.86c1.73-1.36,5-3.85,5.72-3.85a13.27,13.27,0,0,1,4.85.81c2.51.87,4.86,1.72,4.86,1.72l13.62,1.18,48.21-1.6L657,260Z"/><polygon class="cls-6" points="232 282 265 267 250.46 253.34 239.55 252.24 255 250.03 255 240.11 264.99 252.24 266.53 254.52 281 243 266.97 225.21 255.29 220.5 247.51 212.25 290 234 301.03 232.28 329 255 355 258 385 261 409 282 232 282"/><path class="cls-6" d="M856,279l-30.14,32.06L815.3,284.4,783.7,286V280.2L771,283.81,635.59,286l38.16-18.75L680,262l5-11,1.11-4.27,1.82,3.3-1.46,11.72h30.9l10.9-15.44.91-24.26L740,208l-8,16-.1,13.49,3.64,7.72-6.36,21,8.18,5.51,9.08-21,6.36-13.24V222.05l4.55,14.34-1.82,8.82,11.55,9.3-3.56-19,2.73-15.44L780,202l-3,11,2,7,9.24,9.77,4.54,8.82,10,7.72s4.87,7.93,9.84,16.69l8.08-24.64,1.26-5.67-19.22-12.12-7.37-23.16,1.88-4.93L805,164l-1,22,4.94,8.15,2.17,14.13L829,227.92,845,239Z"/><polygon class="cls-6" points="163.19 249.52 202.26 251.73 230.43 261.65 252.24 263.86 230.43 253.93 227.71 244.01 224.07 239.59 214.07 244.01 207.72 244.01 207.72 247.31 204.99 247.31 201.35 246.21 198.63 247.31 192.27 247.31 163.19 249.52"/><path class="cls-6" d="M140.38,258.45l12.73,1.1L184,268.37l18.17,5.52,43.62,3.3-7.27-3.3-7.27-2.21-3.64-4.41-20,3.31L194,268.37s-6.36-4.41-7.26-4.41-10.91-1.1-10.91-1.1l-23.62-5.52Z"/><path class="cls-6" d="M31.37,286.47c.89-.45,41.78-7.07,41.78-7.07l8.17,1.1,20.9,2.21,14.54-4.41-10.9-5.52,21.8,6.62s9.09-1.1,10.91-1.1,20.9,4.41,27.26,5.51,28.86,1.12,28.86,1.12Z"/><polygon class="cls-7" points="246.8 212.79 242.15 217.95 233 224 224.07 236.21 218.62 239.85 156.74 248.84 140.38 258.84 110.4 265.2 103.8 268.86 109.33 264.09 140.47 258.2 156.03 247.6 217.34 238.17 223.18 234.63 231.94 224.03 246.8 212.79"/><polygon class="cls-8" points="391.31 260.53 391.42 260.55 391.17 260.65 391.31 260.53"/><polygon class="cls-9" points="425.88 243.57 415.7 246.12 415.7 249.75 392.48 260.07 414.87 248.77 414.87 245.24 425.88 243.57"/><polygon class="cls-10" points="810.68 118.34 803.69 131.63 792.78 147.08 789.15 153.44 781.88 161.61 757.35 176.15 750.99 177.06 721 183.42 712.82 185.24 682.84 246.12 659.48 253.65 679.56 245.24 707.78 193.4 712.64 182.79 749.62 175.72 781.73 160.41 788.55 148.63 810.68 118.34"/><path class="cls-11" d="M891,277V438l-912,1V278l25.41,0c5,0,10.58-.26,16.82-.08l1.88.06c2.55.63,5.2.22,7.94-.34,4.29-.89,8.82-2.15,13.57-.39a12.66,12.66,0,0,1,1.62.71c8.41-2.27,17.49,2.83,27.17,0,9.69-2.7,20-1.44,30.81,0l34,0,76.18-.09c11.21,0,22.67,4.38,34.31,0,11.65,2.1,23.49,1.61,35.49,0,12,.08,24.16-1,36.44,0l37.14-.05c11.74,0,23.55-1.06,35.39,0,11.85-1.22,23.74-5.31,35.63,0,5.65,2.12,11.3.75,16.94,0,5.65-3.8,11.3,2.83,16.93,0,5.64,6.59,11.28-2.66,16.9,1.69a57.71,57.71,0,0,0,16.84-1.73c11.21-1.41,22.37-1.87,33.44,0,11.08-.93,22.08.4,33,0,5.94,2.82,11.85.5,17.73.75a80.13,80.13,0,0,0,17.51-.79c11.59.59,23-3.66,34.26,0,11.24-2.23,22.27-.28,33.08,0,5.4,2.81,10.74,3.57,16,2.09s10.5-2.64,15.65-2.13c12.58.77,24.77-2.28,36.48,0l1.61.08,1.6,0c2,0,4,0,6-.11,1.39-.06,2.78-.15,4.16-.24l3.43-.22.44,0,1.59-.09a61.37,61.37,0,0,1,14.87.55l15.66,0,14.8,0c11.49,0,22.12,2.22,31.77,0,9.64-1.4,18.31,2,25.89,0,7.57.62,14,1.31,19.33,0,5.28-3,9.35,2.38,12.1,0C889.57,279.07,891,277.39,891,277Z"/><g class="cls-12"><polygon class="cls-13" points="571.9 301.66 575.25 302.84 575.65 301.66 571.9 301.66"/><polygon class="cls-14" points="671.25 293.13 671.25 295.36 661.74 295.36 654.95 294.25 663.1 290.91 663.25 290.95 671.25 293.13"/><polygon class="cls-15" points="624.02 299.71 624.02 301.78 615.21 301.78 608.91 300.75 616.01 297.84 616.47 297.66 624.02 299.71"/><polygon class="cls-16" points="627.04 300.99 629.35 301.37 632.59 301.37 632.59 300.61 629.82 299.85 627.04 300.99"/><polygon class="cls-17" points="745.95 300.92 743.76 300.85 714.71 299.81 705.92 298.85 694.34 297.58 678.03 295.36 688.9 290.91 691.62 287.56 698.4 282 713 289.4 726.92 296.47 734.5 297.6 741.87 298.7 745.95 300.92"/><polygon class="cls-18" points="615.13 306.58 597 306.17 588.45 306.17 586.43 304.51 576.36 302.87 583.91 299.56 593.49 298.73 597.89 299.97 614.13 304.51 615.13 306.58"/><polygon class="cls-19" points="572.84 304.51 564.27 304.51 561.75 304.1 566.79 301.21 568.8 301.21 572.84 304.51"/><polygon class="cls-20" points="574.76 301.66 572.47 301.66 571.32 301.4 573.61 299.56 574.53 299.56 576.36 301.66 574.76 301.66"/><polygon class="cls-21" points="615.13 306.58 597 306.17 589.04 306.17 593.25 299.1 597.89 299.97 614.13 304.51 615.13 306.58"/><polygon class="cls-21" points="624.02 299.71 624.02 301.78 615.54 301.78 616.01 297.84 616.47 297.66 624.02 299.71"/><polygon class="cls-21" points="572.84 304.51 566.79 304.51 567.68 301.21 568.8 301.21 572.84 304.51"/><polygon class="cls-21" points="671.25 293.13 671.25 295.36 663.25 295.36 663.25 290.95 671.25 293.13"/><polygon class="cls-21" points="743.76 300.85 714.71 299.81 705.92 298.85 705.25 294.42 692.25 291.62 698.25 287.88 698.25 282.27 713 289.4 727.25 296.29 734.5 297.6 740.8 298.73 743.76 300.85"/></g><path class="cls-22" d="M896,325.55V365l-190.52-7.08H676.61l-65-6.07-4.33-2-44.63-.35s-56.4-11.79-57.85-11.79c-.75,0-64.54-7.26-126.16-14.29C320.8,316.78,275,316,275,316s-108,1-113.66-15.73C158.7,292.48-72,305-51,282c40,12,227.92-2.78,234.69,15.23C190,314,630.94,312.35,634.75,319.48,639.08,327.58,896,325.55,896,325.55Z"/><path class="cls-23" d="M896,316l-5,48-77.47-2.32-108-4.36H676.61l-28.07-2.85-36.88-3.74-4.33-2.19-44.63-.38s-19-4.32-35.27-7.94c-11.71-2.61-22-4.85-22.58-4.85s-64.54-7.88-126.16-15.51c69.73,4.88,207,13.31,211.32,10,5.33-4.05-40.94-8.1-48.14-8.72,13.36.88,166.56,10.81,167.94,8.72S639,323,639,323l-17-5-299.66-9c123.41,2.44,309.48.66,312.41,6.6C639.08,324.4,896,316,896,316Z"/><path class="cls-24" d="M896,327v38l-82.47-3.32L875,361s-253-9-254-12,187,6,187,2-138-6-139-9,103,1,103-1,53-1,53-4-73.32-7.9-79.66-7.45-43-5.15-43-5.15Z"/><ellipse class="cls-24" cx="607" cy="339" rx="16" ry="1"/><ellipse class="cls-24" cx="634" cy="337.5" rx="6" ry="0.5"/><ellipse class="cls-24" cx="623" cy="341.5" rx="6" ry="0.5"/><ellipse class="cls-24" cx="612" cy="334.5" rx="6" ry="0.5"/><ellipse class="cls-24" cx="624.5" cy="332.5" rx="9.5" ry="0.5"/><ellipse class="cls-24" cx="643.5" cy="336.5" rx="9.5" ry="0.5"/><ellipse class="cls-24" cx="653" cy="342" rx="15" ry="1"/><polygon class="cls-25" points="253 340.29 256.72 343.05 252 342.94 249 339.76 253 340.29"/><polygon class="cls-26" points="256.72 343.05 257.56 343.07 258 344 256.72 343.05"/><polygon class="cls-27" points="256 339.76 258.7 343.1 257.56 343.07 256 339.76"/><polygon class="cls-28" points="258.7 343.1 258.96 343.1 259 343.47 258.7 343.1"/><polygon class="cls-29" points="275 343.47 272.61 343.42 270.92 343.38 262.97 343.19 258.96 343.1 258 335 262.16 335.88 270.19 337.58 270.57 337.66 273 338.18 275 343.47"/><polygon class="cls-30" points="253 340.29 256.72 343.05 252 342.94 249 339.76 253 340.29"/><polygon class="cls-31" points="256.72 343.05 257.56 343.07 258 344 256.72 343.05"/><polygon class="cls-32" points="256 339.76 258.7 343.1 257.56 343.07 256 339.76"/><polygon class="cls-33" points="258.7 343.1 258.96 343.1 259 343.47 258.7 343.1"/><polygon class="cls-34" points="262.97 343.19 258.96 343.1 258 335 262.16 335.88 262.97 343.19"/><polygon class="cls-35" points="272.61 343.42 270.92 343.38 270.19 337.58 270 336.06 270.57 337.66 272.61 343.42"/><path class="cls-36" d="M384.83,382c0,4,58.48,2,59.59,11s-207.45,12-203,3S269,391,269,385s-302-6-302-6l15.13-38.52,2.15-5.46s311.22,6.49,457,12.22c44,1.73,72.95,3.39,73.72,4.78,3.32,6,71.73,6,71.73,9,0,2.82-77.15,2.1-86.29,2,14.25.22,198.65,6.11,196.53,9S384.83,378,384.83,382Z"/><path class="cls-37" d="M384.83,382c0,4,58.48,2,59.59,11s-207.45,12-203,3S269,391,269,385s-302-6-302-6l15.13-38.52C38.35,342.5,256,350.65,256,355c0,5-163,1-162,6s233,10,234,14,25,9,31,8,13-10,19-11,124,3,125,0-51-5-52-6c-.64-.64,28.49-1.29,49.38-3h0c11.56-.95,20.58-2.23,20.58-4,0-5-34-4-35-5s25,0,25-1c0-.71-44.32-4-69.69-5.78,44,1.73,72.95,3.39,73.72,4.78,3.32,6,71.73,6,71.73,9,0,2.82-77.15,2.1-86.29,2,14.25.22,198.65,6.11,196.53,9S384.83,378,384.83,382Z"/><path class="cls-38" d="M661.11,320.77a.4.4,0,0,0,.2-.25C661.53,321.4,661.42,321.43,661.11,320.77Z"/><path class="cls-39" d="M891,277c0,.39-1.43,2.07-4.19,0-2.75,2.4-6.82-3-12.1,0-5.28,1.33-11.76.64-19.33,0-7.58,2-16.25-1.37-25.89,0-9.65,2.25-20.28,0-31.77,0l-14.8,0-15.66,0a61.37,61.37,0,0,0-14.87-.55,3.17,3.17,0,0,1-1.59.09l-.44,0-3.43.22c-1.38.09-2.77.17-4.16.24-2,.09-4,.14-6,.11l-1.6,0-1.61-.08c-11.71-2.24-23.9.81-36.48,0-5.15-.51-10.37.78-15.65,2.13s-10.62.72-16-2.09c-10.81-.25-21.84-2.2-33.08,0-11.23-3.62-22.67.63-34.26,0a80.13,80.13,0,0,1-17.51.79c-5.88-.25-11.79,2.07-17.73-.75-10.89.44-21.89-.89-33,0-11.07-1.84-22.23-1.38-33.44,0a57.71,57.71,0,0,1-16.84,1.73c-5.62-4.35-11.26,4.9-16.9-1.69-5.63,2.85-11.28-3.78-16.93,0-5.64.77-11.29,2.14-16.94,0-11.89-5.27-23.78-1.18-35.63,0-11.84-1-23.65,0-35.39,0l-37.14.05c-12.28-.93-24.44.12-36.44,0-12,1.64-23.84,2.13-35.49,0-11.64,4.42-23.1,0-34.31,0l-76.18.09-34,0c-10.83-1.4-21.12-2.66-30.81,0-9.68,2.86-16-4.17-24.41-1.9-.54-.28-3.46.19-4,0l-17-2H18l-39,5.09-19,.54L-21,282c21.39,2.65,48.47-6.72,87-2,9.63,1.19,108.58,2,111,2,1.6,0,5.73.29,11.45.76,10.55.24,13,1.23,21,1.79,8,.9,5.58,3.45,24.85,2.12,8.3-3.52,16.31,1,23.08,1.72,6.77.3,12.3,2,15.65.61,1.92,0,5.42-.22,10.12-.52,18.8-1.19,25.85-2.83,93.88-.48,58,2,45.58,2.41,53-6,4.8-5.44,156.67,4.26,159,4,6.77-2.07,62.55-4.57,70.92-3.8,7.53.7,15.63,1.46,24.12,2.27s8.38-6.34,17.47-5.46c9.1,3.49,18.41.44,27.76,2.7,9.35,3.25,60.74-1.43,70,3.75,9.25,5.62,18.37,3.24,27.17,2.7,8.8,5.66,63.57,9,71.57,9.84,32,3.22,13.9,5.4,19,6,15.21,1.79,5.41-5.22,21-6.72Z"/><path class="cls-40" d="M234,305,282,306.92C262.26,306.31,245.74,305.68,234,305Z"/><path class="cls-40" d="M283,308l39.09,1C308.14,308.73,295,308.4,283,308Z"/><path class="cls-41" d="M-33.91,296s51.7,4,68.94,4,177,16,177,16-163.18-5-162-2,239,12,239,12,175.14,8,182,11-165.94,0-165.94,0L-50,319Z"/><polygon class="cls-13" points="98.25 329.58 112.25 334.58 146.25 336.58 134.25 331.58 98.25 329.58"/><polygon class="cls-13" points="84.25 330.58 93.25 333.58 96.25 333.58 95.25 331.58 89.12 330.08 84.25 330.58"/><polygon class="cls-13" points="93.9 328.32 97.25 329.58 97.65 328.32 93.9 328.32"/><polygon class="cls-13" points="106.25 318.58 117.25 322.58 124.25 322.58 120.46 317.51 106.25 318.58"/><path class="cls-13" d="M177.73,320c.51.54,11.51,3.54,11.51,3.54h11l-8-4Z"/><polygon class="cls-13" points="201.25 321.58 225.25 327.58 234.25 329.58 282.25 333.58 267.19 327.08 201.25 321.58"/><polygon class="cls-42" points="193.25 319.2 193.25 321.58 183.74 321.58 176.94 320.39 185.09 316.82 185.25 316.86 193.25 319.2"/><polygon class="cls-43" points="121.03 317.68 121.03 319.89 112.2 319.89 105.92 318.79 113.02 315.68 113.47 315.48 121.03 317.68"/><polygon class="cls-44" points="124.05 319.04 126.35 319.45 129.59 319.45 129.59 318.64 126.81 317.83 124.05 319.04"/><polygon class="cls-45" points="267.94 327.53 265.76 327.45 236.71 326.34 227.93 325.31 216.34 323.96 200.03 321.58 210.91 316.82 213.62 313.24 220.41 307.29 235 315.21 248.93 322.77 256.5 323.98 263.87 325.15 267.94 327.53"/><polygon class="cls-46" points="137.13 333.58 119 333.14 110.44 333.14 108.44 331.37 98.36 329.61 105.92 326.07 115.48 325.19 119.89 326.51 136.13 331.37 137.13 333.58"/><polygon class="cls-47" points="94.83 331.37 86.28 331.37 83.75 330.93 88.8 327.84 90.81 327.84 94.83 331.37"/><polygon class="cls-48" points="96.76 328.32 94.47 328.32 93.32 328.04 95.61 326.07 96.53 326.07 98.36 328.32 96.76 328.32"/><polygon class="cls-21" points="137.13 333.58 119 333.14 111.05 333.14 115.25 325.58 119.89 326.51 136.13 331.37 137.13 333.58"/><polygon class="cls-21" points="121.03 317.68 121.03 319.89 112.55 319.89 113.02 315.68 113.47 315.48 121.03 317.68"/><polygon class="cls-21" points="94.83 331.37 88.8 331.37 89.69 327.84 90.81 327.84 94.83 331.37"/><polygon class="cls-21" points="193.25 319.2 193.25 321.58 185.25 321.58 185.25 316.86 193.25 319.2"/><polygon class="cls-21" points="265.76 327.45 236.71 326.34 227.93 325.31 227.25 320.58 214.25 317.58 220.25 313.58 220.25 307.58 235 315.21 249.25 322.58 256.5 323.98 262.81 325.19 265.76 327.45"/><g class="cls-49"><path class="cls-50" d="M665,384.5c0,1.67-2,2.87-5.39,1.77-3.43,2-8.32,2.36-14.17,1.25-5.86-4.11-12.67,2.68-19.94.48-7.27,0-14.08-.17-19.94-.48-11.7-.61-19.56-1.73-19.56-3,0-1.93,17.68-3.5,39.5-3.5,7.27,0,14.08-2.63,19.94.48,5.85-.2,10.74.2,14.17,1.25C663,380.07,665,382.93,665,384.5Z"/><path class="cls-51" d="M648,384c0,1.67,31.12,3.43,26,5-5.12,3.71-76.48,8.55-85.22,3.29-8.74,4.3-18.92.71-29.78.71-32.58,0-59-2.34-59-5.23s26.42-5.23,59-5.23c10.86,0,21,3.37,29.78.72,8.74,1.56,16-1.15,21.16,1.87C615.07,381.71,648,386.29,648,384Z"/><path class="cls-52" d="M704,378.5c0,.41-1.51.79-4,1.06a91.85,91.85,0,0,1-9.55.44c-3.73-.12-7.1-1.1-9.55-.44-2.44-.56-22-.89-22,.44,0-3,19.51-5.44,22-2.56,2.45-2.34,5.82-.51,9.55-.44a91.85,91.85,0,0,1,9.55.44C702.49,377.71,704,378.09,704,378.5Z"/><path class="cls-53" d="M765,374c12,0-14.13,3.1-17.57,1.49-3.43,2.57-8.18,1.66-13.43.62-5.25-2-12.27,2.45-17,1.89-17-2-26-5.4-26-3,0-1.88,26.13-2.72,29.57-2.49,3.43-2.35,8.18.88,13.43-.62,5.25,0,10,2.9,13.43.62C750.87,370.93,765,376.54,765,374Z"/></g><g class="cls-54"><polygon class="cls-55" points="538.38 351.59 533.56 349.98 515.46 351.59 523.91 353.6 537 354 538.38 351.59"/><polygon class="cls-55" points="504.16 342.82 508 346 497.4 344.75 494.23 343.69 501.22 341.44 504.16 342.82"/><polygon class="cls-56" points="515.36 351.61 521.04 351.43 535.31 351 527.52 346.85 517.48 349.49 515.36 351.61"/><polygon class="cls-57" points="521.04 351.43 535.31 351 527.52 346.85 521.7 350.55 521.04 351.43"/><polygon class="cls-58" points="483.64 344.22 486.17 344.14 492.51 343.95 489.05 342.11 484.58 343.28 483.64 344.22"/><polygon class="cls-57" points="486.17 344.14 492.51 343.95 489.05 342.11 486.46 343.75 486.17 344.14"/><polygon class="cls-59" points="494.23 343.59 496.9 343.39 503.61 342.88 499.94 338 495.22 341.11 494.23 343.59"/><polygon class="cls-57" points="496.9 343.39 503.61 342.88 499.94 338 497.21 342.35 496.9 343.39"/><polygon class="cls-55" points="493.44 344.2 491.36 343.51 483.58 344.2 487.21 345.07 493 346 493.44 344.2"/></g><path class="cls-60" d="M648.54,355.3,614,354l-7-4-40,2-11-1-28.57-8.84c16.23,3.34,35.27,7.32,35.27,7.32l44.63.35,4.33,2Z"/></g></g></g></svg>