<svg xmlns="http://www.w3.org/2000/svg" xmlns:xlink="http://www.w3.org/1999/xlink" viewBox="0 0 891 438"><defs><style>.cls-1{fill:none;}.cls-2{isolation:isolate;}.cls-3{clip-path:url(#clip-path);}.cls-4,.cls-5{mix-blend-mode:screen;}.cls-4{fill:url(#_ÂÁ_Ï_ÌÌ_È_ËÂÌÚ_542);}.cls-5{fill:url(#_ÂÁ_Ï_ÌÌ_È_ËÂÌÚ_539);}.cls-10,.cls-11,.cls-12,.cls-13,.cls-14,.cls-15,.cls-16,.cls-17,.cls-6,.cls-7,.cls-8,.cls-9{fill-rule:evenodd;}.cls-6{fill:url(#_ÂÁ_Ï_ÌÌ_È_ËÂÌÚ_529);}.cls-10,.cls-11,.cls-12,.cls-13,.cls-14,.cls-15,.cls-16,.cls-17,.cls-7,.cls-9{mix-blend-mode:multiply;opacity:0.3;}.cls-7{fill:url(#_ÂÁ_Ï_ÌÌ_È_ËÂÌÚ_559);}.cls-8{fill:url(#_ÂÁ_Ï_ÌÌ_È_ËÂÌÚ_528);}.cls-9{fill:url(#_ÂÁ_Ï_ÌÌ_È_ËÂÌÚ_495);}.cls-10{fill:url(#_ÂÁ_Ï_ÌÌ_È_ËÂÌÚ_495-2);}.cls-11{fill:url(#_ÂÁ_Ï_ÌÌ_È_ËÂÌÚ_495-3);}.cls-12{fill:url(#_ÂÁ_Ï_ÌÌ_È_ËÂÌÚ_495-4);}.cls-13{fill:url(#_ÂÁ_Ï_ÌÌ_È_ËÂÌÚ_495-5);}.cls-14{fill:url(#_ÂÁ_Ï_ÌÌ_È_ËÂÌÚ_495-6);}.cls-15{fill:url(#_ÂÁ_Ï_ÌÌ_È_ËÂÌÚ_495-7);}.cls-16{fill:url(#_ÂÁ_Ï_ÌÌ_È_ËÂÌÚ_495-8);}.cls-17{fill:url(#_ÂÁ_Ï_ÌÌ_È_ËÂÌÚ_495-9);}</style><clipPath id="clip-path"><rect class="cls-1" width="891" height="438"/></clipPath><radialGradient id="_ÂÁ_Ï_ÌÌ_È_ËÂÌÚ_542" cx="-1197.75" cy="-20.65" r="14.98" gradientTransform="matrix(2.39, 0, 0, 2.37, 3541.07, 104.38)" gradientUnits="userSpaceOnUse"><stop offset="0" stop-color="#ffff49"/><stop offset="0.12" stop-color="#fbfb48"/><stop offset="0.25" stop-color="#ee4"/><stop offset="0.37" stop-color="#dada3e"/><stop offset="0.5" stop-color="#bdbd36"/><stop offset="0.63" stop-color="#98982b"/><stop offset="0.76" stop-color="#6a6a1e"/><stop offset="0.89" stop-color="#35350f"/><stop offset="1"/></radialGradient><radialGradient id="_ÂÁ_Ï_ÌÌ_È_ËÂÌÚ_539" cx="-1197.43" cy="-21.23" r="12.78" gradientTransform="matrix(2.39, 0, 0, 2.37, 3539.37, 103.9)" gradientUnits="userSpaceOnUse"><stop offset="0" stop-color="#ffff47"/><stop offset="0.22" stop-color="#fcfc46"/><stop offset="0.36" stop-color="#f4f444"/><stop offset="0.47" stop-color="#e5e540"/><stop offset="0.57" stop-color="#d1d13a"/><stop offset="0.66" stop-color="#b6b633"/><stop offset="0.75" stop-color="#96962a"/><stop offset="0.83" stop-color="#6f6f1f"/><stop offset="0.91" stop-color="#424212"/><stop offset="0.98" stop-color="#101004"/><stop offset="1"/></radialGradient><radialGradient id="_ÂÁ_Ï_ÌÌ_È_ËÂÌÚ_529" cx="655.35" cy="41.63" r="45.74" gradientUnits="userSpaceOnUse"><stop offset="0.01" stop-color="#ebb1a2"/><stop offset="0.23" stop-color="#e9aea1"/><stop offset="0.39" stop-color="#e1a59d"/><stop offset="0.54" stop-color="#d49597"/><stop offset="0.67" stop-color="#c27e8e"/><stop offset="0.79" stop-color="#ab6183"/><stop offset="0.85" stop-color="#9f527d"/></radialGradient><linearGradient id="_ÂÁ_Ï_ÌÌ_È_ËÂÌÚ_559" x1="-134.79" y1="-304.77" x2="-134.79" y2="-305.85" gradientTransform="translate(892.94 290.54) rotate(-21.45)" gradientUnits="userSpaceOnUse"><stop offset="0" stop-color="#e3dbfd"/><stop offset="1" stop-color="#9f88d3"/></linearGradient><radialGradient id="_ÂÁ_Ï_ÌÌ_È_ËÂÌÚ_528" cx="-137.67" cy="-316.56" r="18.25" gradientTransform="translate(892.94 290.54) rotate(-21.45)" gradientUnits="userSpaceOnUse"><stop offset="0" stop-color="#fff"/><stop offset="1" stop-color="#eebfd3"/></radialGradient><linearGradient id="_ÂÁ_Ï_ÌÌ_È_ËÂÌÚ_495" x1="667.91" y1="75.02" x2="696.63" y2="75.02" gradientUnits="userSpaceOnUse"><stop offset="0" stop-color="#e3dbfd"/><stop offset="1" stop-color="#df62ac"/></linearGradient><linearGradient id="_ÂÁ_Ï_ÌÌ_È_ËÂÌÚ_495-2" x1="684.89" y1="62.49" x2="689.19" y2="62.49" xlink:href="#_ÂÁ_Ï_ÌÌ_È_ËÂÌÚ_495"/><linearGradient id="_ÂÁ_Ï_ÌÌ_È_ËÂÌÚ_495-3" x1="687.58" y1="47.69" x2="701.46" y2="47.69" xlink:href="#_ÂÁ_Ï_ÌÌ_È_ËÂÌÚ_495"/><linearGradient id="_ÂÁ_Ï_ÌÌ_È_ËÂÌÚ_495-4" x1="680.47" y1="53.09" x2="683.91" y2="53.09" xlink:href="#_ÂÁ_Ï_ÌÌ_È_ËÂÌÚ_495"/><linearGradient id="_ÂÁ_Ï_ÌÌ_È_ËÂÌÚ_495-5" x1="661.52" y1="70.53" x2="674.33" y2="70.53" xlink:href="#_ÂÁ_Ï_ÌÌ_È_ËÂÌÚ_495"/><linearGradient id="_ÂÁ_Ï_ÌÌ_È_ËÂÌÚ_495-6" x1="674.11" y1="63.99" x2="675.97" y2="63.99" xlink:href="#_ÂÁ_Ï_ÌÌ_È_ËÂÌÚ_495"/><linearGradient id="_ÂÁ_Ï_ÌÌ_È_ËÂÌÚ_495-7" x1="667.23" y1="31.41" x2="679.92" y2="31.41" xlink:href="#_ÂÁ_Ï_ÌÌ_È_ËÂÌÚ_495"/><linearGradient id="_ÂÁ_Ï_ÌÌ_È_ËÂÌÚ_495-8" x1="662.03" y1="37.22" x2="668.11" y2="37.22" xlink:href="#_ÂÁ_Ï_ÌÌ_È_ËÂÌÚ_495"/><linearGradient id="_ÂÁ_Ï_ÌÌ_È_ËÂÌÚ_495-9" x1="657.09" y1="60.87" x2="665.96" y2="60.87" xlink:href="#_ÂÁ_Ï_ÌÌ_È_ËÂÌÚ_495"/></defs><g class="cls-2"><g id="_ÎÓÈ_1" data-name="—ÎÓÈ_1"><g class="cls-3"><ellipse class="cls-4" cx="673.61" cy="55.43" rx="35.86" ry="35.56" transform="translate(353.67 650.81) rotate(-66.45)"/><ellipse class="cls-5" cx="672.67" cy="54.19" rx="30.59" ry="30.33" transform="translate(354.13 649.13) rotate(-66.44)"/><path class="cls-6" d="M700.37,62.69a28.07,28.07,0,0,1-3.74,8.11,26.31,26.31,0,0,1-2.8,3.55,28.55,28.55,0,0,1-23.65,8.93c-.76-.07-1.5-.18-2.24-.32a28.4,28.4,0,0,1-15.49-8.28c-.4-.42-.79-.85-1.16-1.29a28.13,28.13,0,0,1-4.8-8,28.46,28.46,0,0,1,13.56-35.77c.64-.33,1.3-.63,2-.91h0l.55-.23a28.08,28.08,0,0,1,4.65-1.38c.46-.1.91-.18,1.38-.26a26.94,26.94,0,0,1,3.79-.33,28.31,28.31,0,0,1,7.19.78h0A28.5,28.5,0,0,1,689.81,32c.3.22.6.46.9.69a28.34,28.34,0,0,1,8.78,11.87c.1.27.2.54.29.81a27.81,27.81,0,0,1,1.65,8.19A28.11,28.11,0,0,1,700.37,62.69Z"/><path class="cls-7" d="M655.49,55.24a.94.94,0,0,0-.09.52c.26,0,.41.44.72.39.08-.22.38-.56.09-.78,0,0-.14,0-.2,0s-.11-.11-.19-.12a2.24,2.24,0,0,0-.63.25Z"/><path class="cls-8" d="M668.61,26.82a.34.34,0,0,0-.11.07,7.82,7.82,0,0,1-1.64.81,2.3,2.3,0,0,1-.43.18c-.1,0-.16,0-.28,0s-.49.11-.72.15a5.21,5.21,0,0,0-1.29.45c-.5.21-1.11.17-1.58.42a12.4,12.4,0,0,1-1.49.88l-.38.15c-.32.13-.39.38-.68.66a2,2,0,0,1,0,.92,1.45,1.45,0,0,1-.19.23,4.77,4.77,0,0,1-.57.53,6.76,6.76,0,0,1-1.25.79,7.75,7.75,0,0,1-1.16.35,4.33,4.33,0,0,0-2.1,1c-.32.33-.63.68-1,1a4.68,4.68,0,0,0-.57.61,4.63,4.63,0,0,0-.29.54c-.12.21-.36.31-.54.47a1.49,1.49,0,0,0-.38.71c-.11.38.07.71,0,1.07a1.15,1.15,0,0,1-.31.52c-.59.74-.52,1.65-.86,2.5-.24.62-.81,1-1.1,1.65a16.07,16.07,0,0,0-.71,1.9,2.11,2.11,0,0,1-.63.91,3.42,3.42,0,0,0-.75,1.1c-.15.43-.29.85-.48,1.26s-.41.58-.55.9a5.24,5.24,0,0,0-.18,1c-.14.7-.09,1.4-.2,2.1s-.43,1.2-.23,1.79a1.4,1.4,0,0,0,.26.48,4.38,4.38,0,0,1,.34.83,2.76,2.76,0,0,0,.28.39,5,5,0,0,0,.37.53,8.29,8.29,0,0,0,.91.53,1.18,1.18,0,0,1,.48,1c0,.4,0,.82,0,1.22a13.17,13.17,0,0,0-.2,1.88,1.7,1.7,0,0,0,.32.59c.14.22.29.48.41.72a2.21,2.21,0,0,1,.21.8,1.83,1.83,0,0,1-.07.56c0,.09-.08.17-.11.26a3.68,3.68,0,0,0,0,.47,1.28,1.28,0,0,1-.13.67c-.24.27-.6-.3-.72,0s.14.47.19.64a2.55,2.55,0,0,1,.06.78c0,.49-.15.66.14,1.07a4.35,4.35,0,0,0,.82.84c.4.3.46.72.73,1.09a4.48,4.48,0,0,1,.29.68,3,3,0,0,0,.39.55,1.24,1.24,0,0,1,.22.56c0,.12-.12.23-.17.34a1.34,1.34,0,0,0,0,.63,3.71,3.71,0,0,0,.24.94,28.5,28.5,0,0,1,8.77-43.8c.64-.33,1.29-.63,2-.91h0l.55-.23A28,28,0,0,1,668.61,26.82Z"/><path class="cls-9" d="M696.63,70.8a26.31,26.31,0,0,1-2.8,3.55,28.55,28.55,0,0,1-23.65,8.93c-.76-.07-1.5-.18-2.24-.32-.36-1.78,2.28-4.75,3.17-5.88,3.17-4,6.56-8.18,11.3-10.09a2.9,2.9,0,0,1,2.73,0c.38.28.63.73,1,1,.56.3,1.27.15,1.82.44s.67.68,1,1c.82.68,1.87.49,3,.22a5.48,5.48,0,0,1,3.28-.2,2.05,2.05,0,0,1,.59.38A2.71,2.71,0,0,1,696.63,70.8Z"/><path class="cls-10" d="M686.16,62.34c-.56,0-.77.85-.42,1.29a1.77,1.77,0,0,0,1.54.47,2.17,2.17,0,0,0,1.74-.88c.58-1-.43-2.33-1.57-2.35a2.94,2.94,0,0,0-2.56,1.93Z"/><path class="cls-11" d="M700.37,62.69a3.54,3.54,0,0,1-1-.08l-.18,0a6.76,6.76,0,0,1-2.35-1.44c-.88-.71-1.77-1.46-2.61-2.25a12.93,12.93,0,0,1-2.57-3.23c-1.05-2-1.39-4.24-2.36-6.25a24.93,24.93,0,0,1-1.45-3c-.61-1.92-.19-4,.26-6,.53-2.38.6-6.05,2.57-7.78a28.34,28.34,0,0,1,8.78,11.87c.1.27.2.54.29.81a27.81,27.81,0,0,1,1.65,8.19A28.11,28.11,0,0,1,700.37,62.69Z"/><path class="cls-12" d="M681.94,52c-.34-.4.17-1.07.7-1a1.45,1.45,0,0,1,1.09,1A2.47,2.47,0,0,1,683,55a1.65,1.65,0,0,1-2.48-1.1,2.25,2.25,0,0,1,.23-1,7.26,7.26,0,0,1,.92-1.57Z"/><path class="cls-13" d="M665.89,75.48a19.08,19.08,0,0,0,4.56-1.09,6.48,6.48,0,0,0,3.45-3,4,4,0,0,0-.52-4.38,4.89,4.89,0,0,0-2.48-1.25c-3.21-.76-7.18.59-8.75,3.69S662.16,76.05,665.89,75.48Z"/><path class="cls-14" d="M674.61,64.16c-.53,0-.68-.87-.23-1.14a1,1,0,0,1,1.35.49,3,3,0,0,1,.23,1.56,1.2,1.2,0,0,1-1.23-1.22Z"/><path class="cls-15" d="M679.76,31.89a6.16,6.16,0,0,1-.51,2.25,4.27,4.27,0,0,1-3,2,12.53,12.53,0,0,1-3.72.05,4.71,4.71,0,0,1-3.26-1.17,4.6,4.6,0,0,1-.82-2c-.25-1-.49-2.09-.74-3.12a23.53,23.53,0,0,1-.52-2.88c.46-.1.91-.18,1.38-.26a26.94,26.94,0,0,1,3.79-.33,28.31,28.31,0,0,1,7.19.78h0l.1.35A12.05,12.05,0,0,1,679.76,31.89Z"/><path class="cls-16" d="M663.36,36.69c-.28-.3-.82-.13-1.13-.38-.47-.37,0-1.11.5-1.44a3.45,3.45,0,0,1,3.09-.67,3.6,3.6,0,0,1,1.44,1.22,3.24,3.24,0,0,1,.85,1.82,2.47,2.47,0,0,1-1.12,2,7.36,7.36,0,0,1-2.21,1,1.91,1.91,0,0,1-1.67,0,1.59,1.59,0,0,1-.55-1,5,5,0,0,1,.3-2.88Z"/><path class="cls-17" d="M658.51,65.83a2.25,2.25,0,0,0,.6.63,1.84,1.84,0,0,0,.79.22,4.61,4.61,0,0,0,4-2.16,13.68,13.68,0,0,0,1.74-4.4,4.42,4.42,0,0,0,0-3.2c-1.43-2.62-6.07-2.38-7.63-.05S657,63.67,658.51,65.83Z"/></g></g></g></svg>