<svg xmlns="http://www.w3.org/2000/svg" xmlns:xlink="http://www.w3.org/1999/xlink" viewBox="0 0 891 438"><defs><style>.cls-1{fill:none;}.cls-2{isolation:isolate;}.cls-3{clip-path:url(#clip-path);}.cls-13,.cls-14,.cls-4,.cls-5{mix-blend-mode:screen;}.cls-4{fill:url(#_ÂÁ_Ï_ÌÌ_È_ËÂÌÚ_542);}.cls-5{fill:url(#_ÂÁ_Ï_ÌÌ_È_ËÂÌÚ_539);}.cls-10,.cls-11,.cls-12,.cls-6,.cls-7,.cls-8,.cls-9{fill-rule:evenodd;}.cls-6{fill:url(#_ÂÁ_Ï_ÌÌ_È_ËÂÌÚ_490);}.cls-10,.cls-11,.cls-7,.cls-8,.cls-9{mix-blend-mode:multiply;opacity:0.3;}.cls-7{fill:url(#_ÂÁ_Ï_ÌÌ_È_ËÂÌÚ_495);}.cls-8{fill:url(#_ÂÁ_Ï_ÌÌ_È_ËÂÌÚ_495-2);}.cls-9{fill:url(#_ÂÁ_Ï_ÌÌ_È_ËÂÌÚ_559);}.cls-10{fill:url(#_ÂÁ_Ï_ÌÌ_È_ËÂÌÚ_495-3);}.cls-11{fill:url(#_ÂÁ_Ï_ÌÌ_È_ËÂÌÚ_495-4);}.cls-12{fill:url(#_ÂÁ_Ï_ÌÌ_È_ËÂÌÚ_499);}.cls-13,.cls-14{opacity:0.7;}.cls-13{fill:url(#_ÂÁ_Ï_ÌÌ_È_ËÂÌÚ_7);}.cls-14{fill:url(#_ÂÁ_Ï_ÌÌ_È_ËÂÌÚ_7-2);}</style><clipPath id="clip-path"><rect class="cls-1" width="891" height="438"/></clipPath><radialGradient id="_ÂÁ_Ï_ÌÌ_È_ËÂÌÚ_542" cx="-1184.52" cy="200.75" r="39.75" gradientTransform="matrix(0, 2.39, 2.37, 0, -93.26, 2966.93)" gradientUnits="userSpaceOnUse"><stop offset="0" stop-color="#ffff49"/><stop offset="0.12" stop-color="#fbfb48"/><stop offset="0.25" stop-color="#ee4"/><stop offset="0.37" stop-color="#dada3e"/><stop offset="0.5" stop-color="#bdbd36"/><stop offset="0.63" stop-color="#98982b"/><stop offset="0.76" stop-color="#6a6a1e"/><stop offset="0.89" stop-color="#35350f"/><stop offset="1"/></radialGradient><radialGradient id="_ÂÁ_Ï_ÌÌ_È_ËÂÌÚ_539" cx="-1183.67" cy="199.23" r="33.91" gradientTransform="matrix(0, 2.39, 2.37, 0, -93.01, 2967.16)" gradientUnits="userSpaceOnUse"><stop offset="0" stop-color="#ffff47"/><stop offset="0.22" stop-color="#fcfc46"/><stop offset="0.36" stop-color="#f4f444"/><stop offset="0.47" stop-color="#e5e540"/><stop offset="0.57" stop-color="#d1d13a"/><stop offset="0.66" stop-color="#b6b633"/><stop offset="0.75" stop-color="#96962a"/><stop offset="0.83" stop-color="#6f6f1f"/><stop offset="0.91" stop-color="#424212"/><stop offset="0.98" stop-color="#101004"/><stop offset="1"/></radialGradient><radialGradient id="_ÂÁ_Ï_ÌÌ_È_ËÂÌÚ_490" cx="227.63" cy="12.61" r="121.35" gradientTransform="matrix(0.75, 0.67, 0.67, -0.75, 144.54, -15.02)" gradientUnits="userSpaceOnUse"><stop offset="0.01" stop-color="#f9ecd0"/><stop offset="0.23" stop-color="#f8e9cf"/><stop offset="0.39" stop-color="#f4e0cb"/><stop offset="0.53" stop-color="#eed0c4"/><stop offset="0.67" stop-color="#e6b9ba"/><stop offset="0.79" stop-color="#db9cae"/><stop offset="0.91" stop-color="#cd799f"/><stop offset="1" stop-color="#c15891"/></radialGradient><linearGradient id="_ÂÁ_Ï_ÌÌ_È_ËÂÌÚ_495" x1="277.26" y1="116.08" x2="277.26" y2="-16.59" gradientTransform="matrix(0.75, 0.67, 0.67, -0.75, 144.54, -15.02)" gradientUnits="userSpaceOnUse"><stop offset="0" stop-color="#e3dbfd"/><stop offset="1" stop-color="#df62ac"/></linearGradient><linearGradient id="_ÂÁ_Ï_ÌÌ_È_ËÂÌÚ_495-2" x1="234.02" y1="28.86" x2="234.02" y2="9.19" xlink:href="#_ÂÁ_Ï_ÌÌ_È_ËÂÌÚ_495"/><linearGradient id="_ÂÁ_Ï_ÌÌ_È_ËÂÌÚ_559" x1="231.35" y1="34.54" x2="231.35" y2="31.68" gradientTransform="matrix(0.75, 0.67, 0.67, -0.75, 144.54, -15.02)" gradientUnits="userSpaceOnUse"><stop offset="0" stop-color="#e3dbfd"/><stop offset="1" stop-color="#9f88d3"/></linearGradient><linearGradient id="_ÂÁ_Ï_ÌÌ_È_ËÂÌÚ_495-3" x1="268.21" y1="60.19" x2="268.21" y2="-4.32" xlink:href="#_ÂÁ_Ï_ÌÌ_È_ËÂÌÚ_495"/><linearGradient id="_ÂÁ_Ï_ÌÌ_È_ËÂÌÚ_495-4" x1="312.51" y1="107.26" x2="312.51" y2="45.09" xlink:href="#_ÂÁ_Ï_ÌÌ_È_ËÂÌÚ_495"/><radialGradient id="_ÂÁ_Ï_ÌÌ_È_ËÂÌÚ_499" cx="223.72" cy="3.26" r="48.42" gradientTransform="matrix(0.75, 0.67, 0.67, -0.75, 144.54, -15.02)" gradientUnits="userSpaceOnUse"><stop offset="0" stop-color="#fff"/><stop offset="1" stop-color="#f4daf6"/></radialGradient><radialGradient id="_ÂÁ_Ï_ÌÌ_È_ËÂÌÚ_7" cx="313.71" cy="99.22" r="26.25" gradientTransform="translate(-130.31 -140.53) scale(1.95 1.91)" gradientUnits="userSpaceOnUse"><stop offset="0" stop-color="#e6941f"/><stop offset="0.12" stop-color="#bd7a1a"/><stop offset="0.29" stop-color="#845512"/><stop offset="0.46" stop-color="#55370b"/><stop offset="0.62" stop-color="#301f06"/><stop offset="0.77" stop-color="#160e03"/><stop offset="0.9" stop-color="#060401"/><stop offset="1"/></radialGradient><radialGradient id="_ÂÁ_Ï_ÌÌ_È_ËÂÌÚ_7-2" cx="243.47" cy="100.69" r="13.07" xlink:href="#_ÂÁ_Ï_ÌÌ_È_ËÂÌÚ_7"/></defs><g class="cls-2"><g id="_ÎÓÈ_1" data-name="—ÎÓÈ_1"><g class="cls-3"><ellipse class="cls-4" cx="383.32" cy="131.13" rx="94.35" ry="95.16" transform="translate(-6.91 22.26) rotate(-3.3)"/><ellipse class="cls-5" cx="379.83" cy="133.37" rx="80.49" ry="81.18" transform="translate(-7.03 22.04) rotate(-3.29)"/><path class="cls-6" d="M437.71,182c.51-.57,1-1.15,1.49-1.73a74.87,74.87,0,0,0,11.62-18.88A75.57,75.57,0,0,0,348.31,63.79c-1.38.66-2.75,1.37-4.09,2.14A75.57,75.57,0,0,0,325.81,183c1.29,1.41,2.65,2.76,4.07,4.07l0,0c.38.36.77.71,1.16,1.06a75.54,75.54,0,0,0,13.51,9.62,71.06,71.06,0,0,0,9.14,4.32,75.54,75.54,0,0,0,84-20.09Z"/><path class="cls-7" d="M402.08,204.4l-.59,0a16.69,16.69,0,0,1-3.21-.61c-.87-.29-1.58-.83-2.35-1.14a19.12,19.12,0,0,0-4.26-1.06c-1.75-.27-3.3-.95-5-1.26-4.55-.79-9.2,1-13.59,2a19.07,19.07,0,0,0-2.74.75,6.34,6.34,0,0,1-2,.27,7.67,7.67,0,0,1-4.63-.94,5.25,5.25,0,0,1-1.48-2.39c-.58-1.2-.79-1.64.49-2,2.22-.63,5-.9,5.1-3.86a39.72,39.72,0,0,0,.09-5.56c-.22-2.08.17-4.58-1.11-6.42-1-1.36-2.91-1.5-4.39-2.07a16,16,0,0,1-3.91-1.69,13.09,13.09,0,0,1-2-2.41c-1.08-1.29-2.66-2.3-4.3-1.62-.63.24-.61.5-1.36.43a6.66,6.66,0,0,1-2.12-.92c-1.78-1-3.25-2.54-5-3.49a35.51,35.51,0,0,0-3.85-1.54,18,18,0,0,0-2.42-1.13c-.47-.09-1.09,0-1.59-.1a5.37,5.37,0,0,1-3.52-1.57,24.67,24.67,0,0,1-5.74-8.36c-.72-1.89,0-2.64,1.51-3.51,1.34-.76,3.51-1.28,4.28-2.68.65-1.17.58-2.66,1.07-3.88s.92-2.35,2.16-2.92c2.08-1,4.6-.88,6.77-1.58,2.43-.8,5.44-3.14,4.76-5.94a11,11,0,0,1,.11-4.07c.13-.95.54-2.22-.51-2.8-.7-.38-1.86,0-2.58-.36a2.72,2.72,0,0,1-1.41-1.94,17.43,17.43,0,0,1-1.06-4.1c0-2.43,2.57-5.16,4.67-6,2.53-1.06,5-2.26,7.78-1.48,1.76.49,3.29,1.84,5.22,1.13,1.18-.45,1.78-1.38,2.74-2.08a28.59,28.59,0,0,0,2.89-1.94,19.12,19.12,0,0,1,2.66-2.09,40.25,40.25,0,0,1,4.17-2.53c1.71-.8,3.56-.82,5.35-1.23,1.59-.35,2.93-.05,4.53-.21,1.76-.17,3.62.07,5.27-.61,1.26-.5,2.45-1.16,3.75-1.61,3.59-1.22,4.66,2.65,5.37,5.38a21.79,21.79,0,0,1,1,5.57,23.69,23.69,0,0,0,.26,4.61,30.8,30.8,0,0,0,1.11,4.45,5,5,0,0,1,.54,1.71,4.2,4.2,0,0,1-1.15,2.7c-1.43,1.69-3,4.11-4.85,5.37-2,1.39-3.78-.53-5.2-1.73-.8-.69-1.92-1.45-3-1.05s-1.54,1.26-2.65,1.57a2.55,2.55,0,0,1-2.93-1.08c-.31-.43-.42-.89-.78-1.31s-.88-.51-.9-1.13c-.08-1.29,1.89-1.23,2.81-1.4,1.64-.3,1.91-.45,2.35-2,.24-.93.56-2.44-.58-2.84-.81-.28-2.41.63-3.2.76-3.38.56-6.81,1.11-7.26,5.23-.14,1.29.44,1.69.72,2.82s-.3,2.47.05,3.69c.48,1.59,2.39,2.7,3.59,3.79a30.31,30.31,0,0,0,4.84,3.51,9,9,0,0,0,3.37,1c1.26.26,1.87,1.43,2.94,2,2,1.08,3.78.51,5.88.3s3.17-1.07,4.89-2.23a52.57,52.57,0,0,0,9.72-8.19c2.4-2.74,4.69-5.73,7.64-7.85a30.12,30.12,0,0,1,4.41-2.59c.5-.23.53,0,.89-.58a8.38,8.38,0,0,0,.6-2.11c.14-1.15-.41-2.68-.51-3.85a19.76,19.76,0,0,0-.81-3.29c-.4-1.6-.89-3.1-1.33-4.67-.73-2.54,1.29-4.74,1-7.4-.34-3.77-2.42-6.26-4.15-9.51a74.77,74.77,0,0,1-4-7.75c-.66-1.7-.88-3.36-1.71-5a58.13,58.13,0,0,0-3.88-5.81,15.47,15.47,0,0,0-3.76-4,24.55,24.55,0,0,1-2.86-1.87c-1.68-1.5-3.36-3-5.08-4.53a10.39,10.39,0,0,0-3.2-1.48c-1.14-.45-2.34-.8-3.5-1.25-3-1.15-6.59-3.59-9.94-2.9-1,.2-1.93.63-2.92.77a13.82,13.82,0,0,1-2.41-.17,12.19,12.19,0,0,1-1.93-.13,9.87,9.87,0,0,0-2.92.06,8.91,8.91,0,0,1-2.67-.21,6.78,6.78,0,0,0-1.59-.41c-.59.06-.57.38-1,.73a16.51,16.51,0,0,1-1.51.93,7,7,0,0,1-5.11,1.45,10.43,10.43,0,0,0-2.53-.51,7.17,7.17,0,0,0-4.54,1.14,1.09,1.09,0,0,1,.05-.14,75.66,75.66,0,0,1,52-5.14q.38.8.69,1.56a9.65,9.65,0,0,0,3,3.61,35,35,0,0,1,4.47,4.79,30.24,30.24,0,0,0,4.06,4.1c1.84,1.61,3.25,3.6,5.11,5.22a33,33,0,0,0,5.86,3.57c2.91,1.62,4.88,4.6,6.84,7.24.89,1.18,1.36,2.68,2.31,3.82.58.68,1.26,1.22,1.81,2a23.73,23.73,0,0,0,5.17,5c1.26.83,2.48.36,3.79.55s2.15,1.71,3.21,2.45a4.55,4.55,0,0,0,4.37.1,75.79,75.79,0,0,1-.2,58.79c-1.56-1.41-2.77-4.78-3.75-5.51-.59-.44-1.34-.54-1.93-1.08a8.86,8.86,0,0,1-1.28-1.66c-.67-.89-1.52-2-2.65-1.59s-1.65,2.54-3,1.66c-.67-.45-.82-1.4-1.6-1.88a8.64,8.64,0,0,1-1.78-1.22,24.52,24.52,0,0,1-2.4-2.82,4.05,4.05,0,0,0-1.46-1c-.44-.23-1.13-.93-1.57-1-1.58-.39-1.62,1.55-1.77,2.58a14.7,14.7,0,0,1-.23,1.75c-.17.61-.46.74-.76,1.26a6.47,6.47,0,0,0-.56,4.32,23.48,23.48,0,0,1,.21,6.64,5.62,5.62,0,0,1-.6,2.46c-.38.62-.75,1.23-1.11,1.87a15.41,15.41,0,0,0-1,2.26c-.43,1.08-1.2,1.95-1.67,3a8,8,0,0,0-.6,4c.16.46.59.76.69,1.28s-.14.88.11,1.38c.55,1.12,2.84,1.81,3.88,2.23a13.79,13.79,0,0,0,5.32.86,28,28,0,0,0,5.12-.95,6.52,6.52,0,0,1,2.83,0c-.48.58-1,1.16-1.49,1.73A75.18,75.18,0,0,1,402.08,204.4Zm-5.79-52.08c.21-.5-.38-1.4-.78-1.65-.81-.54-2.12-.2-3.06-.24a3.77,3.77,0,0,0-2.73.9l.85.11c-1.17.27-2.65.22-2.87,1.75a1.43,1.43,0,0,0,1.16,1.61,8.65,8.65,0,0,0,3.95.63,3.57,3.57,0,0,0,2-1.5A8.6,8.6,0,0,0,396.29,152.32Zm-16.56,42.55a4.23,4.23,0,0,0-.44-2.75,7.91,7.91,0,0,0-1.52-2c-1.2-1.1-3.18-1.14-4.69-1.21-.87-.06-3,.13-1,1a3.79,3.79,0,0,0-1.52,1,8.66,8.66,0,0,0-.67,1.19c-.48.89-.58,1.88-1,2.78a11.4,11.4,0,0,1-1.16,2.11c-.42.55-1,.86-.83,1.64a.83.83,0,0,0,.78.76,6.18,6.18,0,0,0,1.67-.24q.83-.09,1.65-.24c1.61-.26,3.06-1.14,4.64-1.53a8.5,8.5,0,0,0,2.43-.73A3.12,3.12,0,0,0,379.73,194.87Zm46.44-8.76c.31-1.51-.93-3.15-1.86-4.23a18.5,18.5,0,0,0-5.52-3.76,5.14,5.14,0,0,0-2.31-.67c-.91-.07-1.85-.47-.79.24a31.13,31.13,0,0,0-3,2c-1.21.91-2.63,1.55-3.92,2.35-2.14,1.32-4.73,2.89-5.91,5.21a5.59,5.59,0,0,0-.08,5.17,6.84,6.84,0,0,0,2.83,2.53,11.87,11.87,0,0,0,4.46.72,7.93,7.93,0,0,0,4.31-1c.9-.56,1.69-1.31,2.64-1.79.48-.26.93-.47,1.39-.76a6.08,6.08,0,0,1,1.88-.6,4.43,4.43,0,0,0,2.47-1.09c.67-.69,1.26-1.43,1.9-2.15A4.85,4.85,0,0,0,426.17,186.11Z"/><path class="cls-8" d="M339.2,123.45c.23-.71.83-2.28.5-3.07s-1.83-.89-2.59-1.08a11.37,11.37,0,0,1-1.92-.44,10.81,10.81,0,0,0-1.44-.73,4.91,4.91,0,0,0-1.5-.25,3.55,3.55,0,0,0-1.2.56,23.47,23.47,0,0,0-2.78,2.12,3.66,3.66,0,0,0-1.15,1.56c-.41.84-.89,1.66-1.26,2.52a17.23,17.23,0,0,0-1.43,3.86,5.07,5.07,0,0,0,.54,3.3c.22.47.56.84.77,1.31a8.07,8.07,0,0,0,.86,1.68,3.47,3.47,0,0,0,.76.77,2.79,2.79,0,0,0,1.11.3A2.71,2.71,0,0,0,330,136a4.09,4.09,0,0,0,1.35-.51c.85-.52,1.81-.9,2.61-1.48a5.88,5.88,0,0,0,2.25-2.81,20,20,0,0,1,1.58-3.13,9.53,9.53,0,0,0,1.34-3C339.2,124.31,339.08,123.65,339.2,123.45Z"/><path class="cls-9" d="M338,115a2.39,2.39,0,0,1,.25-1.38c.68.16,1.42-.72,2.15-.32,0,.64.43,1.77-.49,2-.13,0-.38-.1-.53-.09s-.4.17-.59.12c-.41-.11-1-.91-1.35-1.19Z"/><path class="cls-10" d="M353.76,120.9a4.25,4.25,0,0,1,1.73-.41c.54,0,1.16.07,1.71.09a17.94,17.94,0,0,0,3.19.1c1-.16,1.25-.79,1.9-1.37.38-.35.86-.65,1.27-1a4.81,4.81,0,0,0,.71-.5,4.77,4.77,0,0,1,.73-.76c.61-.4,1.35-.47,2-.9a4.24,4.24,0,0,1,1.47-.88,4.29,4.29,0,0,1,1.29.13,5.7,5.7,0,0,0,1.64-.18c1.86-.41,3.21-1.74,5-2.28,1.61-.48,3.12,1.39,4.35,2.12.2.12.47.12.64.29a2.75,2.75,0,0,1,.35.76,2.3,2.3,0,0,0,.92,1c.25.15.26-.11.51.24a1.77,1.77,0,0,1,.05,1,2.16,2.16,0,0,1-1.2,1.51c-.64.4-1.25.82-1.89,1.22a17.35,17.35,0,0,0-1.77,1c-.53.43-.88,1-1.41,1.45-1.29,1-2.51,1-4.15,1.07-1.48.06-3.3-.4-4.36.93-.43.53-.22.75-.29,1.33a7.56,7.56,0,0,0-.3,2,6,6,0,0,0,.54,1.12,13.41,13.41,0,0,1,.84,1.53c.23.61-.07.93-.08,1.51,0,.36.11.24.23.57a2.27,2.27,0,0,1,.15,1,6,6,0,0,1-.23,2,4.44,4.44,0,0,0-.31,1.69,16.89,16.89,0,0,0,.26,2.24,5,5,0,0,0,.95,2.1,6.73,6.73,0,0,0,.85.74,8.38,8.38,0,0,1,1.62,2.85c.67,1.44,1.16,4.2,3.27,4,.63-.08,1.09-.58,1.75-.55,1.42.09,2,1.52,2.52,2.62a17.59,17.59,0,0,1,1.38,5.9c.14,1.3.24,2.4-.63,3.47-1.66,2.07-4.47,2-6.43,3.62s-2.8,4.28-4.13,6.32A5.71,5.71,0,0,1,367.3,174a4.8,4.8,0,0,1-1.47.09c-1-.12-1.27-.74-2-1.23a2.3,2.3,0,0,0-1.44-.3c-1.49,0-2.75-1.85-3.78-2.74a12.58,12.58,0,0,0-5.27-3,57.08,57.08,0,0,0-7-1.16,35.31,35.31,0,0,1-5.22-.76,8.7,8.7,0,0,1-3.2-1.81,5,5,0,0,1-2.12-4.18c.05-1.66,1-1.82,2.23-2.57.41-.24,1.33-.68,1.44-1.22.16-.83-1-1.59-1.52-2.05s-1.62-1.09-1.38-1.87c.17-.57,1.16-1.35,1.56-1.79s.71-1,1.3-1.1.83.23,1.25.33c.75.19,1.29-.18,2-.36a7.13,7.13,0,0,1,1.6,0,8.15,8.15,0,0,1,2-.08c1.1.28,1.66,1.15,2.91,1.09a6.31,6.31,0,0,1,1.3-.08,5.73,5.73,0,0,1,1,.4c.77.31,2,.71,2.68,0s.18-2-.25-2.67-1.15-1.32-.78-2.06,1-.81,1.13-1.58c.32-2.43-2.8-3-4.18-4.34-2.08-2-1.63-4.76-1.32-7.29,0-.25,0-.5,0-.73.05-.42.27-.5.4-.86a2.16,2.16,0,0,0-.23-1.49,3.75,3.75,0,0,0-.89-1.52,22.19,22.19,0,0,1-1.69-1.49c-.95-1.11-.25-2.68.91-3.4.74-.47,1.91-.27,2.74-.57a11.08,11.08,0,0,1,2-.68c.38-.07.83,0,1.23,0C353.7,120.87,354.2,120.54,353.76,120.9Z"/><path class="cls-11" d="M399.4,150.25a6.76,6.76,0,0,1,1.23-1.66c.46-.42.94-.77,1.38-1.23,1.13-1.2,2-2.66,3.13-3.92a14.42,14.42,0,0,1,2.15-1.75c1-.78,1.44-1.93,2.26-2.84,1.15-1.25,2.34-2.54,4.09-2.86a2,2,0,0,1,1.78.38c.51.41.68,1,1.22,1.45s.95.3,1.49.47,1.35.45,2,.7a3.81,3.81,0,0,0,1.7.22c.57,0,1.15.23,1.67-.13s.29-1.12.31-1.72a7.33,7.33,0,0,0-.4-3.41,1.92,1.92,0,0,0-1.23-1.22c-.64-.28-1.25-.51-1.46-1.27a6.87,6.87,0,0,1-.13-3.12,3.57,3.57,0,0,1,.28-.68c.29-.4.09-.14.49-.26s.8-.15,1.13-.53a5.88,5.88,0,0,0,1.07-2.29,4.31,4.31,0,0,0,.08-1.56,17.33,17.33,0,0,0-.19-1.75,29.82,29.82,0,0,0-.67-3.44,25.53,25.53,0,0,1-1.09-4.21c-.6-3-1.67-5.71-1-8.82a3.53,3.53,0,0,1,1.66-2.31,7.69,7.69,0,0,1,1.18,0,5.16,5.16,0,0,0,1.67-.72,5.29,5.29,0,0,1,2.32-.81,4.79,4.79,0,0,1,2.26,1,12.11,12.11,0,0,0,1,.81,8.19,8.19,0,0,1,.81.45,6.46,6.46,0,0,0,3.09,1.75,3.55,3.55,0,0,0,1.34,0,12.1,12.1,0,0,1,1.64-.45c1.08,0,1.84,1.6,2.22,2.34.56,1.08,1,2.5,2.15,3.17a17.28,17.28,0,0,0,2.22.64,11.19,11.19,0,0,0,2.87.87,1.88,1.88,0,0,1,1.07.38,8.1,8.1,0,0,1,2.12,3.84c.56,1.59.86,3.25,1.42,4.84a16.92,16.92,0,0,1,1,5,38.75,38.75,0,0,0,.93,4.8c.24,1.23.43,2.46.64,3.69a25.65,25.65,0,0,1,.17,3.82,17.21,17.21,0,0,1,0,3,32.39,32.39,0,0,0-.49,3.36,17.15,17.15,0,0,1-.45,3.43c-.26,1.08-.89,3.07-2.44,2.7-1.11-.26-2-1.49-2.87-2.2a5.77,5.77,0,0,0-4.71-1c-1.34.18-2.62.57-4,.64a5,5,0,0,1-2.22,0,4,4,0,0,1-1.29-1.16,9,9,0,0,0-2.67-2.46,7,7,0,0,0-3.42-1.25,16.33,16.33,0,0,0-2.17.43c-1.05.18-1.9,1.49-2.26,2.45-.77,2-2.08,3.77-2.76,5.81-.43,1.3,1,2.13,1.45,3.29a8.16,8.16,0,0,1,.13,2.65,14.85,14.85,0,0,0,.49,2.44,4,4,0,0,1-3.64,5.13,3.9,3.9,0,0,1-3.91-1.8c-.36-.6-.77-1.19-1.07-1.82A10.71,10.71,0,0,0,415,159c-2.31-2.83-5.89-3.37-9.23-4.05a13.1,13.1,0,0,1-4.49-1.75c-.73-.48-1-.56-1.26-1.45a11.47,11.47,0,0,0-.78-1.57C398.92,149.58,399,148.89,399.4,150.25Z"/><path class="cls-12" d="M344.57,197.78a2.27,2.27,0,0,1-.21-.28A19.41,19.41,0,0,0,341,194a5.89,5.89,0,0,0-.91-.83c-.25-.14-.44-.1-.69-.27-.55-.36-1.12-.73-1.68-1a14,14,0,0,1-2.78-2.32c-1.06-1-2.6-1.43-3.55-2.47s-1.71-2.56-2.89-3.57l-.81-.72c-.68-.63-.63-1.3-1.11-2.29.28-.63.9-1.61.78-2.31a2.71,2.71,0,0,0-.26-.74,14.23,14.23,0,0,0-.92-1.83,18.31,18.31,0,0,0-2.4-3.13,23.71,23.71,0,0,0-2.55-1.93c-1.73-1.26-3.43-2.39-4.34-4.43-.48-1.11-.94-2.27-1.45-3.4a11.46,11.46,0,0,1-.86-2c-.13-.53-.13-1.09-.22-1.61a6.23,6.23,0,0,0-.91-1.68,3.77,3.77,0,0,1-.3-2.12c.08-1,.82-1.71,1-2.65a3.08,3.08,0,0,0-.3-1.58c-.79-2.39.23-4.58.17-7,0-1.77-1.07-3.34-1.24-5.13a43.73,43.73,0,0,1,0-5.37,5.37,5.37,0,0,0-.73-2.86,8.55,8.55,0,0,1-.85-3.43,35.44,35.44,0,0,0-.05-3.57c-.08-.94-.48-1.81-.53-2.75a13.71,13.71,0,0,1,.42-2.55c.31-1.87,1.07-3.57,1.44-5.42.3-1.53,0-3.38,1.06-4.66a4.3,4.3,0,0,1,1.1-1,12.31,12.31,0,0,0,1.62-1.75,5,5,0,0,1,1.06-.71,9.76,9.76,0,0,1,1.4-1,21.1,21.1,0,0,1,2.75-.49,3.15,3.15,0,0,0,2.08-2c.42-1,.83-2,1.18-3,.57-1.53.44-3.42,1.25-4.86a4.26,4.26,0,0,1,1.32-1.18A20.67,20.67,0,0,0,329,91a5.62,5.62,0,0,0,1.27-1.79,5.35,5.35,0,0,0,.34-1.47c0-.24-.06-.5,0-.73a7.3,7.3,0,0,1,.44-1.18,3.75,3.75,0,0,0,.3-1.79c-.37-.91-1.78.19-1.84-.58-.06-.55.78-1,1.06-1.44a6.39,6.39,0,0,0,.87-1.87c.38-1.25.23-1.79,1.33-2.54a10.84,10.84,0,0,1,2.82-1.32c1.25-.39,1.81-1.38,2.82-2.07a10,10,0,0,0,1.33-1.42,9.51,9.51,0,0,1,1.49-1,3.3,3.3,0,0,0,1.05-1.18c.11-.32-.08-.7-.09-1a3.24,3.24,0,0,1,.61-1.56,8.2,8.2,0,0,1,1.45-2.1A75.57,75.57,0,0,0,325.81,183c1.29,1.41,2.65,2.76,4.07,4.07l0,0c.38.36.77.71,1.16,1.06A75.54,75.54,0,0,0,344.57,197.78Z"/><ellipse class="cls-13" cx="479.91" cy="49.19" rx="51.06" ry="50.19"/><ellipse class="cls-14" cx="343.29" cy="52" rx="25.43" ry="25"/></g></g></g></svg>