<svg xmlns="http://www.w3.org/2000/svg" xmlns:xlink="http://www.w3.org/1999/xlink" viewBox="0 0 891 438"><defs><style>.cls-1{fill:none;}.cls-2{isolation:isolate;}.cls-3{clip-path:url(#clip-path);}.cls-10,.cls-11,.cls-12,.cls-13,.cls-14,.cls-15,.cls-16,.cls-17,.cls-18,.cls-19,.cls-20,.cls-21,.cls-22,.cls-23,.cls-24,.cls-25,.cls-26,.cls-27,.cls-28,.cls-29,.cls-30,.cls-31,.cls-4,.cls-5,.cls-7,.cls-8,.cls-9{fill-rule:evenodd;}.cls-4{fill:url(#_ÂÁ_Ï_ÌÌ_È_ËÂÌÚ_492);}.cls-5{fill:url(#_ÂÁ_Ï_ÌÌ_È_ËÂÌÚ_418);}.cls-6{mix-blend-mode:multiply;opacity:0.2;}.cls-7{fill:url(#_ÂÁ_Ï_ÌÌ_È_ËÂÌÚ_299);}.cls-8{fill:url(#_ÂÁ_Ï_ÌÌ_È_ËÂÌÚ_299-2);}.cls-9{fill:url(#_ÂÁ_Ï_ÌÌ_È_ËÂÌÚ_299-3);}.cls-10{fill:url(#_ÂÁ_Ï_ÌÌ_È_ËÂÌÚ_299-4);}.cls-11{fill:url(#_ÂÁ_Ï_ÌÌ_È_ËÂÌÚ_299-5);}.cls-12{fill:url(#_ÂÁ_Ï_ÌÌ_È_ËÂÌÚ_299-6);}.cls-13{fill:url(#_ÂÁ_Ï_ÌÌ_È_ËÂÌÚ_299-7);}.cls-14{fill:url(#_ÂÁ_Ï_ÌÌ_È_ËÂÌÚ_299-8);}.cls-15{fill:url(#_ÂÁ_Ï_ÌÌ_È_ËÂÌÚ_299-9);}.cls-16{fill:url(#_ÂÁ_Ï_ÌÌ_È_ËÂÌÚ_299-10);}.cls-17{fill:url(#_ÂÁ_Ï_ÌÌ_È_ËÂÌÚ_299-11);}.cls-18{fill:url(#_ÂÁ_Ï_ÌÌ_È_ËÂÌÚ_413);}.cls-19{fill:url(#_ÂÁ_Ï_ÌÌ_È_ËÂÌÚ_456);}.cls-20{fill:url(#_ÂÁ_Ï_ÌÌ_È_ËÂÌÚ_456-2);}.cls-21{fill:url(#_ÂÁ_Ï_ÌÌ_È_ËÂÌÚ_456-3);}.cls-22{fill:url(#_ÂÁ_Ï_ÌÌ_È_ËÂÌÚ_456-4);}.cls-23{fill:url(#_ÂÁ_Ï_ÌÌ_È_ËÂÌÚ_456-5);}.cls-24{fill:url(#_ÂÁ_Ï_ÌÌ_È_ËÂÌÚ_456-6);}.cls-25{fill:url(#_ÂÁ_Ï_ÌÌ_È_ËÂÌÚ_456-7);}.cls-26{fill:url(#_ÂÁ_Ï_ÌÌ_È_ËÂÌÚ_456-8);}.cls-27{fill:url(#_ÂÁ_Ï_ÌÌ_È_ËÂÌÚ_456-9);}.cls-28{fill:url(#_ÂÁ_Ï_ÌÌ_È_ËÂÌÚ_456-10);}.cls-29,.cls-30,.cls-31{mix-blend-mode:screen;}.cls-29{opacity:0.6;fill:url(#_ÂÁ_Ï_ÌÌ_È_ËÂÌÚ_524);}.cls-30{fill:url(#_ÂÁ_Ï_ÌÌ_È_ËÂÌÚ_573);}.cls-31{fill:url(#_ÂÁ_Ï_ÌÌ_È_ËÂÌÚ_573-2);}</style><clipPath id="clip-path"><rect class="cls-1" width="891" height="438"/></clipPath><linearGradient id="_ÂÁ_Ï_ÌÌ_È_ËÂÌÚ_492" x1="205.7" y1="222.56" x2="205.7" y2="93.45" gradientUnits="userSpaceOnUse"><stop offset="0" stop-color="#9f2d6e"/><stop offset="1" stop-color="#c14462"/></linearGradient><linearGradient id="_ÂÁ_Ï_ÌÌ_È_ËÂÌÚ_418" x1="138.64" y1="220.32" x2="413.71" y2="220.32" gradientUnits="userSpaceOnUse"><stop offset="0" stop-color="#952063"/><stop offset="1" stop-color="#98245d"/></linearGradient><linearGradient id="_ÂÁ_Ï_ÌÌ_È_ËÂÌÚ_299" x1="212.96" y1="199.55" x2="212.96" y2="179.12" gradientUnits="userSpaceOnUse"><stop offset="0" stop-color="#702d63"/><stop offset="1" stop-color="#45245d"/></linearGradient><linearGradient id="_ÂÁ_Ï_ÌÌ_È_ËÂÌÚ_299-2" x1="224.21" y1="177.73" x2="224.21" y2="176.27" xlink:href="#_ÂÁ_Ï_ÌÌ_È_ËÂÌÚ_299"/><linearGradient id="_ÂÁ_Ï_ÌÌ_È_ËÂÌÚ_299-3" x1="214.51" y1="181.69" x2="214.51" y2="167.02" xlink:href="#_ÂÁ_Ï_ÌÌ_È_ËÂÌÚ_299"/><linearGradient id="_ÂÁ_Ï_ÌÌ_È_ËÂÌÚ_299-4" x1="177.8" y1="174.64" x2="177.8" y2="137.1" xlink:href="#_ÂÁ_Ï_ÌÌ_È_ËÂÌÚ_299"/><linearGradient id="_ÂÁ_Ï_ÌÌ_È_ËÂÌÚ_299-5" x1="191.08" y1="137.1" x2="191.08" y2="134.54" xlink:href="#_ÂÁ_Ï_ÌÌ_È_ËÂÌÚ_299"/><linearGradient id="_ÂÁ_Ï_ÌÌ_È_ËÂÌÚ_299-6" x1="130.55" y1="129.01" x2="130.55" y2="100.45" xlink:href="#_ÂÁ_Ï_ÌÌ_È_ËÂÌÚ_299"/><linearGradient id="_ÂÁ_Ï_ÌÌ_È_ËÂÌÚ_299-7" x1="132.08" y1="142.14" x2="132.08" y2="133.83" xlink:href="#_ÂÁ_Ï_ÌÌ_È_ËÂÌÚ_299"/><linearGradient id="_ÂÁ_Ï_ÌÌ_È_ËÂÌÚ_299-8" x1="108.07" y1="209.62" x2="108.07" y2="139.92" xlink:href="#_ÂÁ_Ï_ÌÌ_È_ËÂÌÚ_299"/><linearGradient id="_ÂÁ_Ï_ÌÌ_È_ËÂÌÚ_299-9" x1="43.27" y1="151.32" x2="43.27" y2="131.78" xlink:href="#_ÂÁ_Ï_ÌÌ_È_ËÂÌÚ_299"/><linearGradient id="_ÂÁ_Ï_ÌÌ_È_ËÂÌÚ_299-10" x1="10.62" y1="124.27" x2="10.62" y2="105.16" xlink:href="#_ÂÁ_Ï_ÌÌ_È_ËÂÌÚ_299"/><linearGradient id="_ÂÁ_Ï_ÌÌ_È_ËÂÌÚ_299-11" x1="27.66" y1="203.42" x2="27.66" y2="171.36" xlink:href="#_ÂÁ_Ï_ÌÌ_È_ËÂÌÚ_299"/><linearGradient id="_ÂÁ_Ï_ÌÌ_È_ËÂÌÚ_413" x1="-2.32" y1="205.13" x2="255.49" y2="205.13" gradientUnits="userSpaceOnUse"><stop offset="0" stop-color="#952063"/><stop offset="1" stop-color="#71245d"/></linearGradient><linearGradient id="_ÂÁ_Ï_ÌÌ_È_ËÂÌÚ_456" x1="208.37" y1="146.53" x2="208.37" y2="127.64" gradientUnits="userSpaceOnUse"><stop offset="0" stop-color="#e48937"/><stop offset="1" stop-color="#e3844b"/></linearGradient><linearGradient id="_ÂÁ_Ï_ÌÌ_È_ËÂÌÚ_456-2" x1="235.96" y1="167.02" x2="235.96" y2="142.14" xlink:href="#_ÂÁ_Ï_ÌÌ_È_ËÂÌÚ_456"/><linearGradient id="_ÂÁ_Ï_ÌÌ_È_ËÂÌÚ_456-3" x1="238.38" y1="200.23" x2="238.38" y2="174.47" xlink:href="#_ÂÁ_Ï_ÌÌ_È_ËÂÌÚ_456"/><linearGradient id="_ÂÁ_Ï_ÌÌ_È_ËÂÌÚ_456-4" x1="321.54" y1="216.47" x2="321.54" y2="195.15" xlink:href="#_ÂÁ_Ï_ÌÌ_È_ËÂÌÚ_456"/><linearGradient id="_ÂÁ_Ï_ÌÌ_È_ËÂÌÚ_456-5" x1="147.24" y1="145.48" x2="147.24" y2="93.45" xlink:href="#_ÂÁ_Ï_ÌÌ_È_ËÂÌÚ_456"/><linearGradient id="_ÂÁ_Ï_ÌÌ_È_ËÂÌÚ_456-6" x1="73.03" y1="144.21" x2="73.03" y2="126.39" xlink:href="#_ÂÁ_Ï_ÌÌ_È_ËÂÌÚ_456"/><linearGradient id="_ÂÁ_Ï_ÌÌ_È_ËÂÌÚ_456-7" x1="223.25" y1="128.89" x2="223.25" y2="117.9" xlink:href="#_ÂÁ_Ï_ÌÌ_È_ËÂÌÚ_456"/><linearGradient id="_ÂÁ_Ï_ÌÌ_È_ËÂÌÚ_456-8" x1="214.33" y1="124.76" x2="214.33" y2="122.3" xlink:href="#_ÂÁ_Ï_ÌÌ_È_ËÂÌÚ_456"/><linearGradient id="_ÂÁ_Ï_ÌÌ_È_ËÂÌÚ_456-9" x1="264.81" y1="174.29" x2="264.81" y2="163.83" xlink:href="#_ÂÁ_Ï_ÌÌ_È_ËÂÌÚ_456"/><linearGradient id="_ÂÁ_Ï_ÌÌ_È_ËÂÌÚ_456-10" x1="137.14" y1="91.94" x2="137.14" y2="88" xlink:href="#_ÂÁ_Ï_ÌÌ_È_ËÂÌÚ_456"/><linearGradient id="_ÂÁ_Ï_ÌÌ_È_ËÂÌÚ_524" x1="169.29" y1="173.33" x2="169.29" y2="93.45" gradientUnits="userSpaceOnUse"><stop offset="0"/><stop offset="0.27" stop-color="#020100"/><stop offset="0.41" stop-color="#0a0301"/><stop offset="0.52" stop-color="#180702"/><stop offset="0.62" stop-color="#2b0c03"/><stop offset="0.71" stop-color="#441304"/><stop offset="0.79" stop-color="#631b06"/><stop offset="0.86" stop-color="#872509"/><stop offset="0.93" stop-color="#b0310b"/><stop offset="0.99" stop-color="#dc3d0e"/></linearGradient><linearGradient id="_ÂÁ_Ï_ÌÌ_È_ËÂÌÚ_573" x1="195.15" y1="157.94" x2="241.13" y2="157.94" gradientUnits="userSpaceOnUse"><stop offset="0"/><stop offset="0.14" stop-color="#040100"/><stop offset="0.28" stop-color="#0f0401"/><stop offset="0.41" stop-color="#230a02"/><stop offset="0.54" stop-color="#3e1104"/><stop offset="0.67" stop-color="#611b06"/><stop offset="0.8" stop-color="#8c2709"/><stop offset="0.93" stop-color="#be350c"/><stop offset="0.99" stop-color="#dc3d0e"/></linearGradient><linearGradient id="_ÂÁ_Ï_ÌÌ_È_ËÂÌÚ_573-2" x1="136.91" y1="140.25" x2="175.2" y2="140.25" xlink:href="#_ÂÁ_Ï_ÌÌ_È_ËÂÌÚ_573"/></defs><g class="cls-2"><g id="_ÎÓÈ_1" data-name="—ÎÓÈ_1"><g class="cls-3"><path class="cls-4" d="M179.11,216.65l24-.26c-4.18-1-3.13-2.87-3.13-2.87-51.1-2.35-202.29-2.74-202.29-2.74V105.16a95.54,95.54,0,0,1,20.85,7.73c0-.09-.31-.81-.59-1.85-.85-3.23-1.57-9.55,5.81-9.35,9.91.26,9.12,15.12,9.12,15.12,2.87,8.6,0,18.25,0,18.25l1.21.4,5.05,1.68A15.84,15.84,0,0,1,44,131.78c3.61-2.67,9.61-5.32,19.1-5.32,19,0,26.85,12,25.81,15.11a11.81,11.81,0,0,1-4.17,5.22l.1,0,8.5,2.31c.36-5.41,1.72-8.08,2.52-9.21a3.47,3.47,0,0,1,.61-.69c.68-.28,1.38-.53,2.08-.75,15.29-5.22,31-2.12,31-2.12a16.93,16.93,0,0,1-1-1.64h0l0,0c-.83-1.49-1.83-3.72-1.61-5.68a3.91,3.91,0,0,1,.33-1.26c1.57-3.38,7.82-6,7.82-6s-14.07-3.87-14.37-9.08c-.28-4.89,3-10.92,3.38-11.66l0-.07c-4.69-.26-4.43-4.7,0-7s11,6,11,6c6.52-2.62,16.16-1.57,18.25,3.91s0,15.11,0,15.11h5.21c9.39,6.78,16.68,26.59,16.68,26.59l-3.38,3.39h15.37c.64-3.32,1.47-6.4,2.15-8.67h0c.71-2.35,1.25-3.84,1.25-3.84s.25-.18.37-.27l.13-.09c12-8.45,23-6.42,23-6.42,6.25,2.35,11.73,14.08,11.73,14.08,9.38-1.56,9.12,0,9.12,0,5.89,9.64,5.18,21.19,5,23.36,0,.23,0,.36,0,.36-9.22,3.87-25.86,5.4-34.82,6-3.71.24-6.11.31-6.11.31v3.91l.07,0c.67-.17,5.91-1.42,9.32.54,3.65,2.08,3.13,8.08,3.13,8.08l.64.16,3.53.88a10.72,10.72,0,0,1,3.76-8.07,10.9,10.9,0,0,1,2-1.32l.14-.06h0a20.28,20.28,0,0,1,5.4-1.46h0c9.45-1.55,25.5-1.16,27.79,1.53,2.87,3.4,4.7,18.51.79,22.43s-10.95,7.82-10.95,7.82l4.95,2.34s2.6-5.21,6.51-7,9.91-1,13.82,1.31,6.51,14.86,6.51,14.86h6.26a7.17,7.17,0,0,1,5.48-5.74c4.95-1.3,6.78,2.61,6.78,2.61s6.25-14.34,14.07-17.47,14.6-3.13,22.16,0,17.14,17.55,17.14,17.55c18.77-.27,65.48,6.09,65.48,6.09l-275.07-3,13.69-2.78s1.07-3.42,10.27-3.42A44.2,44.2,0,0,1,179.11,216.65Z"/><path class="cls-5" d="M138.64,219.52l191.41-1.44,83.66,4.48S257.45,222.64,138.64,219.52Z"/><g class="cls-6"><path class="cls-7" d="M226.48,194.44c-3.92,0-7.15,3-10.91,4.19a23.69,23.69,0,0,1-6.52.73l-9.6.19a135,135,0,0,0,10.27-10.17,18.85,18.85,0,0,0,2.36-3.07l3.53.88a10.72,10.72,0,0,1,3.76-8.07c-1.83,2.23-1.41,6.82-.37,9.23A10.61,10.61,0,0,0,226.48,194.44Z"/><path class="cls-8" d="M221.51,177.73a20.28,20.28,0,0,1,5.4-1.46l-.29.11C225.18,176.9,223.16,177.11,221.51,177.73Z"/><path class="cls-9" d="M239.89,167c0,.23,0,.36,0,.36-13,5.47-40.93,6.26-40.93,6.26v3.91l.07,0a3.47,3.47,0,0,0-.4,4.16,37.91,37.91,0,0,0-9.47-4.6l7.77-3.74a12.23,12.23,0,0,1,2.35-.93,12.74,12.74,0,0,1,3.7-.14A97.47,97.47,0,0,0,239.89,167Z"/><path class="cls-10" d="M197.7,153.51a49.1,49.1,0,0,0-15.25-.28c-5,.87-10,3.15-13.22,7.08s-4.56,9.65-2.52,14.33a28.66,28.66,0,0,1-8.8-13,12.7,12.7,0,0,0,11.26-11.72,22.42,22.42,0,0,0,7.85-1h10.17c.64-3.32,1.47-6.4,2.15-8.67h0a14.76,14.76,0,0,0,1.43-3.1A17.15,17.15,0,0,0,197.7,153.51Z"/><path class="cls-11" d="M191.09,136c-.09.37-.2.74-.32,1.1,0-.34.11-.67.19-1,.12-.52.26-1,.43-1.55A14,14,0,0,1,191.09,136Z"/><path class="cls-12" d="M140.43,125.38a32.13,32.13,0,0,0-7.59.46,11.4,11.4,0,0,0-5.93,3.17,3.91,3.91,0,0,1,.33-1.26c1.57-3.38,7.82-6,7.82-6s-14.07-3.87-14.37-9.08c-.28-4.89,3-10.92,3.38-11.66,1.37-.22,2.85,0,4.13-.53-3.3,1.31-5.24,5.09-4.94,8.64a12.47,12.47,0,0,0,5.44,8.79c3.33,2.35,8.39,3.15,11.21.21A51,51,0,0,0,140.43,125.38Z"/><path class="cls-13" d="M137.14,135.72a26,26,0,0,0-1.7,6.42c.29-2.2-6.64-7.6-8.42-8.31C129.56,135.74,134.05,135.91,137.14,135.72Z"/><path class="cls-14" d="M154,207a6.91,6.91,0,0,1-2.6,1.47c-5.7,2-12,.72-18,.29-4.35-.32-8.71-.16-13.06-.16-20,0-39.92-3.27-59.69-6.55a65.08,65.08,0,0,0,16.67-4.43,15,15,0,0,0,4.16-2.34c2.4-2.09,3.39-5.36,4.07-8.48a78.64,78.64,0,0,0,1.52-10,8,8,0,0,0-.6-4.69A7.33,7.33,0,0,0,84,169.83a34.77,34.77,0,0,0-8-4.08c-1.08-.37-2.49-.61-3.18.3a20.21,20.21,0,0,0,2.14-4c4.19,2,9.24,2.82,13.36.74S94.72,155,92,151.22c-1.73-2.35-4.78-3.24-7.6-4l.45-.41,8.5,2.31c.36-5.41,1.72-8.08,2.52-9.21.13,7.27,1.93,14,8,18.72a21.5,21.5,0,0,0,21,2.89,23.61,23.61,0,0,0,.74,16.27c-2.42-3.16-4.83-6.34-7.24-9.51a6.27,6.27,0,0,0-2.12-2,6,6,0,0,0-2.4-.42c-5.56-.22-11.56-.26-16.14,2.88-6.56,4.5-7.63,14.55-3.49,21.34s12.23,10.43,20.16,11a6.17,6.17,0,0,0,5.89-2.26,30.08,30.08,0,0,0,6.12-8.79c.69,2.44,1.5,5.07,3.53,6.6a10,10,0,0,0,2.48,1.26,32.13,32.13,0,0,0,22.33.09C155.58,201,156.26,204.81,154,207Z"/><path class="cls-15" d="M53.38,151.32a62.18,62.18,0,0,1-18.66-7.63,3.32,3.32,0,0,1-1.3-1.16,3.37,3.37,0,0,1-.27-1.64,18.15,18.15,0,0,1,.93-5.43l5.05,1.68A15.84,15.84,0,0,1,44,131.78c-.14.5-.29,1-.39,1.5a14.34,14.34,0,0,0,1.24,9A23.06,23.06,0,0,0,53.38,151.32Z"/><path class="cls-16" d="M23.55,114.65a14.17,14.17,0,0,0-11.76,9.62L1.37,120.51a12.64,12.64,0,0,1-3.12-1.44,6.47,6.47,0,0,1-.57-.47V105.16a95.54,95.54,0,0,1,20.85,7.73c0-.09-.31-.81-.59-1.85A18.7,18.7,0,0,0,23.55,114.65Z"/><path class="cls-17" d="M5.48,182.32a22.16,22.16,0,0,0,17.31,3.53c1.76-.38,3.68-1.18,4.28-2.87.77-2.12-.94-4.27-2.52-5.89a42.73,42.73,0,0,0,26.61,8.34,33.29,33.29,0,0,1-15.46.8c-1,2.45.14,5.34,2,7.16a17.09,17.09,0,0,0,7,3.55,88.72,88.72,0,0,0,17.64,3.33c-4.78,2.55-10.43,2.66-15.85,2.7l-11.75.11-38.59.33a2.72,2.72,0,0,1-2.25-.68,2.65,2.65,0,0,1-.4-1.52c-.5-8.58-1.23-18.61.65-27.07.86-3.91,2.64-3.41,4.25-.27A23,23,0,0,0,5.48,182.32Z"/></g><path class="cls-18" d="M-2.32,196.74l133.73,7.1-6.78-3.55s57.35-3,94.37-3.55c0,0,25.54,6.61,36.49,3.49,0,0-5.73,5.21-11,7.82L200,213.52S39.13,209.35-2.32,210.78Z"/><path class="cls-19" d="M191,136.09a37,37,0,0,1,17.87-3.93,18.19,18.19,0,0,1,5.68,14.37l11.27-2.87s-3.51-12.16-11.27-16C214.51,127.67,206.72,126.7,191,136.09Z"/><path class="cls-20" d="M230.46,143.05s9.48,10.58,9.43,24c0,0,5.73-10-4.71-24.88Z"/><path class="cls-21" d="M217.16,181.69s20.09-1.42,36.77,7.65c0,0,5.38,4.06,1.56,10.89,0,0,8.27-9.45,1.37-23.23C256.86,177,221.57,168.89,217.16,181.69Z"/><path class="cls-22" d="M294.86,216.39a34.27,34.27,0,0,1,12.51-13c8.6-5,35.58,7.12,40.86,13.05,0,0-8.54-15.91-16.1-19.73s-21.63-.16-26.85,4.53S294.86,216.39,294.86,216.39Z"/><path class="cls-23" d="M124.07,101s-1.25-2.81,2.52-4.24,8.47,3.13,8.47,3.13l-3,2.21s9.87-3.72,17.7,0,2,17,2,17l-5.67,2.63s2.45-2.42,11.84,2.55,17.29,21.21,17.29,21.21-3.84-19.55-16.68-26.59h-5.21s4.69-13-1.37-18.44-14.8-1.27-14.8-1.27-4-6-10.12-5.73-7.54,3.55-7.73,5.7S124.07,101,124.07,101Z"/><path class="cls-24" d="M55.57,127.09s22.34,4.12,31.88,17.12a8.93,8.93,0,0,0,3-6.22S84.27,123,55.57,127.09Z"/><path class="cls-25" d="M222.43,128.65c2.17.57,5,.17,5.89-1.89.74-1.7-.17-3.65-1.21-5.19a10.07,10.07,0,0,0-2.5-2.78,4.31,4.31,0,0,0-3.56-.76C215.57,119.55,218.07,127.5,222.43,128.65Z"/><path class="cls-26" d="M214.05,124.47a1.06,1.06,0,0,1-1.11-1.36,1.36,1.36,0,0,1,1.77-.71,1.94,1.94,0,0,1,1.07,1.72.92.92,0,0,1-1.66.21Z"/><path class="cls-27" d="M260.61,168.5a9,9,0,0,0,.31,4.71,1.82,1.82,0,0,0,.44.78,1.9,1.9,0,0,0,1.83.13,8.45,8.45,0,0,0,5.9-6.07,4,4,0,0,0-.24-2.53c-.8-1.61-3.05-2.07-4.71-1.36a7.85,7.85,0,0,0-3.61,3.86Z"/><path class="cls-28" d="M136.26,90.8a3.06,3.06,0,0,0,3.17,1A3.66,3.66,0,0,0,138,88.31c-1.13-.7-3-.17-3.2,1.15.38.42.75.85,1.12,1.28Z"/><path class="cls-29" d="M239.89,167c0,.23,0,.36,0,.36-9.22,3.87-25.86,5.4-34.82,6l-20.32-5.78c-5.15-1.46-10.37-3-14.92-5.78-5.21-3.23-9.28-8-14.44-11.34a30.61,30.61,0,0,0-24.51-3.62,37.16,37.16,0,0,0-24.33-8.26,49.09,49.09,0,0,1-8-.07c15.29-5.22,31-2.12,31-2.12a16.93,16.93,0,0,1-1-1.64h0l0,0c-.83-1.49-1.83-3.72-1.61-5.68a3.91,3.91,0,0,1,.33-1.26c1.57-3.38,7.82-6,7.82-6s-14.07-3.87-14.37-9.08c-.28-4.89,3-10.92,3.38-11.66l0-.07c-4.69-.26-4.43-4.7,0-7s11,6,11,6c6.52-2.62,16.16-1.57,18.25,3.91s0,15.11,0,15.11h5.21c9.39,6.78,16.68,26.59,16.68,26.59l-3.38,3.39h15.37c.64-3.32,1.47-6.4,2.15-8.67h0c.71-2.35,1.25-3.84,1.25-3.84s.25-.18.37-.27l.13-.09c12-8.45,23-6.42,23-6.42,6.25,2.35,11.73,14.08,11.73,14.08,9.38-1.56,9.12,0,9.12,0C240.79,153.3,240.08,164.85,239.89,167Z"/><path class="cls-30" d="M195.15,154.58s29.23-13,40-12.44c0,0,9.25,9.63,4.67,25.24,0,0-23.07,7.43-40.93,6.26Z"/><path class="cls-31" d="M137.14,135.72s-.77-9.79,21.38-16.83c0,0,13.95,14.5,16.68,26.59,0,0-6.44,11.14-17.29,16.13C157.91,161.61,134.37,153.36,137.14,135.72Z"/></g></g></g></svg>