<svg xmlns="http://www.w3.org/2000/svg" xmlns:xlink="http://www.w3.org/1999/xlink" viewBox="0 0 891 438"><defs><style>.cls-1{fill:none;}.cls-2{isolation:isolate;}.cls-3{clip-path:url(#clip-path);}.cls-10,.cls-11,.cls-12,.cls-13,.cls-14,.cls-15,.cls-16,.cls-17,.cls-18,.cls-19,.cls-20,.cls-21,.cls-22,.cls-23,.cls-24,.cls-25,.cls-26,.cls-4,.cls-5,.cls-6,.cls-7,.cls-8,.cls-9{fill-rule:evenodd;}.cls-4{fill:url(#_ÂÁ_Ï_ÌÌ_È_ËÂÌÚ_345);}.cls-5{fill:url(#_ÂÁ_Ï_ÌÌ_È_ËÂÌÚ_541);}.cls-6{fill:url(#_ÂÁ_Ï_ÌÌ_È_ËÂÌÚ_413);}.cls-7{fill:url(#_ÂÁ_Ï_ÌÌ_È_ËÂÌÚ_413-2);}.cls-8{fill:url(#_ÂÁ_Ï_ÌÌ_È_ËÂÌÚ_377);}.cls-18,.cls-19,.cls-20,.cls-9{mix-blend-mode:multiply;opacity:0.2;}.cls-9{fill:url(#_ÂÁ_Ï_ÌÌ_È_ËÂÌÚ_299);}.cls-10{fill:url(#_ÂÁ_Ï_ÌÌ_È_ËÂÌÚ_546);}.cls-11{fill:url(#_ÂÁ_Ï_ÌÌ_È_ËÂÌÚ_438);}.cls-12{fill:url(#_ÂÁ_Ï_ÌÌ_È_ËÂÌÚ_413-3);}.cls-13,.cls-23,.cls-25,.cls-26{mix-blend-mode:screen;}.cls-13{fill:url(#_ÂÁ_Ï_ÌÌ_È_ËÂÌÚ_441);}.cls-14{fill:#e3864f;}.cls-15{fill:url(#_ÂÁ_Ï_ÌÌ_È_ËÂÌÚ_261);}.cls-16{fill:url(#_ÂÁ_Ï_ÌÌ_È_ËÂÌÚ_261-2);}.cls-17{fill:url(#_ÂÁ_Ï_ÌÌ_È_ËÂÌÚ_445);}.cls-18{fill:url(#_ÂÁ_Ï_ÌÌ_È_ËÂÌÚ_299-2);}.cls-19{fill:url(#_ÂÁ_Ï_ÌÌ_È_ËÂÌÚ_299-3);}.cls-20{fill:url(#_ÂÁ_Ï_ÌÌ_È_ËÂÌÚ_299-4);}.cls-21{fill:url(#_ÂÁ_Ï_ÌÌ_È_ËÂÌÚ_547);}.cls-22{fill:url(#_ÂÁ_Ï_ÌÌ_È_ËÂÌÚ_547-2);}.cls-23,.cls-25,.cls-26{opacity:0.6;}.cls-23{fill:url(#_ÂÁ_Ï_ÌÌ_È_ËÂÌÚ_573);}.cls-24{fill:url(#_ÂÁ_Ï_ÌÌ_È_ËÂÌÚ_562);}.cls-25{fill:url(#_ÂÁ_Ï_ÌÌ_È_ËÂÌÚ_572);}.cls-26{fill:url(#_ÂÁ_Ï_ÌÌ_È_ËÂÌÚ_572-2);}</style><clipPath id="clip-path"><rect class="cls-1" width="891" height="438"/></clipPath><linearGradient id="_ÂÁ_Ï_ÌÌ_È_ËÂÌÚ_345" x1="665.4" y1="198.67" x2="665.4" y2="196.78" gradientUnits="userSpaceOnUse"><stop offset="0" stop-color="#ab3873"/><stop offset="0.66" stop-color="#743171"/><stop offset="1" stop-color="#543f97"/></linearGradient><linearGradient id="_ÂÁ_Ï_ÌÌ_È_ËÂÌÚ_541" x1="715.56" y1="242.71" x2="831.74" y2="41.47" gradientUnits="userSpaceOnUse"><stop offset="0" stop-color="#c23656"/><stop offset="0.44" stop-color="#743171"/><stop offset="0.8" stop-color="#543f89"/><stop offset="1" stop-color="#3f2468"/></linearGradient><linearGradient id="_ÂÁ_Ï_ÌÌ_È_ËÂÌÚ_413" x1="628.04" y1="191.43" x2="732.1" y2="191.43" gradientUnits="userSpaceOnUse"><stop offset="0" stop-color="#952063"/><stop offset="1" stop-color="#71245d"/></linearGradient><linearGradient id="_ÂÁ_Ï_ÌÌ_È_ËÂÌÚ_413-2" x1="704.04" y1="183.77" x2="810.05" y2="183.77" xlink:href="#_ÂÁ_Ï_ÌÌ_È_ËÂÌÚ_413"/><linearGradient id="_ÂÁ_Ï_ÌÌ_È_ËÂÌÚ_377" x1="732.1" y1="196.52" x2="895.36" y2="196.52" gradientUnits="userSpaceOnUse"><stop offset="0" stop-color="#ac2d63"/><stop offset="1" stop-color="#71245d"/></linearGradient><linearGradient id="_ÂÁ_Ï_ÌÌ_È_ËÂÌÚ_299" x1="732.1" y1="115.9" x2="782.64" y2="115.9" gradientUnits="userSpaceOnUse"><stop offset="0" stop-color="#702d63"/><stop offset="1" stop-color="#45245d"/></linearGradient><linearGradient id="_ÂÁ_Ï_ÌÌ_È_ËÂÌÚ_546" x1="663.23" y1="164.72" x2="663.23" y2="87.62" gradientUnits="userSpaceOnUse"><stop offset="0" stop-color="#e8a23b"/><stop offset="1" stop-color="#e27b70"/></linearGradient><linearGradient id="_ÂÁ_Ï_ÌÌ_È_ËÂÌÚ_438" x1="729.71" y1="159.17" x2="729.71" y2="126.11" gradientUnits="userSpaceOnUse"><stop offset="0" stop-color="#c14462"/><stop offset="1" stop-color="#942d6e"/></linearGradient><linearGradient id="_ÂÁ_Ï_ÌÌ_È_ËÂÌÚ_413-3" x1="606.81" y1="157.01" x2="841.44" y2="157.01" xlink:href="#_ÂÁ_Ï_ÌÌ_È_ËÂÌÚ_413"/><linearGradient id="_ÂÁ_Ï_ÌÌ_È_ËÂÌÚ_441" x1="687.06" y1="144.35" x2="719.19" y2="144.35" gradientUnits="userSpaceOnUse"><stop offset="0.01" stop-color="#dc3d0e"/><stop offset="0.17" stop-color="#b3320b"/><stop offset="0.58" stop-color="#531705"/><stop offset="0.86" stop-color="#170601"/><stop offset="1"/></linearGradient><linearGradient id="_ÂÁ_Ï_ÌÌ_È_ËÂÌÚ_261" x1="792.26" y1="128.9" x2="792.26" y2="101.94" gradientUnits="userSpaceOnUse"><stop offset="0" stop-color="#e48937"/><stop offset="1" stop-color="#d1656f"/></linearGradient><linearGradient id="_ÂÁ_Ï_ÌÌ_È_ËÂÌÚ_261-2" x1="796.27" y1="98.55" x2="796.27" y2="82.67" xlink:href="#_ÂÁ_Ï_ÌÌ_È_ËÂÌÚ_261"/><linearGradient id="_ÂÁ_Ï_ÌÌ_È_ËÂÌÚ_445" x1="800.3" y1="79.51" x2="800.3" y2="71.45" gradientUnits="userSpaceOnUse"><stop offset="0" stop-color="#b66d34"/><stop offset="1" stop-color="#d1656f"/></linearGradient><linearGradient id="_ÂÁ_Ï_ÌÌ_È_ËÂÌÚ_299-2" x1="841.42" y1="106.34" x2="841.42" y2="60.67" xlink:href="#_ÂÁ_Ï_ÌÌ_È_ËÂÌÚ_299"/><linearGradient id="_ÂÁ_Ï_ÌÌ_È_ËÂÌÚ_299-3" x1="837.18" y1="155.18" x2="837.18" y2="154.48" xlink:href="#_ÂÁ_Ï_ÌÌ_È_ËÂÌÚ_299"/><linearGradient id="_ÂÁ_Ï_ÌÌ_È_ËÂÌÚ_299-4" x1="851.68" y1="187.4" x2="851.68" y2="94.74" xlink:href="#_ÂÁ_Ï_ÌÌ_È_ËÂÌÚ_299"/><linearGradient id="_ÂÁ_Ï_ÌÌ_È_ËÂÌÚ_547" x1="658.17" y1="188.6" x2="658.17" y2="170.46" gradientUnits="userSpaceOnUse"><stop offset="0" stop-color="#e27b70"/><stop offset="1" stop-color="#e8a23b"/></linearGradient><linearGradient id="_ÂÁ_Ï_ÌÌ_È_ËÂÌÚ_547-2" x1="688.47" y1="175.98" x2="688.47" y2="170.18" xlink:href="#_ÂÁ_Ï_ÌÌ_È_ËÂÌÚ_547"/><linearGradient id="_ÂÁ_Ï_ÌÌ_È_ËÂÌÚ_573" x1="827.41" y1="137.18" x2="827.41" y2="106.35" gradientUnits="userSpaceOnUse"><stop offset="0"/><stop offset="0.14" stop-color="#040100"/><stop offset="0.28" stop-color="#0f0401"/><stop offset="0.41" stop-color="#230a02"/><stop offset="0.54" stop-color="#3e1104"/><stop offset="0.67" stop-color="#611b06"/><stop offset="0.8" stop-color="#8c2709"/><stop offset="0.93" stop-color="#be350c"/><stop offset="0.99" stop-color="#dc3d0e"/></linearGradient><linearGradient id="_ÂÁ_Ï_ÌÌ_È_ËÂÌÚ_562" x1="798.09" y1="132.88" x2="858.84" y2="132.88" gradientUnits="userSpaceOnUse"><stop offset="0.11" stop-color="#6f2063"/><stop offset="1" stop-color="#48245d"/></linearGradient><linearGradient id="_ÂÁ_Ï_ÌÌ_È_ËÂÌÚ_572" x1="710.56" y1="95.21" x2="763.6" y2="95.21" gradientUnits="userSpaceOnUse"><stop offset="0.01" stop-color="#dc3d0e"/><stop offset="0.07" stop-color="#be350c"/><stop offset="0.2" stop-color="#8c2709"/><stop offset="0.33" stop-color="#611b06"/><stop offset="0.46" stop-color="#3e1104"/><stop offset="0.59" stop-color="#230a02"/><stop offset="0.72" stop-color="#0f0401"/><stop offset="0.86" stop-color="#040100"/><stop offset="1"/></linearGradient><linearGradient id="_ÂÁ_Ï_ÌÌ_È_ËÂÌÚ_572-2" x1="790.66" y1="88.16" x2="815.49" y2="88.16" xlink:href="#_ÂÁ_Ï_ÌÌ_È_ËÂÌÚ_572"/></defs><g class="cls-2"><g id="_ÎÓÈ_1" data-name="—ÎÓÈ_1"><g class="cls-3"><path class="cls-4" d="M671.71,198.67H659.09a13.65,13.65,0,0,1,6.48-1.88A8.89,8.89,0,0,1,671.71,198.67Z"/><path class="cls-5" d="M761.44,190.82c2.94-2,13.39-2.46,18.41-2.54-10,.05-44.25.18-46.73-.7-2.9-1-2.73-3.24-2.73-3.24-2.73,1-6.31,2-6.31,2s9.38,5.28,8,6.31-13.65,0-42.82.51-61.24-1-61.24-1,1.7-4.44,5.12-4.95,7.67,1.36,7.67,1.36l.52-1.53c.51-1.54,9-14,13.3-15.52s14.16-.51,16,.85a20.89,20.89,0,0,1,3.59,3.58c2.73-3.58,7.16,0,7.16,0s-.34-4.61,2.73-5.29,10.07,1.19,10.07,1.19a9.07,9.07,0,0,1-4.44-5.79c-4.43.68-19.62,1.53-19.62,1.53-4.94.34-19.1.17-19.1.17-4.78,2.22-14.33-2.73-14.33-2.73a43.4,43.4,0,0,0-11.09-.17c-2.35.33-18.93,1.2-18.84-.17.24-4.09,5.53-7.16,16.45-9.89,2.92-.73,10.07,4.52,10.4,4.76a13.47,13.47,0,0,1-1.08-1.41c-1.12-1.66-2.65-4.58-2.23-7.71a7.88,7.88,0,0,1,.93-2.81c3.24-5.8,14-8.18,19.11-8.53s10.91,3.58,10.91,3.58a4.92,4.92,0,0,1,0-5.45c1.88-2.9,5.46-4.61,8.36-3.41s2.73,5.63,2.73,5.63h4.44c.68-7.68,7.85-10.92,7.85-10.92v-2.39s-5.12,1.37-8-.34-5.12-7.68,0-14,20.12-10.75,23.88-9.55,4.77,6.31,4.77,6.31l6,1s-.15-.67-.33-1.74c-.52-3.09-1.32-9.55.33-13.1,2.21-4.78,8.35-7.16,8.35-7.16a4.69,4.69,0,0,1-2-4.27c.34-2.73,2.21-4.26,5.63-4.61a20,20,0,0,1,6.48.52l3.41-1.59s-1.54-4.89,0-7.79,6.65-7,11.94-6S753.25,73,753.25,73a30.76,30.76,0,0,1,20,7.19,27.85,27.85,0,0,1,9,13.45c2.9,10.23-.17,21.15-2.56,23.71s-13.13,4.43-13.13,4.43L765,125.49s4.61-1.2,7.5-.34,4.61,6.65,4.61,6.65a7.68,7.68,0,0,1,4.27-5.46,9.56,9.56,0,0,1,9.89,2.56l-.34-5.63c-3.92,1.53-5.63,0-5.63,0-3.07-5.46-1.71-15.36,2.9-18.59S802,102.63,802,102.63a10,10,0,0,0,1.19-6.49c-2.56,2.74-11.77,3.76-13.48-2s3.59-11.43,3.59-11.43-3.93-4.61,1.19-8.36,15-2.22,15-2.22l3.92-6.65s-1.87-4.26,0-6.65,6.66-2.56,6.66-2.56c6-4.78,22.69-10.06,27.46-5.46,1.8,1.73,3,5.61,3.57,9.9,1,7.13.25,15.43-2.2,17a29.11,29.11,0,0,1-8.87,3.46l1.36,8.54A19,19,0,0,1,847,82.44c4.79-3.94,10.81-5.77,13.23-4.77,3.26,1.35,2.28,5.91,2.07,6.74.2-.58,1.26-2.93,5.59-2.91a6.63,6.63,0,0,1,6.31,4.41s6.49-6.14,14.68-3.92c5.87,1.59,6.56,8.79,6.48,12.74h0a22.37,22.37,0,0,1-.17,2.6l.15,85.15h0l0,16.18H671.71c13.48-2.73,56.12-1.2,56.12-1.2s3.75-3.58,12.63-4.6a80.94,80.94,0,0,1,18.25.34Z"/><path class="cls-6" d="M628,192.19s15.68-3.42,27.63-3.76,25.08,3.76,25.08,3.76,45-.86,51.35.51c0,0-17.23,1.8-52.8,1.75S628,192.19,628,192.19Z"/><path class="cls-7" d="M724.08,186.39H704s22.43-3.76,25.5-3.93L728,180.59s17.4-3.42,32.58,0l-1.53,2.14,51,3.66-31.21,2s-35,.36-45.72-.83a9.48,9.48,0,0,1-2.73-3.24Z"/><path class="cls-8" d="M732.1,198.67s35.31-5,83.75-4.22l-5.8,2.07h33.44L838,194.45l57.15-.09.18,4.31Z"/><path class="cls-9" d="M766.56,121.73s-12.46.78-34.46-2.76c0,0,25-11.2,50.45-8.57C782.55,110.4,784.81,118.83,766.56,121.73Z"/><path class="cls-10" d="M606.81,164.72s1.62-8.53,16.45-9.89c0,0,5.44-1.22,10.4,4.76,0,0-5.45-4.42-2.38-11.93s8.53-8.18,11.94-9.21l-2.56-2.56s-1.53-2.56,2.56-5.63c0,0,2.56.34,2.39,3.76l-1.9,6.23s5.27-2.83,10.43-2.14a9.65,9.65,0,0,1,7.16,4.6s-3.75-6,4.1-8.81,7,5.58,7,5.58h4.44s-1.19-6.83,7.85-10.92v-2.39s-12.8,4.78-13-6.65,21.83-19.62,28.66-18.6,4.94,7.68,4.94,7.68l6,1s-7.68-17.91,8.35-22c0,0-14.15,2.56-6.31,23.88l-8-1.5s.57-10.42-10.89-7.31-22.48,14-17.67,19.11,9.8,2,9.8,2l-1,6.25a9.25,9.25,0,0,0-7.94,9.9l3.5.85-11.6,1.54,2.13-2.14s.1-7.67-6-5.29-2.42,8.53-2.42,8.53l-3.21.94s-7-5.9-17.65-1.79-11.6,12.16-7.42,17.59l-8.79,1.09s3.16-3.91-5.88-4.3S606.81,164.72,606.81,164.72Z"/><path class="cls-11" d="M687.06,158.42s7.34-20.14,24.4-26.62,29.68,6.77,29.68,6.77,4.1-11.08,16.23-12.4,15,21.49,15,21.49l-25.08,5-11.6,6.56Z"/><path class="cls-12" d="M606.81,164.72s21.49-6.31,37.09-4v1.75h47.6s-4.78-1.48-4.44-4,39.64-6.38,56.53-5.36l-.15-3.65s15.87-6.86,28.92-1.75l-3.88,2.94s24.86,7.13,73,4.06c0,0-103.65,9.46-151.65,11.43,0,0-34.49,3.27-45.56,1.76,0,0-1.26,1.83-7.49-2.79Z"/><path class="cls-13" d="M687.06,158.42s8.76-23.86,30.22-28.14c0,0,4.29,1.09,0,23.43Z"/><path class="cls-14" d="M634.25,133.26c-1-.89-1.89-1.8-2.79-2.74a1.29,1.29,0,0,1-.36-.54c-.13-.51.38-.93.86-1.15a4.44,4.44,0,0,1,3.94-.08,2.81,2.81,0,0,1,1.35,3.46,2.07,2.07,0,0,1-3.36.48Z"/><path class="cls-14" d="M636.68,135.68c-.08-.17-.37,0-.33.18s.25.26.43.28a1.43,1.43,0,0,0,1.49-1.21,1.91,1.91,0,0,0-1.43-.2c-.47.18-.74.85-.38,1.19Z"/><path class="cls-15" d="M791.29,128.9a55.87,55.87,0,0,1,2.81-7.1L791,123.27s-6.14-7.08-4.18-14S802,102.63,802,102.63s-10.92-3.07-16.72,3.75-1.19,16.14.51,17.46,5.15,0,5.15,0Z"/><path class="cls-16" d="M803.23,96.14s-6.74,2.65-9.72-1.53-.17-11.94-.17-11.94-5.63,5.2-3.59,11.43S799.9,99,803.23,96.14Z"/><path class="cls-17" d="M792,79.51s5.73-9,16.7-7.53C808.65,72,791.72,68.47,792,79.51Z"/><path class="cls-18" d="M849,77.67a29.11,29.11,0,0,1-8.87,3.46l1.36,8.54A19,19,0,0,1,847,82.44a33.75,33.75,0,0,0-8.21,23.9,45.15,45.15,0,0,0-7.5-6.85c3,.86,6.2-1.58,7.26-4.53s.54-6.22-.08-9.3c-1-4.81-2.21-9.7-5.07-13.68,4.21,2.7,10.13,1.07,13.64-2.49,2.23-2.28,3.05-5.78,4.12-8.82C852.12,67.8,851.4,76.1,849,77.67Z"/><path class="cls-19" d="M833.34,155.18a68.44,68.44,0,0,1,7.69-.7C838.47,154.79,835.9,155,833.34,155.18Z"/><path class="cls-20" d="M895.18,97.34l.15,85.15h0a17.61,17.61,0,0,0-.14,4.18,91.82,91.82,0,0,0-10.75.39,24.88,24.88,0,0,0-17.91-8.15,33.55,33.55,0,0,0-19.1,5.68,18,18,0,0,1-4.37,2.41,14.55,14.55,0,0,1-4.32.4q-15.37-.17-30.73-1l13-1.74c.55-2-1.86-3.53-3.9-3.67s-4.28.37-6-.7l17.33-3.5a11.18,11.18,0,0,0-4.87,6l14.84,1.92a10.94,10.94,0,0,0,8.09-1.45l7-3.42c1.86-.91,3.85-1.94,4.75-3.8.78-1.62.56-3.52.32-5.29-.5-3.7-1.06-7.56-3.26-10.56-2.35-3.19-6.26-4.92-10.18-5.46a27,27,0,0,0-4.12-.23,47.72,47.72,0,0,0,11.28-2.57c6-2.3,11.57-6.67,13.72-12.74-.31,4-.1,9,3.51,10.7a8.25,8.25,0,0,0,5.51.19c6.35-1.52,12.11-6.19,13.92-12.46s-1.08-13.86-7-16.52a4.49,4.49,0,0,0-2.32-.5A5.17,5.17,0,0,0,877,122a60.19,60.19,0,0,0-6.32,6.55,20.92,20.92,0,0,0,4.39-14.47c3,2.4,7.56,1.72,10.61-.57s4.89-5.82,6.51-9.28a34.11,34.11,0,0,0,3.18-9.47A22.37,22.37,0,0,1,895.18,97.34Z"/><path class="cls-21" d="M640.83,188.6s4.74-10.36,12.29-12.53,18.59-1.28,18.59-1.28l3.79,2.83a18.59,18.59,0,0,0-4.82-5.22c-3-2.09-11.29-3-17.31-.17S640.83,188.6,640.83,188.6Z"/><path class="cls-22" d="M681.43,176s-.06-2.31,1.71-3.11c5.33-2.41,13-.51,13-.51s-6.73-3.46-11.94-1.67S681.43,176,681.43,176Z"/><path class="cls-23" d="M800.3,121.8c3.12-3.89,9.43-5.15,15.17-.19,5.53-6.53,14.38-16.9,22.73-15a24.13,24.13,0,0,1,17.66,16.87c3,.17,4.4,4.39,3,7.09s-4.42,4.11-7.23,5.29c-9.38,4-26.05-2.13-36.14-.77C800.61,137.06,788.2,136.89,800.3,121.8Z"/><path class="cls-24" d="M798.09,135.4s30.2-6.24,60.75-4.87C858.84,130.53,851.61,135.82,798.09,135.4Z"/><path class="cls-25" d="M713.33,111.5s18.77,12.34,47-.91c0,0,7.61-28.79-.32-36.89a123.18,123.18,0,0,0-32.26,9C711.62,89.83,706.92,94,713.33,111.5Z"/><path class="cls-26" d="M793.34,82.67s4.46-5.77,16.39-2.89c0,0,6-.38,5.75,11,0,0-12.05,7.47-19.83,6.52C795.65,97.26,786.17,93.25,793.34,82.67Z"/></g></g></g></svg>