<svg xmlns="http://www.w3.org/2000/svg" xmlns:xlink="http://www.w3.org/1999/xlink" viewBox="0 0 891 438"><defs><style>.cls-1{fill:none;}.cls-2{isolation:isolate;}.cls-3{clip-path:url(#clip-path);}.cls-4{fill:url(#linear-gradient);}.cls-5{opacity:0.34;fill:url(#_ÂÁ_Ï_ÌÌ_È_ËÂÌÚ_146);}.cls-13,.cls-15,.cls-26,.cls-6,.cls-7,.cls-8{fill:#994c9f;}.cls-13,.cls-15,.cls-22,.cls-23,.cls-25,.cls-26,.cls-6,.cls-7,.cls-8{mix-blend-mode:multiply;}.cls-6{opacity:0.27;}.cls-7{opacity:0.15;}.cls-8{opacity:0.1;}.cls-9{fill:url(#_ÂÁ_Ï_ÌÌ_È_ËÂÌÚ_17);}.cls-10,.cls-14{fill:#db8b9b;}.cls-11{mix-blend-mode:screen;opacity:0.36;fill:url(#_ÂÁ_Ï_ÌÌ_È_ËÂÌÚ_127);}.cls-12{opacity:0.42;fill:url(#_ÂÁ_Ï_ÌÌ_È_ËÂÌÚ_146-2);}.cls-13{opacity:0.09;}.cls-14{opacity:0.79;}.cls-15{opacity:0.26;}.cls-16{fill:url(#_ÂÁ_Ï_ÌÌ_È_ËÂÌÚ_127-2);}.cls-17{fill:url(#_ÂÁ_Ï_ÌÌ_È_ËÂÌÚ_127-3);}.cls-18{fill:url(#_ÂÁ_Ï_ÌÌ_È_ËÂÌÚ_127-4);}.cls-19{fill:url(#_ÂÁ_Ï_ÌÌ_È_ËÂÌÚ_127-5);}.cls-20{fill:url(#_ÂÁ_Ï_ÌÌ_È_ËÂÌÚ_135);}.cls-21{fill:url(#_ÂÁ_Ï_ÌÌ_È_ËÂÌÚ_135-2);}.cls-22{fill:#bb4269;}.cls-22,.cls-23,.cls-25{opacity:0.2;}.cls-23{fill:url(#_ÂÁ_Ï_ÌÌ_È_ËÂÌÚ_136);}.cls-24{fill:url(#_ÂÁ_Ï_ÌÌ_È_ËÂÌÚ_127-6);}.cls-25{fill:url(#_ÂÁ_Ï_ÌÌ_È_ËÂÌÚ_136-2);}.cls-26{opacity:0.14;}</style><clipPath id="clip-path"><rect class="cls-1" width="891" height="438"/></clipPath><linearGradient id="linear-gradient" x1="408.28" y1="395.58" x2="379.17" y2="187.24" gradientUnits="userSpaceOnUse"><stop offset="0" stop-color="#6971ad"/><stop offset="1" stop-color="#db8b8b"/></linearGradient><linearGradient id="_ÂÁ_Ï_ÌÌ_È_ËÂÌÚ_146" x1="202.28" y1="154.83" x2="204.58" y2="182.41" gradientUnits="userSpaceOnUse"><stop offset="0" stop-color="#993c81"/><stop offset="1" stop-color="#3d1769"/></linearGradient><linearGradient id="_ÂÁ_Ï_ÌÌ_È_ËÂÌÚ_17" x1="685.12" y1="312.71" x2="383.85" y2="116.62" gradientUnits="userSpaceOnUse"><stop offset="0" stop-color="#6971ad"/><stop offset="1" stop-color="#db8b9b"/></linearGradient><linearGradient id="_ÂÁ_Ï_ÌÌ_È_ËÂÌÚ_127" x1="468.55" y1="46.5" x2="537.86" y2="81.39" gradientUnits="userSpaceOnUse"><stop offset="0" stop-color="#f8e9c3"/><stop offset="0.99" stop-color="#eaabc9"/></linearGradient><linearGradient id="_ÂÁ_Ï_ÌÌ_È_ËÂÌÚ_146-2" x1="584.35" y1="94.77" x2="586.64" y2="103.41" xlink:href="#_ÂÁ_Ï_ÌÌ_È_ËÂÌÚ_146"/><linearGradient id="_ÂÁ_Ï_ÌÌ_È_ËÂÌÚ_127-2" x1="512.58" y1="113.82" x2="674.03" y2="166.35" xlink:href="#_ÂÁ_Ï_ÌÌ_È_ËÂÌÚ_127"/><linearGradient id="_ÂÁ_Ï_ÌÌ_È_ËÂÌÚ_127-3" x1="682.76" y1="78.82" x2="690.87" y2="106.05" xlink:href="#_ÂÁ_Ï_ÌÌ_È_ËÂÌÚ_127"/><linearGradient id="_ÂÁ_Ï_ÌÌ_È_ËÂÌÚ_127-4" x1="640.18" y1="91.5" x2="648.29" y2="118.73" xlink:href="#_ÂÁ_Ï_ÌÌ_È_ËÂÌÚ_127"/><linearGradient id="_ÂÁ_Ï_ÌÌ_È_ËÂÌÚ_127-5" x1="410.94" y1="28.5" x2="501.5" y2="69.85" xlink:href="#_ÂÁ_Ï_ÌÌ_È_ËÂÌÚ_127"/><linearGradient id="_ÂÁ_Ï_ÌÌ_È_ËÂÌÚ_135" x1="384.24" y1="79.7" x2="493.52" y2="129.59" gradientUnits="userSpaceOnUse"><stop offset="0" stop-color="#f8e9c3"/><stop offset="0.99" stop-color="#f6dfcb"/></linearGradient><linearGradient id="_ÂÁ_Ï_ÌÌ_È_ËÂÌÚ_135-2" x1="371.76" y1="107.83" x2="483.91" y2="159.03" xlink:href="#_ÂÁ_Ï_ÌÌ_È_ËÂÌÚ_135"/><linearGradient id="_ÂÁ_Ï_ÌÌ_È_ËÂÌÚ_136" x1="455.08" y1="14.06" x2="477.98" y2="45.72" gradientUnits="userSpaceOnUse"><stop offset="0" stop-color="#f8e9c3"/><stop offset="1" stop-color="#a579e2"/></linearGradient><linearGradient id="_ÂÁ_Ï_ÌÌ_È_ËÂÌÚ_127-6" x1="446.83" y1="99.14" x2="524.14" y2="81.3" xlink:href="#_ÂÁ_Ï_ÌÌ_È_ËÂÌÚ_127"/><linearGradient id="_ÂÁ_Ï_ÌÌ_È_ËÂÌÚ_136-2" x1="467.92" y1="30.66" x2="532.24" y2="106.75" xlink:href="#_ÂÁ_Ï_ÌÌ_È_ËÂÌÚ_136"/></defs><g class="cls-2"><g id="_ÎÓÈ_1" data-name="—ÎÓÈ_1"><g class="cls-3"><path class="cls-4" d="M-122,286s210-55,231-67,54-46,54-46l12-25s13-3,20-3,13,7,13,7l15,5s18,29,34,43,64,29,64,29,38-18,42-23,21-20,21-20l14,5s10.08,21,48.54,28S526,226,526,226l95.08-14.71L681,164h19l76,65,123-7-31,64H-122Z"/><path class="cls-5" d="M179,153l8,15,26,12,14-6s-7-9-7-10a43.31,43.31,0,0,0-1-5l-5-2-8,1a11.79,11.79,0,0,0-10-5Z"/><polygon class="cls-6" points="385 187 386 192 392 196 396 192 385 187"/><path class="cls-7" d="M-57,280S81,256,86,251s30-19,30-19l20-17,35-30,8-14,3,5,28,16,20-4,5-5-7-14s15,19,18,21,15,15,19,18,38,18,38,18l40,10s18-15,19-16,5-9,6-10,9-8,9-8l4-9,11,4,6-3s6,9,11,12,31,15,31,15l18,1,199-23,24-32,10,4h9v-4l31,23.46L773,239,138.57,278.3Z"/><polygon class="cls-8" points="59 275 119 257 147 232 172 223 198 196 195 219 201 229 239 236 240 202 236 188 265 212 298 235 343 247 376 239 389 228 392 202 398 197 403 207 420 222 454 229 618 232 688 212 703 183 701 173 746 205 753 261 59 275"/><path class="cls-9" d="M856.69,256.05c-2.06-1.66-301.52,9.06-301.52,9.06L552,266l-125-6.69-32.68,5.79H322.72L354,239l30,11s15.3-2.24,41.11-17.82l.14-.08.24-.15c9.46-5.71,19.59-12,29.63-18.39l0,0c27.45-17.56,54.16-36.37,64.46-48.94,24.4-29.77,31.44-64.1,31.44-64.1s5.38,2.06,15.3,0c9.12-1.9,38.5-21.25,43.21-24.39l.64-.42s25.64,58.32,31.43,67.83,67.41,75.7,82.3,80.66,31.85-6.61,31.85-6.61l12.82,4.14,21.92,14.89,59.14,7.86S858.76,257.7,856.69,256.05Z"/><path class="cls-10" d="M609.56,76.11l-1.21,6.81-.05.06h0L594.16,99.72,593,94.49l-16.89,10.7s-4.86-2.94-7.75-2.11c-1.78.51-6.72-.32-10.27-1-1.17-.23-2.17-.45-2.88-.61h0l-1-.24-18.47,46.85,3.72-1.24S525.4,167.09,518,173.29c-4.49,3.75-37.42,24.45-62.8,40.25,27.45-17.56,54.16-36.37,64.46-48.94,24.41-29.78,31.44-64.11,31.44-64.11a17.37,17.37,0,0,0,4.55.84,38.46,38.46,0,0,0,10.75-.83c4.1-.86,12.28-5.23,20.48-10.07C596.89,84.49,607,77.84,609.56,76.11Z"/><path class="cls-11" d="M603.35,89.77c-5.25,6.67-7.77-2.9-7.77-2.9S591,85,590.72,91.2s6,11.48,6,11.48a21,21,0,0,1-1.47,1.5c-4.3-6.93-11.15-18.32-12.44-22.51-.05-.16-.09-.32-.13-.48a4.44,4.44,0,0,1,7.06-4.55,2.61,2.61,0,0,0,2.84.5c3.82-1.91,4.29-15-1-17.4S580,69.51,581.42,81.67c1.1,9.36,7.17,20.81,9.9,25.59a15.74,15.74,0,0,1-7.26,2.58,47.23,47.23,0,0,1-14-1.62s-8.46-35.61-27.76-41.8-38.13,9.77-38.13,9.77-6.44,16.68-21.69,16.92-9.77-11.44-9.77-11.44-67.68,5.72-76.26,0c-12.52-8.35,33.09-9.85,35.17-10-1.56.14-21.07,2-20.16,3.56s48.38,1.91,48.38,1.91-3.81-20,10-23.36,21.77,11,21.77,11S492.29,1.59,518.51,3s30,31.7,30,31.7,11-7.63,18.12,1.19a17.53,17.53,0,0,1,2.86,17.87c.3-.31,28.28-29.48,33.84-3.09,3.81,18.11,0,27.88,0,27.88S608.59,83.1,603.35,89.77Z"/><path class="cls-12" d="M609.37,82.3l-.66,1.22c-3,5.51-15.82,27.73-24.16,27.73-8.94,0-24.57-8.21-26.42-9.19l-.19-.1s13.38-.22,18.34-1c4.38-.73,26.81-14.67,32-17.93h0l.06,0Z"/><path class="cls-13" d="M609.37,94.3s13.23,46.32,15.3,50.46,14.47,9.1,14.47,9.1L705,214l13.14,20.94H731L682,270l-105.93-1.12-6.21,2.89-18-12.45H511.2L536,236s88-30,96-25c2.89,1.81-2-26-2-26l18.71,13.39-2.89-7.45-12.88-33.77-14.48-8.69Z"/><path class="cls-13" d="M586.2,116.43s-.41,6.62-2.89,26.06-14.07,62.87-14.07,62.87l-16.55,11.16L549,221.9l52-6.71-23-2-3.39-3.69L592.4,164h-5l.83-20.68Z"/><polygon class="cls-13" points="603.57 143.52 609.36 176.61 620.94 202.67 612.26 174.54 603.57 143.52"/><path class="cls-13" d="M573,146.82s-2.07,17-2.07,21.1-11.17,30.19-11.17,30.19v-7.86L532,234.92,494,249.39l-62.46,2.06,72.38-16.12,24-15.72,32.69-57.48,8.27-.42Z"/><polygon class="cls-14" points="755.78 218.81 738.4 225.84 742.54 225.84 767.39 221.43 755.78 218.81"/><polygon class="cls-15" points="659.4 257.68 789.28 237.43 847.18 244.13 659.4 257.68"/><path class="cls-16" d="M601,137.52l-21.8,3.93L551.46,139s.34-.36.9-.92a54,54,0,0,1,4.45-4.06h0c1.45-1.15,2.86-2,3.74-2,2.48,0,6.2,4.14,6.2,4.14a5.79,5.79,0,0,1,3.31-1.66c1.66,0,5.79,2.9,5.79,2.9s.21-.56.65-1.43a20.62,20.62,0,0,1,5.12-6.65,11.66,11.66,0,0,1,6.23-2.67c7.82-.78,12.57,9.71,13.07,10.86Z"/><polygon class="cls-17" points="723.94 125.74 672.05 128.36 672.04 128.36 670.34 128.44 690.85 119.95 699.06 116.64 697.84 119.55 697.83 119.55 695.4 125.33 723.94 125.74"/><path class="cls-18" d="M662.72,122.84l-13.65,2.9-12.17-.94h0s2.25-5.27,5.14-5.27c2.28,0,7.91,2.57,10.19,3.66l1,.48a3.94,3.94,0,0,1-.28-.56c-.43-1-.94-3,1.52-3.58s5.5,1.31,7.16,2.47C662.29,122.48,662.72,122.84,662.72,122.84Z"/><path class="cls-10" d="M609.47,84.78l-2.24,13.44s-8.22,7.85-8.59,7.85a8.7,8.7,0,0,0-3.36,2.24,16.13,16.13,0,0,0-.75,3L593,109.43a10,10,0,0,0-3.74,1.49c-1.49,1.12-11.2,3.36-11.2,3.36l-4.48-4.11s0,1.87-.74,1.12-17.31-9.66-17.63-9.84c.71.16,1.71.38,2.88.61,1.85,1,17.48,9.19,26.42,9.19,8.34,0,21.12-22.22,24.16-27.73Z"/><path class="cls-19" d="M588.79,109.69l-.65.17L583,111.25s-19.68-39.09-59.78-44.83c-24.82-3.55-70.88-3.71-102.36-3.31-19.39.24-33.26.69-33.26.69l18.23-2.08s10-22.39,21.87-21.89c12.21.51,22.28,11.13,22.6,11.46-.41-.56-24.64-34.12,18.24-36a56.22,56.22,0,0,1,12.7.83h0A44.95,44.95,0,0,1,515,44s8.14-6.25,14.7,0a25,25,0,0,1,3.52,4.15,0,0,0,0,0,0,0A22.62,22.62,0,0,1,537,57.56a4.93,4.93,0,0,1,.63-.5c1.77-1.26,7.28-4.15,16.14.5l.25.13a13,13,0,0,1,1.66,1.16h0c.57.46,1.16,1,1.78,1.61h0C569.37,72.24,588.79,109.69,588.79,109.69Z"/><path class="cls-20" d="M408.4,67.51c-.59,0-12.09,1.08-27.46,1.91-19.72,1.06-45.8,1.8-63.35-.29l-.16,0c-1.74-.21-3.39-.44-4.94-.71-8.23-1.42-13.68-3.68-14.17-7.16C296,45.18,326.25,32.64,336.1,35.93s12.62,15,10.18,17a11.44,11.44,0,0,1-5.9,2.13l12.23.69s4.6-7,11-3.6-4.65,6.43-.81,10.61S379.89,69.4,408.4,67.51Z"/><path class="cls-21" d="M331.93,64.17c-.76,0-125,1.92-105.93,1.64s20.65-11.75,31.36-9.29c6.71,1.54,6.88,6,6.88,6s.39-1.36,2.68-1.91c4.72-1.12,8.8,3,8.8,3Z"/><path class="cls-22" d="M380.94,69.42c-19.72,1.06-45.8,1.8-63.35-.29l-.16,0c-.58-.06-2.59-.27-4.94-.71-5.37-1-12.52-3.19-8.35-7.29,6.29-6.18,32-.13,32.53,0-.24-.13-5.45-3.13-1.18-4S351.36,62,351.36,62s9.12,6.24,24.2,7.09C377.37,69.15,379.17,69.28,380.94,69.42Z"/><path class="cls-23" d="M588.79,109.66l-.65.18C571.15,83.1,564.28,79,558.48,76c-29.33-15.49-80.67-14.57-80.67-14.57l-57,1.7s5.33-14.81,18.67-12.9a90.05,90.05,0,0,1,23.33,6.67c-.32-.27-13.25-11.23-6.33-14.06a12.25,12.25,0,0,1,12,1.2s-16.9-29.73,12.71-27.86h0A44.08,44.08,0,0,1,505.39,29c7.73,10.16,9.09,22.6,9.09,22.6s3.67-10.25,12.67-7.62a12.49,12.49,0,0,1,6.1,4.14v0A24.42,24.42,0,0,1,537.65,57c.36,1.33.5,2.21.5,2.21a12.85,12.85,0,0,0,14,2.14c2-.85,2.4-2.18,1.89-3.72a4.6,4.6,0,0,0-.22-.53l1.88,1.69h0l1.78,1.61h0C569.37,72.21,588.79,109.66,588.79,109.66Z"/><path class="cls-24" d="M573.82,110.33c-1.64-2.13-22.08-28.44-36.07-32.44-14.58-4.17-33.54,7.81-40.1,6.77s-3-5.08-2.92-5.21c-.55.07-50.92,6.91-51-5.74-.08-8.28,8.43-10.36,16.77-10.43h0A77.11,77.11,0,0,1,476.15,65s-6.21-5.87-.37-8,11.66,2.09,11.66,2.09a17.1,17.1,0,0,1-1.39-3.46c-.83-3-.79-7,5-7a19.12,19.12,0,0,1,10.53,3.45c.57.37,1.09.75,1.58,1.13A27.88,27.88,0,0,1,506,55.79c.73.75,1.12,1.25,1.12,1.25s0-.2,0-.56c-.07-2.81.22-15.29,11.58-11.91a23.89,23.89,0,0,1,3.76,1.52c16.77,8.34,7.29,19.81,7.29,19.81a26.65,26.65,0,0,1,13.12,5.73c1.88,1.49,5.21,5.29,9,10C560.9,92.68,572.62,108.68,573.82,110.33Z"/><path class="cls-25" d="M551.86,81.59h0s-11-8.74-17.38-10.65-18.33-2.14-18.33-2.14,2-6.91-9-6.67-7.43,7.2-7.34,7.38c-.15-.14-4-3.55-6-2.62s0,2.62,0,2.62-9,3.1-24.66,2.86-18.38-8.41-8.69-9.09h0A77.11,77.11,0,0,1,476.15,65s-6.21-5.87-.37-8,11.66,2.09,11.66,2.09a17.1,17.1,0,0,1-1.39-3.46c3.59,1.84,8.92,3.68,12.76,1.22a5.28,5.28,0,0,0,2.81-4.74,5.56,5.56,0,0,0-.1-1,21.14,21.14,0,0,0,1.68,2.13A16.27,16.27,0,0,0,506,55.79c.35.24.71.48,1.09.69a12.51,12.51,0,0,0,4.71,1.59c9.34,1.2,10.67-7.62,10.67-9.77,0-1.13-2-2.6-3.8-3.73a23.89,23.89,0,0,1,3.76,1.52c16.77,8.34,7.29,19.81,7.29,19.81a26.65,26.65,0,0,1,13.12,5.73C544.73,73.12,548.06,76.92,551.86,81.59Z"/><path class="cls-26" d="M339,262l11-16,4-7s25,12,28,13,17-2,17-2l30-2-20,18Z"/><polygon class="cls-6" points="683 165 691 169 699 170 700 165 683 165"/></g></g></g></svg>