<svg xmlns="http://www.w3.org/2000/svg" xmlns:xlink="http://www.w3.org/1999/xlink" viewBox="0 0 891 438"><defs><style>.cls-1{fill:none;}.cls-2{isolation:isolate;}.cls-3{clip-path:url(#clip-path);}.cls-4{fill:url(#_ÂÁ_Ï_ÌÌ_È_ËÂÌÚ_127);}.cls-5{fill:url(#_ÂÁ_Ï_ÌÌ_È_ËÂÌÚ_127-2);}.cls-6{fill:url(#_ÂÁ_Ï_ÌÌ_È_ËÂÌÚ_127-3);}.cls-7{fill:url(#_ÂÁ_Ï_ÌÌ_È_ËÂÌÚ_127-4);}.cls-8{fill:url(#_ÂÁ_Ï_ÌÌ_È_ËÂÌÚ_127-5);}.cls-9{fill:url(#_ÂÁ_Ï_ÌÌ_È_ËÂÌÚ_127-6);}.cls-10,.cls-13{mix-blend-mode:multiply;opacity:0.2;}.cls-10{fill:url(#_ÂÁ_Ï_ÌÌ_È_ËÂÌÚ_136);}.cls-11{fill:url(#_ÂÁ_Ï_ÌÌ_È_ËÂÌÚ_127-7);}.cls-12{fill:url(#_ÂÁ_Ï_ÌÌ_È_ËÂÌÚ_127-8);}.cls-13{fill:url(#_ÂÁ_Ï_ÌÌ_È_ËÂÌÚ_136-2);}</style><clipPath id="clip-path"><rect class="cls-1" width="891" height="438"/></clipPath><linearGradient id="_ÂÁ_Ï_ÌÌ_È_ËÂÌÚ_127" x1="627.4" y1="95.31" x2="635.51" y2="122.54" gradientUnits="userSpaceOnUse"><stop offset="0" stop-color="#f8e9c3"/><stop offset="0.99" stop-color="#eaabc9"/></linearGradient><linearGradient id="_ÂÁ_Ï_ÌÌ_È_ËÂÌÚ_127-2" x1="512.57" y1="113.85" x2="674.02" y2="166.38" xlink:href="#_ÂÁ_Ï_ÌÌ_È_ËÂÌÚ_127"/><linearGradient id="_ÂÁ_Ï_ÌÌ_È_ËÂÌÚ_127-3" x1="511.16" y1="118.18" x2="672.56" y2="170.69" xlink:href="#_ÂÁ_Ï_ÌÌ_È_ËÂÌÚ_127"/><linearGradient id="_ÂÁ_Ï_ÌÌ_È_ËÂÌÚ_127-4" x1="512.97" y1="112.6" x2="674.42" y2="165.13" xlink:href="#_ÂÁ_Ï_ÌÌ_È_ËÂÌÚ_127"/><linearGradient id="_ÂÁ_Ï_ÌÌ_È_ËÂÌÚ_127-5" x1="684.98" y1="83.98" x2="693.09" y2="111.21" xlink:href="#_ÂÁ_Ï_ÌÌ_È_ËÂÌÚ_127"/><linearGradient id="_ÂÁ_Ï_ÌÌ_È_ËÂÌÚ_127-6" x1="514.95" y1="106.51" x2="676.4" y2="159.04" xlink:href="#_ÂÁ_Ï_ÌÌ_È_ËÂÌÚ_127"/><linearGradient id="_ÂÁ_Ï_ÌÌ_È_ËÂÌÚ_136" x1="551.52" y1="99.67" x2="561.56" y2="117.63" gradientUnits="userSpaceOnUse"><stop offset="0" stop-color="#f8e9c3"/><stop offset="1" stop-color="#a579e2"/></linearGradient><linearGradient id="_ÂÁ_Ï_ÌÌ_È_ËÂÌÚ_127-7" x1="674.94" y1="103.4" x2="696.81" y2="113.25" gradientTransform="translate(100.85 -265.87) rotate(23.75)" xlink:href="#_ÂÁ_Ï_ÌÌ_È_ËÂÌÚ_127"/><linearGradient id="_ÂÁ_Ï_ÌÌ_È_ËÂÌÚ_127-8" x1="650.16" y1="101.36" x2="689.27" y2="116.85" xlink:href="#_ÂÁ_Ï_ÌÌ_È_ËÂÌÚ_127"/><linearGradient id="_ÂÁ_Ï_ÌÌ_È_ËÂÌÚ_136-2" x1="647.59" y1="108.01" x2="667.09" y2="125.59" xlink:href="#_ÂÁ_Ï_ÌÌ_È_ËÂÌÚ_136"/></defs><g class="cls-2"><g id="_ÎÓÈ_1" data-name="—ÎÓÈ_1"><g class="cls-3"><path class="cls-4" d="M697.84,119.55h0a17.47,17.47,0,0,1-2,2.88c-2.68,3.13-14,4.93-23.76,5.93h0c-8.3.84-15.52,1.1-15.52,1.1s-2.41-1.2-7.22.34l-.23.07c-3.71,1.24-8.8.63-11.14.24-.79-.13-1.27-.24-1.27-.24h-67s34.88-2,65.25-4.87l2-.19h0c5.36-.51,10.54-1,15.33-1.61l.7-.08c3.08-.36,6-.73,8.68-1.11,1.54-.22,3-.43,4.39-.65h0c8.74-1.4,14-2.86,12.84-4.3-5-6.2-54.69-10.67-54.69-10.67l-2.38-4.64,11.16,5L659.42,108s3.31-3.72,6.2-3.72,7.86,3.72,7.86,3.72,7.44-8.27,17.37-6.61a11.3,11.3,0,0,1,4.83,1.94C700.4,106.69,701.2,113.58,697.84,119.55Z"/><path class="cls-5" d="M527.24,124.62c.2,2.06,37.83.11,37.83.11s-27.67.58-28.09-1.49c-.41-1.24,3.73-1.65,3.73-1.65l-3.12-1.7S527.05,122.57,527.24,124.62Z"/><path class="cls-6" d="M644.89,136.49l-.38,0-31,1.63s-15.72,1.65-15.3,2.48,7.86,1.66,7.86,1.66l-21.51,1.24s4.89,1.15.51,3.3c-5,2.45-61.57.07-63.34,0,1.48,0,42.14,1.15,41.73-4.13-.14-1.85-2.38-2.43-5.27-2.39h-.66l-1.08.06-.34,0-1.13.13-.29,0-.44.06-.54.08-.28,0-.29,0-1.41.25-.54.1-1.42.3-.41.09-1.56.36c-1.77.43-2.95.78-2.95.78h-2.08c-7.62,0-34-.4-41.19-2.8h0c-1.15-.39-1.81-.83-1.81-1.33,0-4.13,40.9-8.14,40.9-8.14l-2,4.42s-32.26-3.31-27.3,2.07c.76.82,12.07,1.14,27.81,1.17,4.14,0,8.58,0,13.21,0h0l6.66,0c5.85-.05,11.91-.11,18-.2l7.48-.1,16.44-.27c22.27-.4,40.7-.85,43.61-.92Z"/><path class="cls-7" d="M532.43,122.42s.83-5.8,3.31-5.79,5,5,5,5Z"/><path class="cls-8" d="M681.08,132.4h17.78l-4.13.82,24,2.49s-33.09,2.48-33.08,1.23,7-3.72,7-3.72Z"/><path class="cls-9" d="M561.32,124.79c.07-.3,2.55-2.78,3.79-2.78s2.89,2.06,2.89,2.06l12,.42Z"/><path class="cls-10" d="M644.54,136.5h0l-31,1.63s-15.72,1.65-15.3,2.48,7.86,1.66,7.86,1.66l-21.51,1.24s4.89,1.15.51,3.3c-5,2.45-61.57.07-63.34,0,1.48,0,42.14,1.15,41.73-4.13-.14-1.85-2.38-2.43-5.27-2.39h-.66l-1.08.06-.34,0-1.13.13-.29,0-.44.06-.54.08-.28,0-.29,0-1.41.25-.54.1-1.42.3-.41.09-1.56.36c-1.77.43-2.95.78-2.95.78h-2.08c-7.62,0-34-.4-41.19-2.8,6.55,1.23,34.15,1.61,34.15,1.61s10.65.37,10-1.61h0c-1-.82-3.74-1.4-6.62-1.81,4.14,0,8.58,0,13.21,0h0a22.53,22.53,0,0,0,6.66,0c1.45-.34,2.49-1,2.22-2.37-.73-3.66-4.2-1.77-4.43-1.65,1.45-1.15,2.86-2,3.74-2,2.48,0,6.2,4.14,6.2,4.14a5.79,5.79,0,0,1,3.31-1.66c1.66,0,5.79,2.9,5.79,2.9s.21-.56.65-1.43a3.86,3.86,0,0,0,.5,1.91,3.18,3.18,0,0,0,2,1.42c1.47.4,3.5-.3,5.46-1.52,4.59-2.86,8.89-8.61,5.32-10.2-2.88-1.28-6,.2-8.18,1.74a11.66,11.66,0,0,1,6.23-2.67c7.82-.78,12.57,9.71,13.07,10.86C623.2,137,641.63,136.57,644.54,136.5Z"/><ellipse class="cls-11" cx="682.65" cy="106.88" rx="9.08" ry="3.78" transform="translate(14.77 283.98) rotate(-23.75)"/><path class="cls-12" d="M659.77,108.2s2.84-3.78,5.49-3.59a10.46,10.46,0,0,1,5.1,2.27s.57,2.45-4,2.45S659.77,108.2,659.77,108.2Z"/><path class="cls-13" d="M723.94,125.74l-51.89,2.62h0c-8.3.84-15.52,1.1-15.52,1.1s-2.41-1.2-7.22.34l-11.37.31-21.84.59s4.07-.32,8.91-.83c7.51-.8,16.9-2.06,15.86-3.33-.56-.68-3-1.19-6-1.55l2-.19s2.25-5.27,5.14-5.27c2.28,0,7.91,2.57,10.19,3.66l.7-.08c-.43-1-.94-3,1.52-3.58s5.5,1.31,7.16,2.47c1.54-.22,3-.43,4.39-.65h0l14.37-2s-3-5.11,4.73-6.62,7,3.21,7,3.21,6-.56,6-6.62a9.72,9.72,0,0,0-2.48-6c4.72,3.41,5.52,10.3,2.16,16.27h0l-2.43,5.78Z"/></g></g></g></svg>