<?xml version="1.0" encoding="utf-8"?>
<!-- Generator: Adobe Illustrator 23.0.3, SVG Export Plug-In . SVG Version: 6.00 Build 0)  -->
<svg version="1.1" id="Layer_1" xmlns="http://www.w3.org/2000/svg" xmlns:xlink="http://www.w3.org/1999/xlink" x="0px" y="0px"
	 viewBox="0 0 512 512" style="enable-background:new 0 0 512 512;" xml:space="preserve">
<style type="text/css">
	.st0{fill-rule:evenodd;clip-rule:evenodd;fill:#666666;}
</style>
<path class="st0" d="M510.3,329.5L476,183.7c-9.2-39.3-45.5-79.7-100.6-79.7H136.6c-40.4,0-88,26-100.6,79.7L1.7,329.5
	c-9.3,39.6,20.7,77.6,61.5,77.6c17.3,0,33.6-9.2,42.5-24.1l26.4-44.1c4.5-7.5,12.8-12.2,21.6-12.2h204.7c8.8,0,17.1,4.7,21.6,12.2
	l26.4,44c8.9,14.8,25.2,24.1,42.5,24.1C489.5,407.1,519.6,369.2,510.3,329.5z M191.7,230.4h-17.1v17.1c0,8.3-6.7,15-15,15
	c-8.3,0-15-6.7-15-15v-17.1h-17.1c-8.3,0-15-6.7-15-15c0-8.3,6.7-15,15-15h17.1v-17.1c0-8.3,6.7-15,15-15c8.3,0,15,6.7,15,15v17.1
	h17.1c8.3,0,15,6.7,15,15C206.7,223.7,200,230.4,191.7,230.4z M320.3,230.4c-8.3,0-15-6.7-15-15c0-8.3,6.7-15,15-15
	c8.3,0,15,6.7,15,15C335.3,223.7,328.5,230.4,320.3,230.4z M352.4,262.5c-8.3,0-15-6.7-15-15s6.7-15,15-15s15,6.7,15,15
	S360.7,262.5,352.4,262.5z M352.4,198.3c-8.3,0-15-6.7-15-15c0-8.3,6.7-15,15-15s15,6.7,15,15C367.4,191.5,360.7,198.3,352.4,198.3z
	 M384.5,230.4c-8.3,0-15-6.7-15-15c0-8.3,6.7-15,15-15s15,6.7,15,15C399.5,223.7,392.8,230.4,384.5,230.4z"/>
</svg>
