<?xml version="1.0" encoding="utf-8"?>
<!-- Generator: Adobe Illustrator 23.0.3, SVG Export Plug-In . SVG Version: 6.00 Build 0)  -->
<svg version="1.1" id="Capa_1" xmlns="http://www.w3.org/2000/svg" xmlns:xlink="http://www.w3.org/1999/xlink" x="0px" y="0px"
	 viewBox="0 0 54 54" style="enable-background:new 0 0 54 54;" xml:space="preserve">
<style type="text/css">
	.st0{fill:#666666;}
</style>
<path id="XMLID_102_" class="st0" d="M54,3.4l-0.7-2.1C53.2,1,53,0.8,52.7,0.7L50.6,0c-0.3-0.1-0.6,0-0.8,0.2l-3,3.5l-0.1,1
	L30.9,20.1c-4.5-3.3-9.6-2.7-11.5-0.7c-3.7,3.8-1.7,4.3-4.1,6.7s-7.6-0.3-13.5,6.2C-1.7,36.2,0.2,44,5.1,48.9s12.8,6.8,16.7,3.2
	c6.4-5.9,3.8-11.1,6.2-13.5c2.4-2.4,2.9-0.4,6.7-4.1c2-2,2.6-7.1-0.7-11.5L49.2,7.4l1-0.1l3.5-3C54,4,54.1,3.7,54,3.4z M25,33.8
	c-1.3,1.3-3.4,1.3-4.7,0s-1.3-3.4,0-4.7s3.4-1.3,4.7,0S26.3,32.5,25,33.8z"/>
</svg>
