<?xml version="1.0" encoding="utf-8"?>
<!-- Generator: Adobe Illustrator 23.0.3, SVG Export Plug-In . SVG Version: 6.00 Build 0)  -->
<svg version="1.1" id="Capa_1" xmlns="http://www.w3.org/2000/svg" xmlns:xlink="http://www.w3.org/1999/xlink" x="0px" y="0px"
	 viewBox="0 0 448 448" style="enable-background:new 0 0 448 448;" xml:space="preserve">
<style type="text/css">
	.st0{fill:#666666;}
</style>
<path class="st0" d="M442,3.5c-3.7-3-8.7-4.1-13.5-3.1l-288,64C133.2,66,128,72.5,128,80v253.1C114.6,325,98.1,320,80,320
	c-44.1,0-80,28.7-80,64s35.9,64,80,64s80-28.7,80-64V188.8l256-56.9v137.2c-13.4-8.1-29.9-13.1-48-13.1c-44.1,0-80,28.7-80,64
	s35.9,64,80,64s80-28.7,80-64V16C448,11.1,445.8,6.5,442,3.5z"/>
</svg>
