<svg width="24" height="34" viewBox="0 0 24 34" fill="none" xmlns="http://www.w3.org/2000/svg">
<path d="M12 10.3334C13.4728 10.3334 14.6667 9.13946 14.6667 7.66669C14.6667 6.19392 13.4728 5 12 5C10.5272 5 9.33331 6.19392 9.33331 7.66669C9.33331 9.13946 10.5272 10.3334 12 10.3334Z" fill="#E0E0E0"/>
<path d="M12 19.6666C13.4728 19.6666 14.6667 18.4727 14.6667 16.9999C14.6667 15.5272 13.4728 14.3333 12 14.3333C10.5272 14.3333 9.33331 15.5272 9.33331 16.9999C9.33331 18.4727 10.5272 19.6666 12 19.6666Z" fill="#E0E0E0"/>
<path d="M12 28.9999C13.4728 28.9999 14.6667 27.806 14.6667 26.3332C14.6667 24.8604 13.4728 23.6665 12 23.6665C10.5272 23.6665 9.33331 24.8604 9.33331 26.3332C9.33331 27.806 10.5272 28.9999 12 28.9999Z" fill="#E0E0E0"/>
</svg>
