<svg width="22" height="20" viewBox="0 0 22 20" fill="none" xmlns="http://www.w3.org/2000/svg">
<path d="M5.39001 19.75C4.49999 19.75 3.62996 19.4861 2.88994 18.9916C2.14992 18.4971 1.57314 17.7943 1.23255 16.9721C0.891955 16.1498 0.80284 15.245 0.976473 14.3721C1.15011 13.4992 1.57869 12.6974 2.20803 12.068C2.83736 11.4387 3.63919 11.0101 4.5121 10.8365C5.38502 10.6628 6.28981 10.7519 7.11208 11.0925C7.93435 11.4331 8.63715 12.0099 9.13162 12.7499C9.62609 13.49 9.89001 14.36 9.89001 15.25C9.89001 16.4435 9.4159 17.5881 8.57199 18.432C7.72807 19.2759 6.58348 19.75 5.39001 19.75ZM5.39001 12.25C4.79666 12.25 4.21664 12.4259 3.7233 12.7556C3.22995 13.0852 2.84543 13.5538 2.61837 14.1019C2.39131 14.6501 2.3319 15.2533 2.44765 15.8353C2.56341 16.4172 2.84913 16.9518 3.26869 17.3713C3.68824 17.7909 4.22279 18.0766 4.80474 18.1923C5.38668 18.3081 5.98988 18.2487 6.53806 18.0216C7.08624 17.7946 7.55477 17.41 7.88442 16.9167C8.21406 16.4234 8.39001 15.8433 8.39001 15.25C8.39001 14.4543 8.07394 13.6913 7.51133 13.1287C6.94872 12.5661 6.18566 12.25 5.39001 12.25Z" fill="white"/>
<path d="M16.64 19.75C15.75 19.75 14.88 19.4861 14.14 18.9916C13.4 18.4971 12.8232 17.7943 12.4826 16.9721C12.142 16.1498 12.0529 15.245 12.2265 14.3721C12.4002 13.4992 12.8287 12.6974 13.4581 12.068C14.0874 11.4387 14.8892 11.0101 15.7621 10.8365C16.6351 10.6628 17.5399 10.7519 18.3621 11.0925C19.1844 11.4331 19.8872 12.0099 20.3817 12.7499C20.8761 13.49 21.14 14.36 21.14 15.25C21.14 16.4435 20.6659 17.5881 19.822 18.432C18.9781 19.2759 17.8335 19.75 16.64 19.75ZM16.64 12.25C16.0467 12.25 15.4667 12.4259 14.9733 12.7556C14.48 13.0852 14.0955 13.5538 13.8684 14.1019C13.6413 14.6501 13.5819 15.2533 13.6977 15.8353C13.8134 16.4172 14.0992 16.9518 14.5187 17.3713C14.9383 17.7909 15.4728 18.0766 16.0548 18.1923C16.6367 18.3081 17.2399 18.2487 17.7881 18.0216C18.3363 17.7946 18.8048 17.41 19.1344 16.9167C19.4641 16.4234 19.64 15.8433 19.64 15.25C19.64 14.4543 19.324 13.6913 18.7614 13.1287C18.1988 12.5661 17.4357 12.25 16.64 12.25Z" fill="white"/>
<path d="M9.14005 14.5076H12.8901V16.0076H9.14005V14.5076Z" fill="white"/>
<path d="M20.7651 7.75757H1.26505C0.850837 7.75757 0.515051 8.09335 0.515051 8.50757C0.515051 8.92178 0.850837 9.25757 1.26505 9.25757H20.7651C21.1793 9.25757 21.5151 8.92178 21.5151 8.50757C21.5151 8.09335 21.1793 7.75757 20.7651 7.75757Z" fill="white"/>
<path d="M19.4301 9.25H2.60007L4.10007 1.9375C4.19393 1.46852 4.44505 1.04563 4.81191 0.738779C5.17878 0.431924 5.63939 0.259491 6.11757 0.25H15.9051C16.3897 0.250944 16.8591 0.419493 17.2337 0.727063C17.6082 1.03463 17.8649 1.46229 17.9601 1.9375L19.4301 9.25ZM4.43007 7.75H17.6001L16.4901 2.23C16.4625 2.09498 16.3893 1.97356 16.2828 1.88615C16.1763 1.79874 16.0429 1.75066 15.9051 1.75H6.11757C5.97977 1.75066 5.8464 1.79874 5.73986 1.88615C5.63333 1.97356 5.56013 2.09498 5.53257 2.23L4.43007 7.75Z" fill="white"/>
</svg>
