<svg width="20" height="24" viewBox="0 0 20 24" fill="none" xmlns="http://www.w3.org/2000/svg">
<path d="M17.8 23.25H5.32747C4.7924 23.25 4.27924 23.0374 3.90088 22.6591C3.52253 22.2807 3.30997 21.7676 3.30997 21.2325V2.7675C3.30997 2.23243 3.52253 1.71927 3.90088 1.34091C4.27924 0.962557 4.7924 0.75 5.32747 0.75H11.05C11.5622 0.751045 12.0561 0.940597 12.4375 1.2825L19.1125 7.2825C19.332 7.47881 19.5075 7.71923 19.6277 7.98805C19.7479 8.25687 19.81 8.54803 19.81 8.8425V21.2325C19.81 21.7663 19.5984 22.2783 19.2217 22.6564C18.845 23.0346 18.3337 23.248 17.8 23.25ZM5.32747 2.25C5.19022 2.25 5.05859 2.30452 4.96154 2.40157C4.86449 2.49862 4.80997 2.63025 4.80997 2.7675V21.2325C4.80997 21.3697 4.86449 21.5014 4.96154 21.5984C5.05859 21.6955 5.19022 21.75 5.32747 21.75H17.8C17.9372 21.75 18.0688 21.6955 18.1659 21.5984C18.2629 21.5014 18.3175 21.3697 18.3175 21.2325V8.805C18.3173 8.72287 18.2999 8.64168 18.2663 8.56674C18.2327 8.49179 18.1837 8.42476 18.1225 8.37L11.4475 2.37C11.3341 2.28274 11.1927 2.24005 11.05 2.25H5.32747Z" fill="white"/>
<path d="M19.06 8.95492H12.4525C12.0169 8.95492 11.5991 8.78187 11.291 8.47384C10.983 8.16582 10.81 7.74804 10.81 7.31242V1.91992H12.31V7.31242C12.31 7.35022 12.325 7.38646 12.3517 7.41318C12.3784 7.43991 12.4147 7.45492 12.4525 7.45492H19.06V8.95492Z" fill="white"/>
<path d="M14.815 18H8.81503C8.40082 18 8.06503 18.3358 8.06503 18.75C8.06503 19.1642 8.40082 19.5 8.81503 19.5H14.815C15.2292 19.5 15.565 19.1642 15.565 18.75C15.565 18.3358 15.2292 18 14.815 18Z" fill="white"/>
<path d="M10.315 14.7676H8.81503C8.40082 14.7676 8.06503 15.1034 8.06503 15.5176C8.06503 15.9318 8.40082 16.2676 8.81503 16.2676H10.315C10.7292 16.2676 11.065 15.9318 11.065 15.5176C11.065 15.1034 10.7292 14.7676 10.315 14.7676Z" fill="white"/>
<path d="M2.05753 19.9951C1.56148 19.9892 1.08763 19.7885 0.738248 19.4363C0.388866 19.0841 0.191963 18.6087 0.190029 18.1126V5.88759C0.189972 5.60952 0.251765 5.33492 0.370931 5.08368C0.490097 4.83244 0.663653 4.61085 0.879027 4.43496C1.0944 4.25907 1.3462 4.13329 1.61618 4.06672C1.88617 4.00016 2.16758 3.99448 2.44003 4.05009L4.05253 4.32009L3.80503 5.82009L2.17753 5.52759C2.1187 5.51163 2.05698 5.50942 1.99716 5.52113C1.93734 5.53283 1.88101 5.55814 1.83253 5.59509C1.78833 5.63001 1.75257 5.67444 1.7279 5.72508C1.70323 5.77572 1.69029 5.83126 1.69003 5.88759V18.1126C1.69114 18.1685 1.7045 18.2236 1.72919 18.2738C1.75388 18.324 1.78929 18.3682 1.83291 18.4032C1.87654 18.4383 1.92732 18.4633 1.98169 18.4766C2.03605 18.4899 2.09266 18.4911 2.14753 18.4801L3.84253 18.2551L4.03753 19.7551L2.39503 19.9726C2.28366 19.9921 2.17051 19.9997 2.05753 19.9951Z" fill="white"/>
</svg>
