<svg width="12" height="12" viewBox="0 0 12 12" fill="none" xmlns="http://www.w3.org/2000/svg">
<path d="M12 10V8C12 7.86739 11.9473 7.74021 11.8536 7.64645C11.7598 7.55268 11.6326 7.5 11.5 7.5C11.3674 7.5 11.2402 7.55268 11.1464 7.64645C11.0527 7.74021 11 7.86739 11 8V10C11 10.1326 10.9473 10.2598 10.8536 10.3536C10.7598 10.4473 10.6326 10.5 10.5 10.5H1.5C1.36739 10.5 1.24021 10.4473 1.14645 10.3536C1.05268 10.2598 1 10.1326 1 10V8C1 7.86739 0.947321 7.74021 0.853553 7.64645C0.759785 7.55268 0.632608 7.5 0.5 7.5C0.367392 7.5 0.240215 7.55268 0.146447 7.64645C0.0526785 7.74021 0 7.86739 0 8V10C0 10.3978 0.158035 10.7794 0.43934 11.0607C0.720644 11.342 1.10218 11.5 1.5 11.5H10.5C10.8978 11.5 11.2794 11.342 11.5607 11.0607C11.842 10.7794 12 10.3978 12 10ZM8.81 7.39L6.31 9.39C6.22173 9.45975 6.11251 9.4977 6 9.4977C5.88749 9.4977 5.77827 9.45975 5.69 9.39L3.19 7.39C3.09891 7.30402 3.04341 7.18697 3.03448 7.06203C3.02556 6.93708 3.06386 6.81334 3.1418 6.71528C3.21975 6.61722 3.33166 6.55199 3.4554 6.53249C3.57913 6.513 3.70568 6.54066 3.81 6.61L5.5 7.96V1C5.5 0.867392 5.55268 0.740215 5.64645 0.646447C5.74021 0.552679 5.86739 0.5 6 0.5C6.13261 0.5 6.25979 0.552679 6.35355 0.646447C6.44732 0.740215 6.5 0.867392 6.5 1V7.96L8.19 6.61C8.24035 6.56247 8.30002 6.52592 8.36523 6.50266C8.43044 6.4794 8.49978 6.46994 8.56884 6.47487C8.6379 6.4798 8.70518 6.49903 8.76643 6.53132C8.82767 6.56362 8.88154 6.60828 8.92462 6.66248C8.96771 6.71668 8.99906 6.77924 9.01671 6.84619C9.03435 6.91314 9.0379 6.98302 9.02712 7.05142C9.01634 7.11981 8.99148 7.18522 8.95411 7.2435C8.91673 7.30179 8.86766 7.35167 8.81 7.39Z" fill="#0068FF"/>
</svg>
