<svg width="16" height="16" viewBox="0 0 16 16" fill="none" xmlns="http://www.w3.org/2000/svg">
<path d="M14 1.33325H9.99997C9.82316 1.33325 9.65359 1.40349 9.52857 1.52851C9.40354 1.65354 9.33331 1.82311 9.33331 1.99992C9.33331 2.17673 9.40354 2.3463 9.52857 2.47132C9.65359 2.59635 9.82316 2.66659 9.99997 2.66659H12.3906L6.86197 8.19525C6.7983 8.25675 6.74751 8.33031 6.71257 8.41165C6.67763 8.49299 6.65924 8.58047 6.65847 8.66899C6.6577 8.7575 6.67457 8.84529 6.70809 8.92722C6.74161 9.00915 6.79111 9.08359 6.85371 9.14618C6.91631 9.20878 6.99074 9.25828 7.07267 9.2918C7.1546 9.32532 7.24239 9.34219 7.33091 9.34142C7.41943 9.34065 7.50691 9.32226 7.58824 9.28732C7.66958 9.25238 7.74314 9.20159 7.80464 9.13792L13.3333 3.60925V5.99992C13.3333 6.17673 13.4035 6.3463 13.5286 6.47132C13.6536 6.59635 13.8232 6.66659 14 6.66659C14.1768 6.66659 14.3464 6.59635 14.4714 6.47132C14.5964 6.3463 14.6666 6.17673 14.6666 5.99992V1.99992C14.6666 1.82311 14.5964 1.65354 14.4714 1.52851C14.3464 1.40349 14.1768 1.33325 14 1.33325Z" fill="#BDBDBD"/>
<path d="M12.6666 7.05875C12.4898 7.05875 12.3202 7.12899 12.1952 7.25401C12.0702 7.37903 11.9999 7.5486 11.9999 7.72542V12.5007C11.9997 12.7215 11.912 12.9332 11.7558 13.0893C11.5997 13.2455 11.388 13.3332 11.1673 13.3334H3.49925C3.27847 13.3332 3.06678 13.2455 2.91066 13.0893C2.75455 12.9332 2.66676 12.7215 2.66659 12.5007V4.83275C2.66676 4.61197 2.75455 4.40028 2.91066 4.24416C3.06678 4.08804 3.27847 4.00026 3.49925 4.00008H7.64725C7.82406 4.00008 7.99363 3.92984 8.11866 3.80482C8.24368 3.67979 8.31392 3.51023 8.31392 3.33341C8.31392 3.1566 8.24368 2.98703 8.11866 2.86201C7.99363 2.73699 7.82406 2.66675 7.64725 2.66675H3.49925C2.92501 2.66745 2.37449 2.89588 1.96844 3.30193C1.56239 3.70799 1.33396 4.25851 1.33325 4.83275V12.4994C1.3336 13.0739 1.56188 13.6248 1.96797 14.0311C2.37406 14.4374 2.92478 14.666 3.49925 14.6667H11.1659C11.7404 14.6664 12.2913 14.4381 12.6976 14.032C13.1039 13.6259 13.3325 13.0752 13.3333 12.5007V7.72542C13.3333 7.5486 13.263 7.37903 13.138 7.25401C13.013 7.12899 12.8434 7.05875 12.6666 7.05875Z" fill="#BDBDBD"/>
</svg>
