<svg width="14" height="14" viewBox="0 0 14 14" fill="none" xmlns="http://www.w3.org/2000/svg">
<path d="M12.4726 0.5H1.52735C1.1224 0.500424 0.73416 0.661476 0.447818 0.947818C0.161476 1.23416 0.000423545 1.6224 0 2.02735V9.47265C0.000423545 9.8776 0.161476 10.2658 0.447818 10.5522C0.73416 10.8385 1.1224 10.9996 1.52735 11H5.5V12.5H4.5C4.36739 12.5 4.24021 12.5527 4.14645 12.6464C4.05268 12.7402 4 12.8674 4 13C4 13.1326 4.05268 13.2598 4.14645 13.3536C4.24021 13.4473 4.36739 13.5 4.5 13.5H9.5C9.63261 13.5 9.75979 13.4473 9.85355 13.3536C9.94732 13.2598 10 13.1326 10 13C10 12.8674 9.94732 12.7402 9.85355 12.6464C9.75979 12.5527 9.63261 12.5 9.5 12.5H8.5V11H12.4726C12.8776 10.9996 13.2658 10.8385 13.5522 10.5522C13.8385 10.2658 13.9996 9.8776 14 9.47265V2.02735C13.9996 1.6224 13.8385 1.23416 13.5522 0.947818C13.2658 0.661476 12.8776 0.500424 12.4726 0.5ZM7.5 12.5H6.5V11H7.5V12.5ZM13 9.47265C12.9999 9.61247 12.9442 9.74652 12.8454 9.84538C12.7465 9.94425 12.6125 9.99985 12.4726 10H1.52735C1.38753 9.99985 1.25348 9.94425 1.15462 9.84538C1.05575 9.74652 1.00015 9.61247 1 9.47265V2.02735C1.00015 1.88753 1.05575 1.75348 1.15462 1.65462C1.25348 1.55575 1.38753 1.50015 1.52735 1.5H12.4726C12.6125 1.50015 12.7465 1.55575 12.8454 1.65462C12.9442 1.75348 12.9999 1.88753 13 2.02735V9.47265Z" fill="#BDBDBD"/>
<path d="M2.5 7H4.5C4.63261 7 4.75979 6.94732 4.85355 6.85355C4.94732 6.75979 5 6.63261 5 6.5C5 6.36739 4.94732 6.24021 4.85355 6.14645C4.75979 6.05268 4.63261 6 4.5 6H2.5C2.36739 6 2.24021 6.05268 2.14645 6.14645C2.05268 6.24021 2 6.36739 2 6.5C2 6.63261 2.05268 6.75979 2.14645 6.85355C2.24021 6.94732 2.36739 7 2.5 7Z" fill="#BDBDBD"/>
<path d="M7 8H2.5C2.36739 8 2.24021 8.05268 2.14645 8.14645C2.05268 8.24021 2 8.36739 2 8.5C2 8.63261 2.05268 8.75979 2.14645 8.85355C2.24021 8.94732 2.36739 9 2.5 9H7C7.13261 9 7.25979 8.94732 7.35355 8.85355C7.44732 8.75979 7.5 8.63261 7.5 8.5C7.5 8.36739 7.44732 8.24021 7.35355 8.14645C7.25979 8.05268 7.13261 8 7 8Z" fill="#BDBDBD"/>
<path d="M9.75 2.5V3.5C9.99723 3.5 10.2389 3.57331 10.4445 3.71066C10.65 3.84801 10.8102 4.04323 10.9048 4.27164C10.9995 4.50005 11.0242 4.75138 10.976 4.99386C10.9278 5.23633 10.8087 5.45906 10.6339 5.63388C10.4591 5.80869 10.2363 5.92774 9.99386 5.97597C9.75139 6.02421 9.50005 5.99945 9.27165 5.90484C9.04324 5.81023 8.84801 5.65002 8.71066 5.44446C8.57331 5.2389 8.5 4.99722 8.5 4.75H7.5C7.5 5.195 7.63196 5.63002 7.87919 6.00003C8.12643 6.37004 8.47783 6.65842 8.88896 6.82872C9.3001 6.99902 9.7525 7.04357 10.189 6.95676C10.6254 6.86994 11.0263 6.65565 11.341 6.34098C11.6557 6.02631 11.87 5.6254 11.9568 5.18895C12.0436 4.75249 11.999 4.30009 11.8287 3.88896C11.6584 3.47783 11.37 3.12643 11 2.87919C10.63 2.63196 10.195 2.5 9.75 2.5Z" fill="#BDBDBD"/>
</svg>
