<svg width="17" height="16" viewBox="0 0 17 16" fill="none" xmlns="http://www.w3.org/2000/svg">
<path fill-rule="evenodd" clip-rule="evenodd" d="M11.8333 2.33333C11.8333 2.14933 11.6833 2 11.5 2H9.83333C7.992 2 6.5 3.34333 6.5 5V6.8H4.83333C4.64933 6.8 4.5 6.94933 4.5 7.13333V8.86667C4.5 9.05067 4.64933 9.2 4.83333 9.2H6.5V13.6667C6.5 13.8507 6.64933 14 6.83333 14H8.83333C9.01667 14 9.16667 13.8507 9.16667 13.6667V9.2H10.9127C11.0627 9.2 11.194 9.1 11.2347 8.956L11.7153 7.22267C11.7747 7.01067 11.6147 6.8 11.3947 6.8H9.16667V5C9.16667 4.66867 9.46467 4.4 9.83333 4.4H11.5C11.6833 4.4 11.8333 4.25067 11.8333 4.06667V2.33333Z" fill="#333333"/>
</svg>
