<svg width="20" height="20" viewBox="0 0 20 20" fill="none" xmlns="http://www.w3.org/2000/svg">
<path d="M16.7821 20H3.01589C2.21595 19.9965 1.44988 19.6768 0.884852 19.1105C0.319827 18.5442 0.0017352 17.7775 0 16.9775V6.76178C0.00330472 6.22024 0.152046 5.68954 0.430669 5.22517C0.709293 4.7608 1.10756 4.37981 1.58383 4.12206L8.45372 0.367047C8.89617 0.126189 9.39191 0 9.89567 0C10.3994 0 10.8952 0.126189 11.3376 0.367047L18.2273 4.10226C18.7036 4.36001 19.1018 4.741 19.3805 5.20537C19.6591 5.66974 19.8078 6.20045 19.8111 6.74198V16.9775C19.8094 17.7797 19.4895 18.5485 18.9216 19.1151C18.3537 19.6818 17.5843 20 16.7821 20ZM9.89897 1.31735C9.61559 1.31693 9.33658 1.38725 9.08725 1.52193L2.19757 5.26374C1.93034 5.41174 1.70785 5.6289 1.55342 5.89247C1.39899 6.15604 1.31832 6.45631 1.31986 6.76178V16.9775C1.31986 17.4291 1.49925 17.8621 1.81855 18.1815C2.13785 18.5008 2.57092 18.6801 3.02248 18.6801H16.7821C17.2325 18.6784 17.6638 18.4982 17.9817 18.1791C18.2996 17.86 18.4781 17.4279 18.4781 16.9775V6.76178C18.4783 6.45498 18.3957 6.15381 18.2388 5.89012C18.082 5.62642 17.8569 5.41 17.5872 5.26374L10.7107 1.52853C10.462 1.39155 10.1829 1.31895 9.89897 1.31735Z" fill="white"/>
<path d="M9.89894 17.103C8.98035 17.1032 8.09028 16.784 7.38116 16.2001C6.67205 15.6161 6.18801 14.8039 6.01194 13.9023C5.99759 13.8077 6.00397 13.7111 6.03064 13.6193C6.05731 13.5274 6.10364 13.4424 6.16641 13.3702C6.22919 13.298 6.30691 13.2404 6.39419 13.2012C6.48146 13.162 6.57622 13.1423 6.67187 13.1434C6.82909 13.1411 6.98196 13.195 7.10295 13.2954C7.22394 13.3959 7.30509 13.5362 7.33181 13.6911C7.45609 14.2843 7.78074 14.8167 8.25121 15.1989C8.72169 15.581 9.30933 15.7896 9.91544 15.7896C10.5215 15.7896 11.1092 15.581 11.5797 15.1989C12.0501 14.8167 12.3748 14.2843 12.4991 13.6911C12.5258 13.5362 12.6069 13.3959 12.7279 13.2954C12.8489 13.195 13.0018 13.1411 13.159 13.1434C13.2547 13.1423 13.3494 13.162 13.4367 13.2012C13.524 13.2404 13.6017 13.298 13.6645 13.3702C13.7272 13.4424 13.7736 13.5274 13.8002 13.6193C13.8269 13.7111 13.8333 13.8077 13.8189 13.9023C13.6418 14.8094 13.1529 15.626 12.437 16.2106C11.7211 16.7952 10.8232 17.1109 9.89894 17.103Z" fill="white"/>
</svg>
