<svg width="14" height="14" viewBox="0 0 14 14" fill="none" xmlns="http://www.w3.org/2000/svg">
<path d="M1.52735 14H10C10.1326 14 10.2598 13.9473 10.3536 13.8536C10.4473 13.7598 10.5 13.6326 10.5 13.5C10.5 13.3674 10.4473 13.2402 10.3536 13.1464C10.2598 13.0527 10.1326 13 10 13H1.52735C1.38753 12.9999 1.25348 12.9442 1.15462 12.8454C1.05575 12.7465 1.00015 12.6125 1 12.4726V1.52735C1.00015 1.38753 1.05575 1.25348 1.15462 1.15462C1.25348 1.05575 1.38753 1.00015 1.52735 1H10C10.1326 1 10.2598 0.947322 10.3536 0.853553C10.4473 0.759785 10.5 0.632608 10.5 0.5C10.5 0.367392 10.4473 0.240215 10.3536 0.146447C10.2598 0.0526784 10.1326 0 10 0H1.52735C1.1224 0.000423545 0.73416 0.161476 0.447818 0.447818C0.161476 0.73416 0.000423545 1.1224 0 1.52735V12.4726C0.000423545 12.8776 0.161476 13.2658 0.447818 13.5522C0.73416 13.8385 1.1224 13.9996 1.52735 14Z" fill="#BDBDBD"/>
<path d="M7.78083 12H12.2193C12.4473 12 12.6722 11.9481 12.8771 11.8481C13.082 11.7482 13.2614 11.6028 13.4017 11.4232C13.542 11.2435 13.6395 11.0342 13.6867 10.8112C13.734 10.5882 13.7299 10.3574 13.6746 10.1363L13.3638 8.8938C13.2292 8.35257 12.9173 7.872 12.4777 7.52875C12.0381 7.1855 11.4963 6.99935 10.9386 7H9.06157C8.50394 6.9994 7.96217 7.18554 7.52265 7.52874C7.08314 7.87193 6.7712 8.35241 6.63658 8.89355L6.32578 10.1363C6.27051 10.3574 6.26635 10.5882 6.31364 10.8112C6.36092 11.0341 6.4584 11.2434 6.59866 11.4231C6.73892 11.6027 6.91829 11.7481 7.12313 11.848C7.32797 11.948 7.5529 12 7.78083 12ZM7.29583 10.3789L7.60663 9.136C7.68739 8.81133 7.87455 8.52306 8.13825 8.31717C8.40196 8.11127 8.72701 7.99961 9.06157 8H10.9386C11.2732 7.99961 11.5983 8.11129 11.862 8.31724C12.1257 8.52319 12.3129 8.81152 12.3936 9.13625L12.7044 10.3789C12.7228 10.4526 12.7241 10.5295 12.7084 10.6038C12.6926 10.6781 12.6601 10.7479 12.6133 10.8078C12.5666 10.8676 12.5068 10.9161 12.4385 10.9494C12.3702 10.9827 12.2953 11 12.2193 11H7.78083C7.70487 11 7.62991 10.9827 7.56165 10.9493C7.49338 10.916 7.43361 10.8676 7.38686 10.8077C7.34011 10.7479 7.30761 10.6781 7.29184 10.6038C7.27607 10.5295 7.27743 10.4526 7.29583 10.3789Z" fill="#BDBDBD"/>
<path d="M10 2C9.60444 2 9.21776 2.1173 8.88886 2.33706C8.55996 2.55682 8.30362 2.86918 8.15224 3.23463C8.00087 3.60009 7.96126 4.00222 8.03843 4.39018C8.1156 4.77814 8.30608 5.13451 8.58579 5.41421C8.86549 5.69392 9.22186 5.8844 9.60982 5.96157C9.99778 6.03874 10.3999 5.99914 10.7654 5.84776C11.1308 5.69638 11.4432 5.44004 11.6629 5.11114C11.8827 4.78224 12 4.39556 12 4C11.9994 3.46975 11.7885 2.96139 11.4136 2.58644C11.0386 2.2115 10.5303 2.0006 10 2ZM10 5C9.80222 5 9.60888 4.94135 9.44443 4.83147C9.27998 4.72159 9.15181 4.56541 9.07612 4.38268C9.00043 4.19996 8.98063 3.99889 9.01922 3.80491C9.0578 3.61093 9.15304 3.43275 9.29289 3.29289C9.43275 3.15304 9.61093 3.0578 9.80491 3.01921C9.99889 2.98063 10.2 3.00043 10.3827 3.07612C10.5654 3.15181 10.7216 3.27998 10.8315 3.44443C10.9414 3.60888 11 3.80222 11 4C10.9997 4.26514 10.8943 4.51934 10.7068 4.70681C10.5193 4.89429 10.2651 4.99974 10 5Z" fill="#BDBDBD"/>
<path d="M2.5 3H5C5.13261 3 5.25979 2.94732 5.35355 2.85355C5.44732 2.75979 5.5 2.63261 5.5 2.5C5.5 2.36739 5.44732 2.24021 5.35355 2.14645C5.25979 2.05268 5.13261 2 5 2H2.5C2.36739 2 2.24021 2.05268 2.14645 2.14645C2.05268 2.24021 2 2.36739 2 2.5C2 2.63261 2.05268 2.75979 2.14645 2.85355C2.24021 2.94732 2.36739 3 2.5 3Z" fill="#BDBDBD"/>
<path d="M2.5 6C2.36739 6 2.24021 6.05268 2.14645 6.14645C2.05268 6.24021 2 6.36739 2 6.5C2 6.63261 2.05268 6.75979 2.14645 6.85355C2.24021 6.94732 2.36739 7 2.5 7H5C5.13261 7 5.25979 6.94732 5.35355 6.85355C5.44732 6.75979 5.5 6.63261 5.5 6.5C5.5 6.36739 5.44732 6.24021 5.35355 6.14645C5.25979 6.05268 5.13261 6 5 6H2.5Z" fill="#BDBDBD"/>
<path d="M7 4.5C7 4.36739 6.94732 4.24021 6.85355 4.14645C6.75979 4.05268 6.63261 4 6.5 4H2.5C2.36739 4 2.24021 4.05268 2.14645 4.14645C2.05268 4.24021 2 4.36739 2 4.5C2 4.63261 2.05268 4.75979 2.14645 4.85355C2.24021 4.94732 2.36739 5 2.5 5H6.5C6.63261 5 6.75979 4.94732 6.85355 4.85355C6.94732 4.75979 7 4.63261 7 4.5Z" fill="#BDBDBD"/>
</svg>
