<svg width="13" height="14" viewBox="0 0 13 14" fill="none" xmlns="http://www.w3.org/2000/svg">
<path d="M11.5 0H4.5C4.36739 0 4.24021 0.0526784 4.14645 0.146447C4.05268 0.240215 4 0.367392 4 0.5C4 0.632608 4.05268 0.759785 4.14645 0.853553C4.24021 0.947322 4.36739 1 4.5 1H11.5C11.6326 1.00008 11.7597 1.05278 11.8535 1.14653C11.9472 1.24029 11.9999 1.36742 12 1.5V12.5C11.9999 12.6326 11.9472 12.7597 11.8535 12.8535C11.7597 12.9472 11.6326 12.9999 11.5 13H4.5C4.36742 12.9999 4.24029 12.9472 4.14653 12.8535C4.05278 12.7597 4.00008 12.6326 4 12.5V9.5C4 9.36739 3.94732 9.24021 3.85355 9.14645C3.75979 9.05268 3.63261 9 3.5 9C3.36739 9 3.24021 9.05268 3.14645 9.14645C3.05268 9.24021 3 9.36739 3 9.5V12.5C3.00044 12.8977 3.15861 13.279 3.43982 13.5602C3.72103 13.8414 4.10231 13.9996 4.5 14H11.5C11.8977 13.9996 12.279 13.8414 12.5602 13.5602C12.8414 13.279 12.9996 12.8977 13 12.5V1.5C12.9996 1.10231 12.8414 0.721032 12.5602 0.439822C12.279 0.158612 11.8977 0.00043674 11.5 0Z" fill="#BDBDBD"/>
<path d="M1 0C0.867392 0 0.740215 0.0526784 0.646447 0.146447C0.552679 0.240215 0.5 0.367392 0.5 0.5V5C0.5 5.79565 0.816071 6.55871 1.37868 7.12132C1.94129 7.68393 2.70435 8 3.5 8C4.29565 8 5.05871 7.68393 5.62132 7.12132C6.18393 6.55871 6.5 5.79565 6.5 5V3.75C6.5 3.28587 6.31563 2.84075 5.98744 2.51256C5.65925 2.18437 5.21413 2 4.75 2C4.28587 2 3.84075 2.18437 3.51256 2.51256C3.18437 2.84075 3 3.28587 3 3.75V5.5C3 5.63261 3.05268 5.75979 3.14645 5.85355C3.24021 5.94732 3.36739 6 3.5 6C3.63261 6 3.75979 5.94732 3.85355 5.85355C3.94732 5.75979 4 5.63261 4 5.5V3.75C4 3.55109 4.07902 3.36032 4.21967 3.21967C4.36032 3.07902 4.55109 3 4.75 3C4.94891 3 5.13968 3.07902 5.28033 3.21967C5.42098 3.36032 5.5 3.55109 5.5 3.75V5C5.5 5.53043 5.28929 6.03914 4.91421 6.41421C4.53914 6.78929 4.03043 7 3.5 7C2.96957 7 2.46086 6.78929 2.08579 6.41421C1.71071 6.03914 1.5 5.53043 1.5 5V0.5C1.5 0.367392 1.44732 0.240215 1.35355 0.146447C1.25979 0.0526784 1.13261 0 1 0Z" fill="#BDBDBD"/>
<path d="M8 9H5.5C5.36739 9 5.24021 9.05268 5.14645 9.14645C5.05268 9.24021 5 9.36739 5 9.5C5 9.63261 5.05268 9.75979 5.14645 9.85355C5.24021 9.94732 5.36739 10 5.5 10H8C8.13261 10 8.25979 9.94732 8.35355 9.85355C8.44732 9.75979 8.5 9.63261 8.5 9.5C8.5 9.36739 8.44732 9.24021 8.35355 9.14645C8.25979 9.05268 8.13261 9 8 9Z" fill="#BDBDBD"/>
<path d="M5 11.5C5 11.6326 5.05268 11.7598 5.14645 11.8536C5.24021 11.9473 5.36739 12 5.5 12H10.5C10.6326 12 10.7598 11.9473 10.8536 11.8536C10.9473 11.7598 11 11.6326 11 11.5C11 11.3674 10.9473 11.2402 10.8536 11.1464C10.7598 11.0527 10.6326 11 10.5 11H5.5C5.36739 11 5.24021 11.0527 5.14645 11.1464C5.05268 11.2402 5 11.3674 5 11.5Z" fill="#BDBDBD"/>
</svg>
