<svg width="14" height="14" viewBox="0 0 14 14" fill="none" xmlns="http://www.w3.org/2000/svg">
<path d="M1.55713 14H7.79588C7.97592 14 8.15346 13.9578 8.3142 13.8767C8.47494 13.7956 8.61441 13.6779 8.72137 13.5331C8.82834 13.3883 8.89982 13.2204 8.93006 13.0429C8.9603 12.8654 8.94845 12.6833 8.89548 12.5113L8.06498 9.81301C7.99377 9.57709 7.84825 9.37049 7.6501 9.22399C7.45194 9.07749 7.21176 8.99893 6.96533 9.00001H2.38768C2.1414 8.99908 1.90139 9.07761 1.7033 9.22394C1.5052 9.37027 1.35959 9.57659 1.28808 9.81226L0.457481 12.5115C0.404646 12.6835 0.392907 12.8656 0.423209 13.043C0.453511 13.2204 0.525008 13.3882 0.631955 13.533C0.738903 13.6778 0.878317 13.7954 1.039 13.8766C1.19968 13.9577 1.37714 13.9999 1.55713 14ZM1.41353 12.805L2.24413 10.106C2.25348 10.0753 2.27249 10.0483 2.29835 10.0292C2.32421 10.0101 2.35554 9.99989 2.38768 10H3.99998V11.5C3.99998 11.6326 4.05266 11.7598 4.14643 11.8536C4.2402 11.9473 4.36737 12 4.49998 12C4.63259 12 4.75977 11.9473 4.85353 11.8536C4.9473 11.7598 4.99998 11.6326 4.99998 11.5V10H6.96533C6.99751 9.99987 7.02887 10.0101 7.05474 10.0293C7.08061 10.0484 7.0996 10.0754 7.10888 10.1062L7.93943 12.8054C7.94643 12.8279 7.94804 12.8517 7.94413 12.8749C7.94022 12.8981 7.9309 12.9201 7.91693 12.939C7.90295 12.958 7.88471 12.9734 7.86368 12.984C7.84265 12.9946 7.81943 13.0001 7.79588 13H1.55713C1.53359 12.9999 1.51039 12.9943 1.48939 12.9837C1.46839 12.973 1.45019 12.9576 1.43623 12.9387C1.42226 12.9197 1.41294 12.8977 1.409 12.8745C1.40506 12.8513 1.40661 12.8275 1.41353 12.805Z" fill="white"/>
<path d="M2.5 6C2.5 6.39556 2.6173 6.78224 2.83706 7.11114C3.05682 7.44004 3.36918 7.69638 3.73463 7.84776C4.10009 7.99913 4.50222 8.03874 4.89018 7.96157C5.27814 7.8844 5.63451 7.69392 5.91421 7.41421C6.19392 7.13451 6.3844 6.77814 6.46157 6.39018C6.53874 6.00222 6.49914 5.60009 6.34776 5.23463C6.19638 4.86918 5.94004 4.55682 5.61114 4.33706C5.28224 4.1173 4.89556 4 4.5 4C3.96974 4.00056 3.46135 4.21145 3.0864 4.5864C2.71145 4.96135 2.50056 5.46974 2.5 6ZM5.5 6C5.5 6.19778 5.44135 6.39112 5.33147 6.55557C5.22159 6.72002 5.06541 6.84819 4.88268 6.92388C4.69996 6.99957 4.49889 7.01937 4.30491 6.98079C4.11093 6.9422 3.93275 6.84696 3.79289 6.70711C3.65304 6.56725 3.5578 6.38907 3.51921 6.19509C3.48063 6.00111 3.50043 5.80004 3.57612 5.61732C3.65181 5.43459 3.77998 5.27841 3.94443 5.16853C4.10888 5.05865 4.30222 5 4.5 5C4.76512 5.0003 5.0193 5.10576 5.20677 5.29323C5.39424 5.4807 5.4997 5.73488 5.5 6Z" fill="white"/>
<path d="M11.9653 5.00001H7.99999C7.86738 5.00001 7.74021 5.05269 7.64644 5.14646C7.55267 5.24023 7.49999 5.3674 7.49999 5.50001C7.49999 5.63262 7.55267 5.75979 7.64644 5.85356C7.74021 5.94733 7.86738 6.00001 7.99999 6.00001H11.9653C11.9975 5.99987 12.0289 6.01014 12.0548 6.02927C12.0806 6.04841 12.0996 6.0754 12.1089 6.10621L12.9395 8.8054C12.9465 8.82788 12.9481 8.8517 12.9442 8.87491C12.9402 8.89813 12.9309 8.9201 12.9169 8.93905C12.903 8.958 12.8847 8.97339 12.8637 8.98398C12.8427 8.99457 12.8194 9.00006 12.7959 9H9.5C9.36739 9 9.24021 9.05268 9.14644 9.14645C9.05267 9.24022 8.99999 9.36739 8.99999 9.5C8.99999 9.63261 9.05267 9.75979 9.14644 9.85356C9.24021 9.94732 9.36739 10 9.5 10H12.7959C12.9759 10 13.1535 9.95781 13.3142 9.87672C13.475 9.79563 13.6144 9.67794 13.7214 9.53312C13.8284 9.3883 13.8998 9.22039 13.9301 9.04291C13.9603 8.86543 13.9485 8.68332 13.8955 8.51125L13.065 5.81301C12.9938 5.57709 12.8483 5.37049 12.6501 5.22399C12.452 5.07749 12.2118 4.99893 11.9653 5.00001Z" fill="white"/>
<path d="M9.49999 4C9.89556 4 10.2822 3.8827 10.6111 3.66294C10.94 3.44318 11.1964 3.13082 11.3478 2.76537C11.4991 2.39992 11.5387 1.99778 11.4616 1.60982C11.3844 1.22186 11.1939 0.865492 10.9142 0.585787C10.6345 0.306082 10.2781 0.115601 9.89017 0.0384303C9.50221 -0.0387401 9.10008 0.000866562 8.73463 0.152242C8.36917 0.303617 8.05682 0.559962 7.83705 0.88886C7.61729 1.21776 7.49999 1.60444 7.49999 2C7.50055 2.53026 7.71144 3.03865 8.08639 3.4136C8.46134 3.78855 8.96973 3.99945 9.49999 4ZM9.49999 1C9.69777 1 9.89111 1.05865 10.0556 1.16853C10.22 1.27841 10.3482 1.43459 10.4239 1.61732C10.4996 1.80004 10.5194 2.00111 10.4808 2.19509C10.4422 2.38907 10.347 2.56726 10.2071 2.70711C10.0672 2.84696 9.88906 2.9422 9.69508 2.98079C9.5011 3.01937 9.30003 2.99957 9.11731 2.92388C8.93458 2.84819 8.7784 2.72002 8.66852 2.55557C8.55864 2.39112 8.49999 2.19778 8.49999 2C8.5003 1.73488 8.60575 1.4807 8.79322 1.29323C8.98069 1.10576 9.23487 1.00031 9.49999 1Z" fill="white"/>
</svg>
