<svg width="18" height="25" viewBox="0 0 18 25" fill="none" xmlns="http://www.w3.org/2000/svg">
<path d="M9.00001 24.5C8.70333 24.5 8.41332 24.412 8.16665 24.2472C7.91997 24.0824 7.72771 23.8481 7.61418 23.574C7.50065 23.2999 7.47094 22.9983 7.52882 22.7074C7.5867 22.4164 7.72956 22.1491 7.93934 21.9393C8.14912 21.7296 8.4164 21.5867 8.70737 21.5288C8.99834 21.4709 9.29995 21.5006 9.57404 21.6142C9.84813 21.7277 10.0824 21.92 10.2472 22.1666C10.412 22.4133 10.5 22.7033 10.5 23C10.5 23.3978 10.342 23.7794 10.0607 24.0607C9.77937 24.342 9.39783 24.5 9.00001 24.5Z" fill="#828282"/>
<path d="M13.71 19.9999H4.29002C3.74504 20.0008 3.20642 19.8828 2.71167 19.6543C2.21693 19.4257 1.77794 19.0921 1.42527 18.6766C1.07261 18.2611 0.814739 17.7738 0.669625 17.2484C0.524511 16.7231 0.495638 16.1725 0.585015 15.6349L2.08502 6.30491C2.34959 4.67753 3.18449 3.19736 4.4404 2.12914C5.6963 1.06093 7.29127 0.474365 8.94002 0.474365C10.5888 0.474365 12.1837 1.06093 13.4396 2.12914C14.6955 3.19736 15.5304 4.67753 15.795 6.30491L17.295 15.6349C17.3752 16.1659 17.3419 16.7079 17.197 17.2251C17.0522 17.7422 16.7993 18.2228 16.455 18.6349C16.1194 19.043 15.7014 19.3755 15.2284 19.6107C14.7553 19.846 14.2379 19.9786 13.71 19.9999ZM9.00002 1.99991C7.71768 1.99514 6.47503 2.44435 5.49217 3.26798C4.5093 4.09161 3.84963 5.23652 3.63002 6.49992L2.13002 15.8299C2.07642 16.1537 2.0943 16.4853 2.18241 16.8014C2.27051 17.1175 2.42669 17.4105 2.64002 17.6599C2.8377 17.9112 3.08767 18.1164 3.37258 18.2615C3.65749 18.4065 3.97053 18.4879 4.29002 18.4999H13.71C14.0361 18.5021 14.3586 18.4319 14.6543 18.2944C14.95 18.157 15.2115 17.9556 15.42 17.7049C15.6333 17.4555 15.7895 17.1625 15.8776 16.8464C15.9657 16.5303 15.9836 16.1987 15.93 15.8749L14.37 6.49992C14.1504 5.23652 13.4907 4.09161 12.5079 3.26798C11.525 2.44435 10.2824 1.99514 9.00002 1.99991Z" fill="#828282"/>
</svg>
