<svg width="16" height="14" viewBox="0 0 16 14" fill="none" xmlns="http://www.w3.org/2000/svg">
<path d="M13.759 1.21509C12.5234 1.21509 11.518 2.22039 11.518 3.45606C11.518 4.69172 12.5233 5.69708 13.759 5.69708C14.9947 5.69708 16 4.69172 16 3.45606C16 2.22039 14.9947 1.21509 13.759 1.21509ZM13.759 4.75911C13.0405 4.75911 12.456 4.1746 12.456 3.45606C12.456 2.73757 13.0405 2.15305 13.759 2.15305C14.4775 2.15305 15.062 2.73757 15.062 3.45606C15.0621 4.1746 14.4775 4.75911 13.759 4.75911Z" fill="#BDBDBD"/>
<path d="M0.580288 4.2307C0.671871 4.32223 0.791898 4.36802 0.911925 4.36802C1.03195 4.36802 1.15198 4.32223 1.24356 4.2307L2.46247 3.0118L3.68138 4.2307C3.77296 4.32223 3.89299 4.36802 4.01302 4.36802C4.13304 4.36802 4.25307 4.32223 4.34465 4.2307C4.52776 4.04759 4.52776 3.7506 4.34465 3.56743L3.12569 2.34858L4.3446 1.12967C4.52771 0.946556 4.52771 0.649559 4.3446 0.466394C4.16143 0.283337 3.86454 0.283337 3.68133 0.466394L2.46247 1.6853L1.24356 0.466394C1.0604 0.283337 0.763507 0.283337 0.580288 0.466394C0.397177 0.649506 0.397177 0.946502 0.580288 1.12967L1.7992 2.34858L0.580288 3.56743C0.397177 3.7506 0.397177 4.04754 0.580288 4.2307Z" fill="#BDBDBD"/>
<path d="M10.5467 9.76962C10.3635 9.58656 10.0666 9.58656 9.88338 9.76962L8.66452 10.9885L7.44561 9.76962C7.26245 9.58656 6.96556 9.58656 6.78234 9.76962C6.59923 9.95278 6.59923 10.2497 6.78234 10.4329L8.00125 11.6517L6.78234 12.8706C6.59923 13.0538 6.59923 13.3508 6.78234 13.5339C6.87392 13.6254 6.99395 13.6712 7.11397 13.6712C7.234 13.6712 7.35403 13.6254 7.44561 13.5339L8.66452 12.315L9.88338 13.5339C9.97496 13.6254 10.095 13.6712 10.215 13.6712C10.335 13.6712 10.4551 13.6254 10.5467 13.5339C10.7298 13.3507 10.7298 13.0538 10.5467 12.8706L9.3278 11.6517L10.5467 10.4329C10.7298 10.2497 10.7298 9.95273 10.5467 9.76962Z" fill="#BDBDBD"/>
<path d="M10.5832 3.19342L8.69189 1.54935C8.49644 1.37939 8.2002 1.40023 8.03028 1.59563C7.86037 1.79108 7.88111 2.08727 8.07656 2.25723L9.07955 3.12915C6.11917 3.51633 4.36633 5.06338 3.3919 6.37096C2.5384 7.51628 2.13937 8.64442 1.97915 9.20506C0.866479 9.33516 0 10.2832 0 11.4302C0 12.6659 1.00531 13.6713 2.24097 13.6713C3.47664 13.6713 4.482 12.666 4.482 11.4302C4.482 10.4356 3.83036 9.59062 2.93172 9.29869C3.1005 8.76547 3.46608 7.83181 4.16668 6.90122C5.38635 5.28123 7.08068 4.32721 9.21213 4.05591L8.27756 5.13104C8.10764 5.32649 8.12838 5.62268 8.32383 5.79264C8.41261 5.86984 8.52219 5.90766 8.63128 5.90766C8.76235 5.90766 8.89272 5.85303 8.98544 5.74637L10.6295 3.85502C10.7994 3.65952 10.7787 3.36339 10.5832 3.19342ZM3.54403 11.4302C3.54403 12.1488 2.95952 12.7333 2.24097 12.7333C1.52248 12.7333 0.937967 12.1488 0.937967 11.4302C0.937967 10.7118 1.52248 10.1272 2.24097 10.1272C2.95946 10.1272 3.54403 10.7118 3.54403 11.4302Z" fill="#BDBDBD"/>
</svg>
