<svg width="24" height="24" viewBox="0 0 24 24" fill="none" xmlns="http://www.w3.org/2000/svg">
<path d="M12 0C5.37262 0 0 5.37262 0 12C0 18.6274 5.37262 24 12 24C18.6278 24 24 18.6274 24 12C24 5.37262 18.6278 0 12 0ZM12 21.6C6.70655 21.6 2.4 17.2935 2.4 12C2.4 6.70655 6.70655 2.4 12 2.4C17.2935 2.4 21.6 6.70655 21.6 12C21.6 17.2935 17.2935 21.6 12 21.6Z" fill="white"/>
<path d="M16.3648 11.1601L10.5453 7.8001C9.74516 7.33834 9.09045 7.7161 9.09045 8.64011V15.3601C9.09045 16.2841 9.74516 16.6624 10.5453 16.2001L16.3648 12.8401C17.165 12.3783 17.165 11.6219 16.3648 11.1601Z" fill="white"/>
</svg>
