<svg width="10" height="16" viewBox="0 0 10 16" fill="none" xmlns="http://www.w3.org/2000/svg">
<path d="M8.46572 0.969969C8.67352 0.965398 8.87758 1.02564 9.04954 1.1424C9.22149 1.25917 9.3528 1.4267 9.42519 1.62154C9.49758 1.81638 9.50747 2.0289 9.45348 2.22962C9.39948 2.43034 9.28429 2.60917 9.12392 2.74139L3.00478 7.98357L9.12392 13.2239C9.23486 13.3054 9.32777 13.409 9.39682 13.5281C9.46588 13.6472 9.50961 13.7793 9.52526 13.9161C9.54091 14.0529 9.52814 14.1914 9.48777 14.323C9.4474 14.4546 9.38028 14.5765 9.29062 14.681C9.20097 14.7855 9.0907 14.8703 8.96674 14.9302C8.84277 14.9901 8.70777 15.0237 8.5702 15.029C8.43262 15.0343 8.29543 15.0112 8.16722 14.9611C8.039 14.9109 7.92253 14.8348 7.82509 14.7375L0.819232 8.74333C0.709213 8.64944 0.620869 8.53291 0.560289 8.40157C0.49971 8.27023 0.46834 8.12728 0.46834 7.98265C0.46834 7.83801 0.49971 7.69506 0.560289 7.56373C0.620869 7.43239 0.709213 7.31574 0.819232 7.22185L7.82509 1.22188C8.00207 1.06468 8.22907 0.975307 8.46572 0.969738V0.969969Z" fill="#4F4F4F"/>
</svg>
