<svg width="18" height="17" viewBox="0 0 18 17" fill="none" xmlns="http://www.w3.org/2000/svg">
<path d="M1.09715 17.0002C0.806168 17.0002 0.527104 16.8846 0.321348 16.6789C0.115592 16.4731 0 16.1941 0 15.9031V6.47224C0 5.99398 0.18999 5.5353 0.528173 5.19712C0.866357 4.85893 1.32503 4.66895 1.8033 4.66895H13.3701C13.8483 4.66895 14.307 4.85893 14.6452 5.19712C14.9834 5.5353 15.1734 5.99398 15.1734 6.47224V13.3703C15.1734 13.8485 14.9834 14.3072 14.6452 14.6454C14.307 14.9836 13.8483 15.1736 13.3701 15.1736H4.03261C3.93173 15.1744 3.83369 15.2071 3.75249 15.267L1.75077 16.7785C1.56223 16.9204 1.33314 16.9981 1.09715 17.0002ZM1.8033 5.83613C1.63459 5.83613 1.47279 5.90315 1.3535 6.02244C1.2342 6.14174 1.16718 6.30353 1.16718 6.47224V15.7572L3.05218 14.3332C3.33561 14.1222 3.67926 14.0076 4.03261 14.0064H13.3701C13.5388 14.0064 13.7006 13.9394 13.8199 13.8201C13.9392 13.7008 14.0062 13.539 14.0062 13.3703V6.47224C14.0062 6.30353 13.9392 6.14174 13.8199 6.02244C13.7006 5.90315 13.5388 5.83613 13.3701 5.83613H1.8033Z" fill="white"/>
<path d="M16.4106 12.3313C16.1745 12.3296 15.9453 12.2518 15.7569 12.1095L14.0062 10.7848V6.46619C14.0046 6.29849 13.9369 6.13819 13.8178 6.02015C13.6987 5.90212 13.5378 5.8359 13.3701 5.83591H2.33435V1.8033C2.33435 1.32503 2.52434 0.866357 2.86252 0.528173C3.20071 0.18999 3.65938 0 4.13765 0H15.7044C16.1827 0 16.6414 0.18999 16.9795 0.528173C17.3177 0.866357 17.5077 1.32503 17.5077 1.8033V11.2341C17.5077 11.5251 17.3921 11.8042 17.1864 12.0099C16.9806 12.2157 16.7015 12.3313 16.4106 12.3313ZM15.1733 10.207L16.3405 11.0882V1.8033C16.3405 1.63459 16.2735 1.47279 16.1542 1.3535C16.0349 1.2342 15.8731 1.16718 15.7044 1.16718H4.13765C3.96894 1.16718 3.80714 1.2342 3.68785 1.3535C3.56855 1.47279 3.50153 1.63459 3.50153 1.8033V4.66873H13.3701C13.8483 4.66873 14.307 4.85872 14.6452 5.1969C14.9834 5.53508 15.1733 5.99376 15.1733 6.47202V10.207Z" fill="white"/>
<path d="M9.88602 10.5573C10.2083 10.5573 10.4696 10.296 10.4696 9.97373C10.4696 9.65142 10.2083 9.39014 9.88602 9.39014C9.56371 9.39014 9.30243 9.65142 9.30243 9.97373C9.30243 10.296 9.56371 10.5573 9.88602 10.5573Z" fill="white"/>
<path d="M7.62171 10.5573C7.94402 10.5573 8.2053 10.296 8.2053 9.97373C8.2053 9.65142 7.94402 9.39014 7.62171 9.39014C7.2994 9.39014 7.03812 9.65142 7.03812 9.97373C7.03812 10.296 7.2994 10.5573 7.62171 10.5573Z" fill="white"/>
<path d="M5.28733 10.5573C5.60963 10.5573 5.87092 10.296 5.87092 9.97373C5.87092 9.65142 5.60963 9.39014 5.28733 9.39014C4.96502 9.39014 4.70374 9.65142 4.70374 9.97373C4.70374 10.296 4.96502 10.5573 5.28733 10.5573Z" fill="white"/>
</svg>
