<svg width="24" height="25" viewBox="0 0 24 25" fill="none" xmlns="http://www.w3.org/2000/svg">
<path d="M9.89221 20.2661C4.44267 20.2661 0.00915527 15.8326 0.00915527 10.3831C0.00915527 4.93351 4.44267 0.5 9.89221 0.5C15.3418 0.5 19.7753 4.93351 19.7753 10.3831C19.7753 15.8326 15.3418 20.2661 9.89221 20.2661ZM9.89221 2.37357C5.47575 2.37357 1.88272 5.9666 1.88272 10.3831C1.88272 14.7995 5.47575 18.3925 9.89221 18.3925C14.3087 18.3925 17.9017 14.7995 17.9017 10.3831C17.9017 5.9666 14.3087 2.37357 9.89221 2.37357ZM23.7165 24.2256C24.0823 23.8598 24.0823 23.2666 23.7165 22.9008L19.5244 18.7087C19.1585 18.3428 18.5653 18.3428 18.1995 18.7087C17.8337 19.0745 17.8337 19.6677 18.1995 20.0335L22.3916 24.2256C22.5745 24.4085 22.8143 24.5 23.0541 24.5C23.2938 24.5 23.5335 24.4085 23.7165 24.2256Z" fill="#828282"/>
</svg>
