<svg width="14" height="14" viewBox="0 0 14 14" fill="none" xmlns="http://www.w3.org/2000/svg">
<path d="M1.55709 14H7.79584C7.97588 14 8.15341 13.9578 8.31415 13.8767C8.4749 13.7956 8.61436 13.6779 8.72133 13.5331C8.82829 13.3883 8.89977 13.2204 8.93001 13.0429C8.96025 12.8654 8.94841 12.6833 8.89544 12.5113L8.06493 9.81301C7.99373 9.57709 7.84821 9.37049 7.65005 9.22399C7.4519 9.07749 7.21171 8.99893 6.96529 9.00001H2.38764C2.14136 8.99908 1.90135 9.07761 1.70325 9.22394C1.50516 9.37027 1.35954 9.57659 1.28804 9.81226L0.457435 12.5115C0.4046 12.6835 0.392862 12.8656 0.423163 13.043C0.453465 13.2204 0.524962 13.3882 0.63191 13.533C0.738857 13.6778 0.878272 13.7954 1.03895 13.8766C1.19963 13.9577 1.3771 13.9999 1.55709 14ZM1.41349 12.805L2.24409 10.106C2.25343 10.0753 2.27244 10.0483 2.2983 10.0292C2.32416 10.0101 2.35549 9.99989 2.38764 10H3.99994V11.5C3.99994 11.6326 4.05261 11.7598 4.14638 11.8536C4.24015 11.9473 4.36733 12 4.49994 12C4.63254 12 4.75972 11.9473 4.85349 11.8536C4.94726 11.7598 4.99994 11.6326 4.99994 11.5V10H6.96529C6.99746 9.99987 7.02883 10.0101 7.05469 10.0293C7.08056 10.0484 7.09955 10.0754 7.10884 10.1062L7.93939 12.8054C7.94639 12.8279 7.948 12.8517 7.94409 12.8749C7.94018 12.8981 7.93086 12.9201 7.91688 12.939C7.9029 12.958 7.88466 12.9734 7.86363 12.984C7.84261 12.9946 7.81938 13.0001 7.79584 13H1.55709C1.53354 12.9999 1.51034 12.9943 1.48935 12.9837C1.46835 12.973 1.45014 12.9576 1.43618 12.9387C1.42222 12.9197 1.41289 12.8977 1.40895 12.8745C1.40501 12.8513 1.40656 12.8275 1.41349 12.805Z" fill="white"/>
<path d="M2.5 6C2.5 6.39556 2.6173 6.78224 2.83706 7.11114C3.05682 7.44004 3.36918 7.69638 3.73463 7.84776C4.10009 7.99913 4.50222 8.03874 4.89018 7.96157C5.27814 7.8844 5.63451 7.69392 5.91421 7.41421C6.19392 7.13451 6.3844 6.77814 6.46157 6.39018C6.53874 6.00222 6.49914 5.60009 6.34776 5.23463C6.19638 4.86918 5.94004 4.55682 5.61114 4.33706C5.28224 4.1173 4.89556 4 4.5 4C3.96974 4.00056 3.46135 4.21145 3.0864 4.5864C2.71145 4.96135 2.50056 5.46974 2.5 6ZM5.5 6C5.5 6.19778 5.44135 6.39112 5.33147 6.55557C5.22159 6.72002 5.06541 6.84819 4.88268 6.92388C4.69996 6.99957 4.49889 7.01937 4.30491 6.98079C4.11093 6.9422 3.93275 6.84696 3.79289 6.70711C3.65304 6.56725 3.5578 6.38907 3.51921 6.19509C3.48063 6.00111 3.50043 5.80004 3.57612 5.61732C3.65181 5.43459 3.77998 5.27841 3.94443 5.16853C4.10888 5.05865 4.30222 5 4.5 5C4.76512 5.0003 5.0193 5.10576 5.20677 5.29323C5.39424 5.4807 5.4997 5.73488 5.5 6Z" fill="white"/>
<path d="M11.9654 5.00001H8C7.86739 5.00001 7.74021 5.05269 7.64645 5.14646C7.55268 5.24023 7.5 5.3674 7.5 5.50001C7.5 5.63262 7.55268 5.75979 7.64645 5.85356C7.74021 5.94733 7.86739 6.00001 8 6.00001H11.9654C11.9975 5.99987 12.0289 6.01014 12.0548 6.02927C12.0806 6.04841 12.0996 6.0754 12.1089 6.10621L12.9395 8.8054C12.9465 8.82788 12.9481 8.8517 12.9442 8.87491C12.9402 8.89813 12.9309 8.9201 12.917 8.93905C12.903 8.958 12.8847 8.97339 12.8637 8.98398C12.8427 8.99457 12.8195 9.00006 12.7959 9H9.5C9.36739 9 9.24022 9.05268 9.14645 9.14645C9.05268 9.24022 9 9.36739 9 9.5C9 9.63261 9.05268 9.75979 9.14645 9.85356C9.24022 9.94732 9.36739 10 9.5 10H12.7959C12.9759 10 13.1535 9.95781 13.3142 9.87672C13.475 9.79563 13.6144 9.67794 13.7214 9.53312C13.8284 9.3883 13.8998 9.22039 13.9301 9.04291C13.9603 8.86543 13.9485 8.68332 13.8955 8.51125L13.065 5.81301C12.9938 5.57709 12.8483 5.37049 12.6501 5.22399C12.452 5.07749 12.2118 4.99893 11.9654 5.00001Z" fill="white"/>
<path d="M9.5 4C9.89556 4 10.2822 3.8827 10.6111 3.66294C10.94 3.44318 11.1964 3.13082 11.3478 2.76537C11.4991 2.39992 11.5387 1.99778 11.4616 1.60982C11.3844 1.22186 11.1939 0.865492 10.9142 0.585787C10.6345 0.306082 10.2781 0.115601 9.89018 0.0384303C9.50222 -0.0387401 9.10009 0.000866562 8.73463 0.152242C8.36918 0.303617 8.05682 0.559962 7.83706 0.88886C7.6173 1.21776 7.5 1.60444 7.5 2C7.50056 2.53026 7.71145 3.03865 8.0864 3.4136C8.46135 3.78855 8.96974 3.99945 9.5 4ZM9.5 1C9.69778 1 9.89112 1.05865 10.0556 1.16853C10.22 1.27841 10.3482 1.43459 10.4239 1.61732C10.4996 1.80004 10.5194 2.00111 10.4808 2.19509C10.4422 2.38907 10.347 2.56726 10.2071 2.70711C10.0673 2.84696 9.88907 2.9422 9.69509 2.98079C9.50111 3.01937 9.30004 2.99957 9.11732 2.92388C8.93459 2.84819 8.77841 2.72002 8.66853 2.55557C8.55865 2.39112 8.5 2.19778 8.5 2C8.5003 1.73488 8.60576 1.4807 8.79323 1.29323C8.9807 1.10576 9.23488 1.00031 9.5 1Z" fill="white"/>
</svg>
