<svg width="22" height="21" viewBox="0 0 22 21" fill="none" xmlns="http://www.w3.org/2000/svg">
<path d="M5.18001 20.5001C4.99455 20.5007 4.8113 20.4598 4.64365 20.3805C4.47601 20.3012 4.3282 20.1854 4.21103 20.0417C4.09386 19.8979 4.0103 19.7298 3.96643 19.5496C3.92257 19.3694 3.91952 19.1816 3.95751 19.0001L4.95501 13.1651L0.717507 9.04762C0.551472 8.88542 0.434086 8.68004 0.378599 8.45465C0.323113 8.22927 0.331736 7.99287 0.403496 7.77213C0.475256 7.55139 0.607294 7.35511 0.784705 7.20544C0.962116 7.05577 1.17783 6.95867 1.40751 6.92512L7.25001 6.07762L9.86751 0.767617C9.96845 0.554678 10.1277 0.37476 10.3269 0.248774C10.526 0.122788 10.7569 0.0559082 10.9925 0.0559082C11.2282 0.0559082 11.459 0.122788 11.6581 0.248774C11.8573 0.37476 12.0166 0.554678 12.1175 0.767617L14.75 6.07762L20.6075 6.93262C20.8372 6.96617 21.0529 7.06327 21.2303 7.21294C21.4077 7.36261 21.5398 7.55889 21.6115 7.77963C21.6833 8.00037 21.6919 8.23677 21.6364 8.46216C21.5809 8.68754 21.4635 8.89292 21.2975 9.05512L17.06 13.1876L18.0425 19.0001C18.0816 19.2278 18.0566 19.4619 17.9703 19.6761C17.884 19.8904 17.7398 20.0765 17.5537 20.2135C17.3677 20.3504 17.1473 20.433 16.917 20.4518C16.6868 20.4706 16.4558 20.425 16.25 20.3201L11 17.5676L5.75001 20.3201C5.57757 20.4258 5.38186 20.4876 5.18001 20.5001ZM2.14251 8.33512L6.10251 12.1976C6.24801 12.338 6.3569 12.5119 6.41966 12.7041C6.48242 12.8963 6.49713 13.1009 6.46251 13.3001L5.52501 18.7451L10.4225 16.1726C10.6007 16.0793 10.7989 16.0306 11 16.0306C11.2012 16.0306 11.3993 16.0793 11.5775 16.1726L16.475 18.7451L15.5375 13.2926C15.5029 13.0934 15.5176 12.8888 15.5804 12.6966C15.6431 12.5044 15.752 12.3305 15.8975 12.1901L19.8575 8.32762L14.3825 7.53262C14.1826 7.50346 13.9928 7.42609 13.8294 7.30718C13.6661 7.18827 13.5342 7.03141 13.445 6.85012L11 1.90012L8.55501 6.85762C8.46584 7.03891 8.3339 7.19577 8.17057 7.31468C8.00724 7.43359 7.81742 7.51096 7.61751 7.54012L2.14251 8.33512Z" fill="white"/>
</svg>
