<svg width="16" height="16" viewBox="0 0 16 16" fill="none" xmlns="http://www.w3.org/2000/svg">
<g clip-path="url(#clip0)">
<path d="M14.1666 13.3334H11.3799C11.1039 13.3334 10.8799 13.1094 10.8799 12.8334C10.8799 12.5574 11.1039 12.3334 11.3799 12.3334H13.8159L14.7859 9.66675H1.21328L2.18328 12.3334H4.61994C4.89594 12.3334 5.11994 12.5574 5.11994 12.8334C5.11994 13.1094 4.89594 13.3334 4.61994 13.3334H1.83328C1.62328 13.3334 1.43528 13.2021 1.36328 13.0041L0.0299428 9.33741C-0.0253905 9.18408 -0.00339052 9.01341 0.0906095 8.87941C0.183943 8.74608 0.336609 8.66675 0.499943 8.66675H15.4999C15.6633 8.66675 15.8159 8.74608 15.9093 8.88008C16.0033 9.01341 16.0253 9.18475 15.9699 9.33808L14.6366 13.0047C14.5646 13.2021 14.3766 13.3334 14.1666 13.3334Z" fill="#BDBDBD"/>
<path d="M10.834 16.0001C10.8087 16.0001 10.7834 15.9981 10.7574 15.9941C10.4847 15.9521 10.2974 15.6967 10.3394 15.4241L10.9174 11.6667H5.08269L5.66069 15.4241C5.70269 15.6974 5.51536 15.9521 5.24269 15.9941C4.97003 16.0387 4.71403 15.8494 4.67269 15.5761L4.00603 11.2427C3.98403 11.0987 4.02536 10.9514 4.12069 10.8407C4.21603 10.7301 4.35403 10.6667 4.50003 10.6667H11.5C11.646 10.6667 11.7847 10.7307 11.8794 10.8414C11.974 10.9521 12.016 11.0987 11.994 11.2434L11.3274 15.5767C11.29 15.8234 11.0767 16.0001 10.834 16.0001Z" fill="#BDBDBD"/>
<path d="M15 9.49988C14.724 9.49988 14.5 9.27588 14.5 8.99988C14.5 7.68055 13.7946 6.43188 12.6593 5.74055C12.4233 5.59655 12.3486 5.28921 12.4926 5.05321C12.6366 4.81721 12.944 4.74255 13.18 4.88655C14.6106 5.75855 15.4993 7.33455 15.4993 8.99988C15.4999 9.27588 15.2759 9.49988 15 9.49988Z" fill="#BDBDBD"/>
<path d="M12.3334 6C12.8857 6 13.3334 5.55228 13.3334 5C13.3334 4.44772 12.8857 4 12.3334 4C11.7811 4 11.3334 4.44772 11.3334 5C11.3334 5.55228 11.7811 6 12.3334 6Z" fill="#BDBDBD"/>
<path d="M8.00004 5.33333C6.52937 5.33333 5.33337 4.13733 5.33337 2.66667C5.33337 1.196 6.52937 0 8.00004 0C9.4707 0 10.6667 1.196 10.6667 2.66667C10.6667 4.13733 9.4707 5.33333 8.00004 5.33333ZM8.00004 1C7.0807 1 6.33337 1.748 6.33337 2.66667C6.33337 3.58533 7.0807 4.33333 8.00004 4.33333C8.91937 4.33333 9.6667 3.58533 9.6667 2.66667C9.6667 1.748 8.91937 1 8.00004 1Z" fill="#BDBDBD"/>
<path d="M13 9.66666C12.724 9.66666 12.5 9.44266 12.5 9.16666C12.5 7.972 11.528 7 10.3333 7H5.66667C4.472 7 3.5 7.972 3.5 9.16666C3.5 9.44266 3.276 9.66666 3 9.66666C2.724 9.66666 2.5 9.44266 2.5 9.16666C2.5 7.42066 3.92067 6 5.66667 6H10.3333C12.0793 6 13.5 7.42066 13.5 9.16666C13.5 9.44266 13.276 9.66666 13 9.66666Z" fill="#BDBDBD"/>
</g>
<defs>
<clipPath id="clip0">
<rect width="16" height="16" fill="white"/>
</clipPath>
</defs>
</svg>
