<svg width="16" height="17" viewBox="0 0 16 17" fill="none" xmlns="http://www.w3.org/2000/svg">
<path d="M15.3 0H0.566667C0.253705 0 0 0.253705 0 0.566667C0 0.879628 0.253705 1.13333 0.566667 1.13333H15.3C15.613 1.13333 15.8667 0.879628 15.8667 0.566667C15.8667 0.253705 15.613 0 15.3 0Z" fill="#6FCF97"/>
<path d="M11.3333 17H3.22995C2.82417 17 2.43501 16.8388 2.14808 16.5519C1.86115 16.2649 1.69995 15.8758 1.69995 15.47V0H14.1666V13.7417C14.1708 14.1532 14.0327 14.5536 13.7756 14.875L12.512 16.4333C12.3698 16.6093 12.1903 16.7515 11.9865 16.8495C11.7826 16.9475 11.5595 16.9989 11.3333 17ZM2.83328 1.13333V15.47C2.83328 15.5752 2.87508 15.6761 2.94947 15.7505C3.02385 15.8249 3.12475 15.8667 3.22995 15.8667H11.3333C11.392 15.8663 11.4499 15.8529 11.5028 15.8274C11.5558 15.8019 11.6024 15.765 11.6393 15.7193L12.8916 14.1667C12.983 14.0525 13.033 13.9106 13.0333 13.7643V1.13333H2.83328Z" fill="#6FCF97"/>
<path d="M10.2 6.12573H5.66664C5.35368 6.12573 5.09998 6.37944 5.09998 6.6924C5.09998 7.00536 5.35368 7.25907 5.66664 7.25907H10.2C10.5129 7.25907 10.7666 7.00536 10.7666 6.6924C10.7666 6.37944 10.5129 6.12573 10.2 6.12573Z" fill="#6FCF97"/>
<path d="M6.79998 3.68335H5.66664C5.35368 3.68335 5.09998 3.93705 5.09998 4.25002C5.09998 4.56298 5.35368 4.81668 5.66664 4.81668H6.79998C7.11294 4.81668 7.36664 4.56298 7.36664 4.25002C7.36664 3.93705 7.11294 3.68335 6.79998 3.68335Z" fill="#6FCF97"/>
<path d="M10.2 8.5H5.66664C5.35368 8.5 5.09998 8.75371 5.09998 9.06667C5.09998 9.37963 5.35368 9.63333 5.66664 9.63333H10.2C10.5129 9.63333 10.7666 9.37963 10.7666 9.06667C10.7666 8.75371 10.5129 8.5 10.2 8.5Z" fill="#6FCF97"/>
<path d="M10.2 10.9424H5.66664C5.35368 10.9424 5.09998 11.1961 5.09998 11.509C5.09998 11.822 5.35368 12.0757 5.66664 12.0757H10.2C10.5129 12.0757 10.7666 11.822 10.7666 11.509C10.7666 11.1961 10.5129 10.9424 10.2 10.9424Z" fill="#6FCF97"/>
</svg>
