<svg width="16" height="17" viewBox="0 0 16 17" fill="none" xmlns="http://www.w3.org/2000/svg">
<path d="M15.3 0H0.566667C0.253705 0 0 0.253705 0 0.566667C0 0.879628 0.253705 1.13333 0.566667 1.13333H15.3C15.613 1.13333 15.8667 0.879628 15.8667 0.566667C15.8667 0.253705 15.613 0 15.3 0Z" fill="#D08B2E"/>
<path d="M11.3333 17H3.23001C2.82423 17 2.43507 16.8388 2.14814 16.5519C1.86121 16.2649 1.70001 15.8758 1.70001 15.47V0H14.1667V13.7417C14.1709 14.1532 14.0328 14.5536 13.7757 14.875L12.512 16.4333C12.3699 16.6093 12.1904 16.7515 11.9865 16.8495C11.7827 16.9475 11.5595 16.9989 11.3333 17ZM2.83335 1.13333V15.47C2.83335 15.5752 2.87514 15.6761 2.94953 15.7505C3.02392 15.8249 3.12481 15.8667 3.23001 15.8667H11.3333C11.3921 15.8663 11.45 15.8529 11.5029 15.8274C11.5558 15.8019 11.6024 15.765 11.6393 15.7193L12.8917 14.1667C12.9831 14.0525 13.033 13.9106 13.0333 13.7643V1.13333H2.83335Z" fill="#D08B2E"/>
<path d="M10.2 6.12573H5.66667C5.35371 6.12573 5.10001 6.37944 5.10001 6.6924C5.10001 7.00536 5.35371 7.25907 5.66667 7.25907H10.2C10.513 7.25907 10.7667 7.00536 10.7667 6.6924C10.7667 6.37944 10.513 6.12573 10.2 6.12573Z" fill="#D08B2E"/>
<path d="M6.80001 3.68335H5.66667C5.35371 3.68335 5.10001 3.93705 5.10001 4.25002C5.10001 4.56298 5.35371 4.81668 5.66667 4.81668H6.80001C7.11297 4.81668 7.36667 4.56298 7.36667 4.25002C7.36667 3.93705 7.11297 3.68335 6.80001 3.68335Z" fill="#D08B2E"/>
<path d="M10.2 8.5H5.66667C5.35371 8.5 5.10001 8.75371 5.10001 9.06667C5.10001 9.37963 5.35371 9.63333 5.66667 9.63333H10.2C10.513 9.63333 10.7667 9.37963 10.7667 9.06667C10.7667 8.75371 10.513 8.5 10.2 8.5Z" fill="#D08B2E"/>
<path d="M10.2 10.9424H5.66667C5.35371 10.9424 5.10001 11.1961 5.10001 11.509C5.10001 11.822 5.35371 12.0757 5.66667 12.0757H10.2C10.513 12.0757 10.7667 11.822 10.7667 11.509C10.7667 11.1961 10.513 10.9424 10.2 10.9424Z" fill="#D08B2E"/>
</svg>
