<svg width="18" height="18" viewBox="0 0 18 18" fill="none" xmlns="http://www.w3.org/2000/svg">
<path d="M4.46797 0.5C2.2812 0.5 0.501301 2.53377 0.501301 5.03333C0.481817 5.85536 0.681505 6.66776 1.07986 7.38708C1.47821 8.1064 2.06086 8.70672 2.76797 9.12637V15.8C2.76797 16.2509 2.94707 16.6833 3.26589 17.0021C3.5847 17.3209 4.0171 17.5 4.46797 17.5C4.91884 17.5 5.35124 17.3209 5.67005 17.0021C5.98886 16.6833 6.16797 16.2509 6.16797 15.8V9.12637C6.87508 8.70672 7.45773 8.1064 7.85608 7.38708C8.25443 6.66776 8.45412 5.85536 8.43463 5.03333C8.43463 2.53377 6.65474 0.5 4.46797 0.5ZM5.38483 8.24577C5.28121 8.2886 5.19262 8.36122 5.13028 8.45442C5.06794 8.54763 5.03465 8.65724 5.03463 8.76937V15.8C5.03463 15.9503 4.97493 16.0944 4.86866 16.2007C4.76239 16.307 4.61826 16.3667 4.46797 16.3667C4.31768 16.3667 4.17354 16.307 4.06727 16.2007C3.961 16.0944 3.9013 15.9503 3.9013 15.8V8.76937C3.90128 8.65724 3.868 8.54763 3.80566 8.45442C3.74332 8.36122 3.65473 8.2886 3.5511 8.24577C2.95376 7.95482 2.45428 7.49592 2.11387 6.92531C1.77346 6.35471 1.60691 5.69719 1.63463 5.03333C1.63463 3.15823 2.90567 1.63333 4.46797 1.63333C6.03027 1.63333 7.3013 3.15823 7.3013 5.03333C7.32903 5.69719 7.16248 6.35471 6.82207 6.92531C6.48166 7.49592 5.98218 7.95482 5.38483 8.24577Z" fill="#DFB15E"/>
<path d="M16.9347 0.5C16.7844 0.5 16.6402 0.559702 16.534 0.665973C16.4277 0.772243 16.368 0.916377 16.368 1.06667V6.73333C16.368 7.1842 16.1889 7.6166 15.8701 7.93541C15.5513 8.25423 15.1189 8.43333 14.668 8.43333C14.5177 8.43333 14.3736 8.49304 14.2673 8.59931C14.161 8.70558 14.1013 8.84971 14.1013 9V15.8C14.1013 15.9503 14.0416 16.0944 13.9354 16.2007C13.8291 16.307 13.6849 16.3667 13.5347 16.3667C13.3844 16.3667 13.2402 16.307 13.134 16.2007C13.0277 16.0944 12.968 15.9503 12.968 15.8V9C12.968 8.84971 12.9083 8.70558 12.802 8.59931C12.6957 8.49304 12.5516 8.43333 12.4013 8.43333C11.9505 8.43333 11.5181 8.25423 11.1992 7.93541C10.8804 7.6166 10.7013 7.1842 10.7013 6.73333V1.06667C10.7013 0.916377 10.6416 0.772243 10.5354 0.665973C10.4291 0.559702 10.2849 0.5 10.1347 0.5C9.98437 0.5 9.84024 0.559702 9.73397 0.665973C9.62769 0.772243 9.56799 0.916377 9.56799 1.06667V6.73333C9.56871 7.38628 9.79457 8.019 10.2075 8.52481C10.6204 9.03062 11.1951 9.37858 11.8347 9.51V15.8C11.8347 16.2509 12.0138 16.6833 12.3326 17.0021C12.6514 17.3209 13.0838 17.5 13.5347 17.5C13.9855 17.5 14.4179 17.3209 14.7367 17.0021C15.0556 16.6833 15.2347 16.2509 15.2347 15.8V9.51C15.8742 9.37858 16.4489 9.03062 16.8618 8.52481C17.2748 8.019 17.5006 7.38628 17.5013 6.73333V1.06667C17.5013 0.916377 17.4416 0.772243 17.3354 0.665973C17.2291 0.559702 17.0849 0.5 16.9347 0.5Z" fill="#DFB15E"/>
<path d="M12.4013 7.3C12.5516 7.3 12.6957 7.2403 12.802 7.13403C12.9083 7.02776 12.968 6.88362 12.968 6.73333V1.06667C12.968 0.916377 12.9083 0.772243 12.802 0.665973C12.6957 0.559702 12.5516 0.5 12.4013 0.5C12.251 0.5 12.1069 0.559702 12.0006 0.665973C11.8943 0.772243 11.8346 0.916377 11.8346 1.06667V6.73333C11.8346 6.88362 11.8943 7.02776 12.0006 7.13403C12.1069 7.2403 12.251 7.3 12.4013 7.3Z" fill="#DFB15E"/>
<path d="M14.668 7.3C14.8183 7.3 14.9624 7.2403 15.0687 7.13403C15.175 7.02776 15.2347 6.88362 15.2347 6.73333V1.06667C15.2347 0.916377 15.175 0.772243 15.0687 0.665973C14.9624 0.559702 14.8183 0.5 14.668 0.5C14.5177 0.5 14.3736 0.559702 14.2673 0.665973C14.1611 0.772243 14.1013 0.916377 14.1013 1.06667V6.73333C14.1013 6.88362 14.1611 7.02776 14.2673 7.13403C14.3736 7.2403 14.5177 7.3 14.668 7.3Z" fill="#DFB15E"/>
</svg>
