<svg width="16" height="16" viewBox="0 0 16 16" fill="none" xmlns="http://www.w3.org/2000/svg">
<path d="M1.44 15.065C1.1907 15.065 0.951604 14.966 0.77532 14.7897C0.599035 14.6134 0.5 14.3743 0.5 14.125V6.045C0.5 5.63524 0.662776 5.24226 0.95252 4.95252C1.24226 4.66278 1.63524 4.5 2.045 4.5H11.955C12.3648 4.5 12.7577 4.66278 13.0475 4.95252C13.3372 5.24226 13.5 5.63524 13.5 6.045V11.955C13.5 12.3648 13.3372 12.7577 13.0475 13.0475C12.7577 13.3372 12.3648 13.5 11.955 13.5H3.955C3.86857 13.5007 3.78457 13.5287 3.715 13.58L2 14.875C1.83847 14.9966 1.64219 15.0632 1.44 15.065ZM2.045 5.5C1.90046 5.5 1.76183 5.55742 1.65963 5.65963C1.55742 5.76183 1.5 5.90046 1.5 6.045V14L3.115 12.78C3.35784 12.5992 3.65226 12.5011 3.955 12.5H11.955C12.0995 12.5 12.2382 12.4426 12.3404 12.3404C12.4426 12.2382 12.5 12.0995 12.5 11.955V6.045C12.5 5.90046 12.4426 5.76183 12.3404 5.65963C12.2382 5.55742 12.0995 5.5 11.955 5.5H2.045Z" fill="#BDBDBD"/>
<path d="M14.56 11.065C14.3578 11.0636 14.1614 10.9969 14 10.875L12.5 9.74V6.04C12.4987 5.89633 12.4407 5.75898 12.3386 5.65786C12.2366 5.55673 12.0987 5.49999 11.955 5.5H2.5V2.045C2.5 1.63524 2.66278 1.24226 2.95252 0.95252C3.24226 0.662776 3.63524 0.5 4.045 0.5H13.955C14.3648 0.5 14.7577 0.662776 15.0475 0.95252C15.3372 1.24226 15.5 1.63524 15.5 2.045V10.125C15.5 10.3743 15.401 10.6134 15.2247 10.7897C15.0484 10.966 14.8093 11.065 14.56 11.065ZM13.5 9.245L14.5 10V2.045C14.5 1.90046 14.4426 1.76183 14.3404 1.65963C14.2382 1.55742 14.0995 1.5 13.955 1.5H4.045C3.90046 1.5 3.76183 1.55742 3.65963 1.65963C3.55742 1.76183 3.5 1.90046 3.5 2.045V4.5H11.955C12.3648 4.5 12.7577 4.66278 13.0475 4.95252C13.3372 5.24226 13.5 5.63524 13.5 6.045V9.245Z" fill="#BDBDBD"/>
<path d="M8.96997 9.54492C9.24611 9.54492 9.46997 9.32106 9.46997 9.04492C9.46997 8.76878 9.24611 8.54492 8.96997 8.54492C8.69383 8.54492 8.46997 8.76878 8.46997 9.04492C8.46997 9.32106 8.69383 9.54492 8.96997 9.54492Z" fill="#BDBDBD"/>
<path d="M7.03003 9.54492C7.30617 9.54492 7.53003 9.32106 7.53003 9.04492C7.53003 8.76878 7.30617 8.54492 7.03003 8.54492C6.75389 8.54492 6.53003 8.76878 6.53003 9.04492C6.53003 9.32106 6.75389 9.54492 7.03003 9.54492Z" fill="#BDBDBD"/>
<path d="M5.03003 9.54492C5.30617 9.54492 5.53003 9.32106 5.53003 9.04492C5.53003 8.76878 5.30617 8.54492 5.03003 8.54492C4.75389 8.54492 4.53003 8.76878 4.53003 9.04492C4.53003 9.32106 4.75389 9.54492 5.03003 9.54492Z" fill="#BDBDBD"/>
</svg>
