<svg width="20" height="17" viewBox="0 0 20 17" fill="none" xmlns="http://www.w3.org/2000/svg">
<path d="M16.3989 17.0001H3.21735C2.79046 17.0001 2.36783 16.9152 1.97408 16.7503C1.58034 16.5854 1.22336 16.3437 0.923945 16.0395C0.624532 15.7352 0.388676 15.3743 0.230121 14.978C0.071566 14.5816 -0.00651598 14.1577 0.000425326 13.7309V5.80625C0.00732507 4.95761 0.349294 4.14607 0.951837 3.54843C1.55438 2.95078 2.36868 2.61545 3.21735 2.61548H16.3989C17.2476 2.61545 18.0619 2.95078 18.6644 3.54843C19.2669 4.14607 19.6089 4.95761 19.6158 5.80625V13.7309C19.6228 14.1577 19.5447 14.5816 19.3861 14.978C19.2276 15.3743 18.9917 15.7352 18.6923 16.0395C18.3929 16.3437 18.0359 16.5854 17.6422 16.7503C17.2484 16.9152 16.8258 17.0001 16.3989 17.0001ZM3.21735 3.92317C2.71549 3.92312 2.23379 4.12068 1.87648 4.47309C1.51917 4.82551 1.31499 5.30443 1.30812 5.80625V13.7309C1.30113 13.986 1.34534 14.2399 1.43816 14.4776C1.53097 14.7153 1.67049 14.932 1.84848 15.1148C2.02647 15.2977 2.23931 15.443 2.47443 15.5422C2.70955 15.6414 2.96216 15.6925 3.21735 15.6924H16.3989C16.6541 15.6925 16.9067 15.6414 17.1418 15.5422C17.3769 15.443 17.5898 15.2977 17.7678 15.1148C17.9457 14.932 18.0853 14.7153 18.1781 14.4776C18.2709 14.2399 18.3151 13.986 18.3081 13.7309V5.80625C18.3012 5.30443 18.0971 4.82551 17.7398 4.47309C17.3824 4.12068 16.9007 3.92312 16.3989 3.92317H3.21735Z" fill="#FF5F4E"/>
<path d="M15.0389 3.92308H4.57736V3.26923C4.57216 2.84177 4.65188 2.41753 4.81187 2.02111C4.97187 1.62469 5.20897 1.26397 5.50942 0.959873C5.80987 0.655772 6.1677 0.414338 6.56216 0.249567C6.95662 0.0847969 7.37986 -3.1524e-05 7.80736 8.78786e-09H11.8089C12.2364 -3.1524e-05 12.6596 0.0847969 13.0541 0.249567C13.4486 0.414338 13.8064 0.655772 14.1068 0.959873C14.4073 1.26397 14.6444 1.62469 14.8044 2.02111C14.9644 2.41753 15.0441 2.84177 15.0389 3.26923V3.92308ZM5.9962 2.61538H13.62C13.492 2.23591 13.2486 1.9059 12.9239 1.67145C12.5992 1.437 12.2094 1.30983 11.8089 1.30769H7.80736C7.40686 1.30983 7.01704 1.437 6.69233 1.67145C6.36762 1.9059 6.12425 2.23591 5.9962 2.61538Z" fill="#FF5F4E"/>
<path d="M10.462 7.16605C10.462 6.80494 10.1692 6.51221 9.80811 6.51221C9.447 6.51221 9.15427 6.80494 9.15427 7.16605V12.3968C9.15427 12.7579 9.447 13.0507 9.80811 13.0507C10.1692 13.0507 10.462 12.7579 10.462 12.3968V7.16605Z" fill="#FF5F4E"/>
<path d="M12.4235 9.12793H7.19273C6.83162 9.12793 6.53888 9.42067 6.53888 9.78178C6.53888 10.1429 6.83162 10.4356 7.19273 10.4356H12.4235C12.7846 10.4356 13.0773 10.1429 13.0773 9.78178C13.0773 9.42067 12.7846 9.12793 12.4235 9.12793Z" fill="#FF5F4E"/>
</svg>
