<svg width="17" height="14" viewBox="0 0 17 14" fill="none" xmlns="http://www.w3.org/2000/svg">
<path d="M16.5 2.039C15.905 2.3 15.271 2.473 14.61 2.557C15.29 2.151 15.809 1.513 16.053 0.744C15.419 1.122 14.719 1.389 13.973 1.538C13.371 0.897 12.513 0.5 11.577 0.5C9.761 0.5 8.299 1.974 8.299 3.781C8.299 4.041 8.321 4.291 8.375 4.529C5.648 4.396 3.235 3.089 1.614 1.098C1.331 1.589 1.165 2.151 1.165 2.756C1.165 3.892 1.75 4.899 2.622 5.482C2.095 5.472 1.578 5.319 1.14 5.078C1.14 5.088 1.14 5.101 1.14 5.114C1.14 6.708 2.277 8.032 3.768 8.337C3.501 8.41 3.21 8.445 2.908 8.445C2.698 8.445 2.486 8.433 2.287 8.389C2.712 9.688 3.918 10.643 5.352 10.674C4.236 11.547 2.819 12.073 1.285 12.073C1.016 12.073 0.758 12.061 0.5 12.028C1.953 12.965 3.675 13.5 5.532 13.5C11.568 13.5 14.868 8.5 14.868 4.166C14.868 4.021 14.863 3.881 14.856 3.742C15.507 3.28 16.054 2.703 16.5 2.039Z" fill="#828282"/>
</svg>
